<?xml version="1.0" encoding="utf-8"?>
<!-- Generator: Adobe Illustrator 18.1.1, SVG Export Plug-In . SVG Version: 6.00 Build 0)  -->
<!DOCTYPE svg PUBLIC "-//W3C//DTD SVG 1.1//EN" "http://www.w3.org/Graphics/SVG/1.1/DTD/svg11.dtd">
<svg version="1.1" id="Layer_1" xmlns="http://www.w3.org/2000/svg" xmlns:xlink="http://www.w3.org/1999/xlink" x="0px" y="0px"
   viewBox="0 0 2048 1536" enable-background="new 0 0 2048 1536" xml:space="preserve">
<path id="time-5-icon" fill="#0099FF" d="M493.5,895.5c-0.9,30.6,1.2,60.6,6,91.2l-131.1,33.9c-7.5-41.4-10.8-82.8-9.9-125.1H493.5
  L493.5,895.5z M452.1,1236.3l110.1-78.3c-15.9-26.4-29.4-54.6-40.2-84l-131.4,33.6C406.2,1153.2,426.9,1196.4,452.1,1236.3z
   M684.9,1294.2c-25.2-18.9-48.3-40.5-69-63.9l-110.7,78.6c32.7,38.4,70.2,72.9,111.3,102.3L684.9,1294.2z M976.2,291
  c-168.6,0-333.6,67.5-444.9,177L424.8,361.5l-69,378.6l378.6-69L626.7,563.4c87-85.2,218.1-137.7,349.5-137.7
  c266.7,0,483,216.3,483,483s-216.3,483-483,483c-77.1,0-150-18-214.8-50.4L693.3,1458c84.9,43.8,180.9,68.4,283.2,68.4
  c341.4,0,618-276.6,618-618S1317.6,291,976.2,291z M1287.3,909.3h-271.5V605.7H894.3v425.4h393V909.3z"/>
</svg>
