<?xml version="1.0" encoding="utf-8"?>
<!-- Generator: Adobe Illustrator 18.1.1, SVG Export Plug-In . SVG Version: 6.00 Build 0)  -->
<!DOCTYPE svg PUBLIC "-//W3C//DTD SVG 1.1//EN" "http://www.w3.org/Graphics/SVG/1.1/DTD/svg11.dtd">
<svg version="1.1" xmlns="http://www.w3.org/2000/svg" xmlns:xlink="http://www.w3.org/1999/xlink" x="0px" y="0px"
	 viewBox="0 0 97 104.9" enable-background="new 0 0 97 104.9" xml:space="preserve">
<g id="Layer_1">
</g>
<g id="Grid">
	<g>
		<path fill="#FFFFFF" d="M95,35.1c0-9.3-3.3-14.4-11.6-18.5L61.2,5.5c-4.8-2.4-7.5-3.4-12.8-3.4c-4.7,0-8.5,1.2-12.6,3.3L13.4,16.4
			c-7.8,3.9-11.4,9-11.4,18.1v17.6c0,0.1,0,0.2,0,0.4c0,0.1,0,0.2,0,0.4v17.6c0,9,3.6,14.2,11.4,18.1l22.4,11.1
			c4.1,2,7.9,3.3,12.6,3.3c5.3,0,8-1,12.8-3.4l22.3-11.1C91.8,84.3,95,79.1,95,69.8v-17c0-0.1,0-0.2,0-0.4c0-0.1,0-0.2,0-0.4V35.1z"
			/>
		<g>
			<g>
				<path fill="#33CCCC" d="M20.6,21l-2.1,1.1c-6.6,3.3-9.7,7.6-9.7,15.2v8.2l16.9-20.3L20.6,21z"/>
				<path fill="#0099FF" d="M9.8,56l10.2,8.4l41.7-50.2l-2.8-1.4c-4.1-2-6.3-2.8-10.8-2.8c0,0,0,0-0.1,0L9.8,56L9.8,56z"/>
				<path fill="#33CCCC" d="M87.4,37.8c0-3.5-0.5-6.3-1.8-8.6L67.8,50.6l19.5,16.2V52.7c0-0.1,0-0.2,0-0.3c0-0.1,0-0.2,0-0.3V37.8z"
					/>
				<path fill="#33CCFF" d="M62.2,45.9l18.4-22.1c-0.9-0.6-1.8-1.1-2.9-1.6l-9.2-4.6L52,37.4L62.2,45.9z"/>
				<polygon fill="#0099CC" points="35.2,13.8 27.9,17.4 30.4,19.5 				"/>
				<path fill="#33CC00" d="M54.7,66.5l20.8,17.3l2.1-1.1c4.1-2,6.7-4.4,8.2-7.5L63.1,56.3L54.7,66.5z"/>
				<path fill="#339900" d="M34.5,90.8l2.9,1.4c3.5,1.7,6.7,2.7,10.7,2.7c4.5,0,6.7-0.8,10.8-2.8l9.4-4.7L49.9,72.2L34.5,90.8z"/>
				<path fill="#006633" d="M8.8,67.6c0,7.6,3,12,9.7,15.2l9.2,4.5l3.4-4.1L8.8,64.8V67.6z"/>
			</g>
			<polyline fill="#339966" points="57.4,51.6 35.8,77.6 25.6,69.2 47.3,43.1 			"/>
		</g>
	</g>
</g>
</svg>
