<?xml version="1.0" encoding="utf-8"?>
<!-- Generator: Adobe Illustrator 18.1.1, SVG Export Plug-In . SVG Version: 6.00 Build 0)  -->
<!DOCTYPE svg PUBLIC "-//W3C//DTD SVG 1.1//EN" "http://www.w3.org/Graphics/SVG/1.1/DTD/svg11.dtd">
<svg version="1.1" xmlns="http://www.w3.org/2000/svg" xmlns:xlink="http://www.w3.org/1999/xlink" x="0px" y="0px"
	 viewBox="0 0 19.3 19.3" enable-background="new 0 0 19.3 19.3" xml:space="preserve">
<g id="Layer_1">
	<g opacity="0.9">
		<defs>
			<rect id="SVGID_1_" x="-1150" y="149.5" opacity="0.9" width="1399.6" height="425.8"/>
		</defs>
		<clipPath id="SVGID_2_">
			<use xlink:href="#SVGID_1_"  overflow="visible"/>
		</clipPath>
		<g clip-path="url(#SVGID_2_)">
			<polygon fill="none" points="-136,102.4 -91.3,152.1 2.9,152.1 47.4,112.2 -39.3,15.6 			"/>
			
				<rect x="10.3" y="-64.9" transform="matrix(-0.668 -0.7442 0.7442 -0.668 125.4047 56.0494)" fill="none" width="129.8" height="129.8"/>
			<polygon fill="#FFFFFF" points="-1866.9,793 -1770.3,706.3 -1780.5,694.8 -1757.7,674.3 -1747.4,685.7 -1650.8,599 -1661,587.6 
				-1638.2,567.1 -1627.9,578.5 -1531.3,491.8 -1541.5,480.3 -1518.7,459.8 -1508.4,471.2 -1411.8,384.5 -1422.1,373.1 
				-1399.2,352.5 -1388.9,364 -1292.3,277.3 -1302.6,265.8 -1279.7,245.3 -1269.4,256.7 -1172.8,170 -1183.1,158.6 -1160.2,138 
				-1150,149.5 -1053.3,62.8 -1063.6,51.3 -1040.7,30.8 -1030.5,42.2 -933.8,-44.5 -944.1,-55.9 -921.2,-76.5 -911,-65 
				-826.8,-140.6 -837.1,-152 -814.2,-172.5 -803.9,-161.1 -707.3,-247.8 -717.6,-259.3 -694.7,-279.8 -684.5,-268.3 -587.8,-355.1 
				-598.1,-366.5 -575.2,-387 -565,-375.6 -468.3,-462.3 -478.6,-473.8 -455.7,-494.3 -445.5,-482.9 -348.9,-569.6 -359.1,-581 
				-336.3,-601.5 -326,-590.1 -229.4,-676.8 -239.6,-688.3 -216.8,-708.8 -206.5,-697.4 -109.9,-784.1 -120.1,-795.5 -97.3,-816 
				-87,-804.6 9.6,-891.3 -0.7,-902.8 22.2,-923.3 32.5,-911.9 140.5,-1008.9 120,-1031.7 -1898.8,780.4 -1888.6,791.8 
				-1877.1,781.6 			"/>
			<polygon fill="#FFFFFF" points="978,-75.8 870,21.2 880.2,32.6 857.4,53.1 847.1,41.7 750.5,128.4 760.7,139.9 737.9,160.4 
				727.6,149 631,235.7 641.3,247.1 618.4,267.6 608.1,256.2 511.5,342.9 521.8,354.4 498.9,374.9 488.6,363.5 392,450.2 
				402.3,461.6 379.4,482.1 369.2,470.7 272.5,557.4 282.8,568.9 259.9,589.4 249.7,578 153,664.7 163.3,676.1 140.4,696.7 
				130.2,685.2 33.6,772 43.8,783.4 20.9,803.9 10.7,792.5 -73.5,868 -63.2,879.4 -86.1,900 -96.3,888.5 -193,975.3 -182.7,986.7 
				-205.6,1007.2 -215.8,995.8 -312.5,1082.5 -302.2,1094 -325.1,1114.5 -335.3,1103 -431.9,1189.8 -421.7,1201.2 -444.5,1221.7 
				-454.8,1210.3 -551.4,1297 -541.2,1308.5 -564,1329 -574.3,1317.6 -670.9,1404.3 -660.7,1415.7 -683.5,1436.2 -693.8,1424.8 
				-790.4,1511.5 -780.1,1523 -803,1543.5 -813.3,1532.1 -909.9,1618.8 -899.6,1630.2 -922.5,1650.7 -932.8,1639.3 -1029.4,1726 
				-1019.1,1737.5 -1030.6,1747.7 -1020.3,1759.2 998.6,-52.9 			"/>
			
				<rect x="-49.5" y="38.3" transform="matrix(-0.668 -0.7442 0.7442 -0.668 -14.1555 101.0363)" fill="#FFFFFF" width="129.8" height="30.7"/>
		</g>
	</g>
	<path fill="#B9C0C1" d="M9.7,0.5c-5.1,0-9.2,4.1-9.2,9.2s4.1,9.2,9.2,9.2c5.1,0,9.2-4.1,9.2-9.2S14.7,0.5,9.7,0.5z M11.9,9.7h-1.4
		v5.2H8.3V9.7H7.3V7.9h1.1V6.8c0-0.8,0.2-1.3,0.5-1.7c0.4-0.4,1-0.6,1.8-0.6h1.4v1.8h-0.9c-0.2,0-0.3,0-0.4,0
		c-0.1,0-0.2,0.1-0.2,0.1c0,0.1-0.1,0.1-0.1,0.2c0,0.1,0,0.2,0,0.3v0.9h1.6L11.9,9.7z"/>
</g>
<g id="Grid">
</g>
</svg>
