<svg xmlns="http://www.w3.org/2000/svg" xmlns:xlink="http://www.w3.org/1999/xlink" viewBox="0 0 19.3 19.3"><g opacity=".9"><defs><path id="a" opacity=".9" d="M-1120.8 149.5H278.8v425.8h-1399.6z"/></defs><clipPath id="b"><use xlink:href="#a" overflow="visible"/></clipPath><g clip-path="url(#b)"><path fill="none" d="M-106.8 102.4l44.7 49.7h94.2l44.4-39.9-86.7-96.6M99.38 91.762L12.676-4.835l96.597-86.707L195.98 5.056z"/><path fill="#FFF" d="M-1837.8 793l96.7-86.7-10.3-11.5 22.9-20.5 10.2 11.4 96.7-86.7-10.3-11.4 22.9-20.5 10.2 11.4 96.6-86.7-10.2-11.5 22.9-20.5 10.2 11.4 96.6-86.7-10.2-11.4 22.8-20.6 10.3 11.5 96.6-86.7-10.2-11.5 22.8-20.5 10.3 11.4 96.6-86.7-10.2-11.4 22.8-20.6 10.3 11.5 96.6-86.7-10.3-11.5 22.9-20.5 10.3 11.4 96.6-86.7-10.3-11.4 22.9-20.6 10.3 11.5 84.1-75.6-10.2-11.4 22.8-20.5 10.3 11.4 96.6-86.7-10.3-11.5 22.9-20.5 10.3 11.5 96.6-86.8-10.3-11.4 22.9-20.5 10.3 11.4 96.6-86.7-10.3-11.5 22.9-20.5 10.3 11.4 96.6-86.7L-330-581l22.9-20.5 10.2 11.4 96.7-86.7-10.3-11.5 22.9-20.5 10.2 11.4 96.7-86.7-10.3-11.4 22.9-20.5 10.2 11.4 96.6-86.7-10.2-11.5 22.8-20.5 10.3 11.4 108.1-97-20.6-22.8-2018.8 1812.1 10.3 11.4 11.4-10.2M1007.2-75.8l-108.1 97 10.3 11.4-22.9 20.5-10.3-11.4-96.6 86.7 10.3 11.5-22.9 20.5-10.2-11.4-96.7 86.7 10.3 11.4-22.9 20.5-10.2-11.4-96.7 86.7 10.3 11.5-22.9 20.5-10.2-11.4-96.6 86.7 10.2 11.4-22.9 20.5-10.2-11.4-96.6 86.7 10.2 11.5-22.8 20.5-10.3-11.4-96.6 86.7 10.2 11.4-22.8 20.6-10.3-11.5L62.7 772l10.2 11.4-22.8 20.5-10.3-11.4-84.1 75.5 10.2 11.4-22.8 20.6-10.3-11.5-96.6 86.8 10.2 11.4-22.8 20.5-10.3-11.4-96.6 86.7 10.2 11.5-22.8 20.5-10.3-11.5-96.6 86.8 10.3 11.4-22.9 20.5-10.3-11.4-96.6 86.7 10.3 11.5-22.9 20.5-10.3-11.4-96.6 86.7 10.3 11.4-22.9 20.5-10.3-11.4-96.6 86.7 10.3 11.5-22.9 20.5-10.2-11.4-96.7 86.7 10.3 11.4-22.9 20.5-10.2-11.4-96.7 86.7 10.3 11.5-11.4 10.2 10.2 11.5L1027.7-52.9M76.502 112.24l-86.706-96.597L12.643-4.865 99.35 91.732zM-10.175 15.61L-30.682-7.235l22.847-20.508L12.672-4.897z"/></g></g><path fill="#B9C0C1" d="M9.7.5C4.6.5.5 4.6.5 9.7s4.1 9.2 9.2 9.2 9.2-4.1 9.2-9.2S14.7.5 9.7.5zm3.9 12.1c-.6.8-1.4 1.4-2.4 1.7H11c-.1-.1-.1-.1-.1-.2v-1.3c0-.4-.1-.7-.3-.9.2 0 .5-.1.6-.1.2-.1.4-.1.6-.2.2-.1.4-.3.5-.4.1-.2.2-.4.3-.7.1-.3.1-.6.1-.9 0-.5-.2-.9-.5-1.3.2-.4.1-.8-.1-1.3-.1 0-.3 0-.5.1l-.6.3-.2.2c-.4-.1-.8-.2-1.2-.2-.4 0-.8.1-1.2.2-.1 0-.2-.1-.3-.2 0-.2-.2-.3-.4-.4s-.4-.1-.6 0c-.2.5-.2.9 0 1.3-.3.3-.5.7-.5 1.2 0 .4 0 .7.1.9.1.4.2.6.3.7.1.2.3.3.5.4.2.1.4.2.6.2.2.1.4.1.6.1-.2.2-.3.4-.3.6-.1 0-.2.1-.3.1h-.4c-.1 0-.3 0-.4-.1-.1-.1-.3-.2-.3-.4l-.2-.2c-.1-.1-.2-.1-.3-.2H6.2v.1s0 .1.1.1l.1.1c.1 0 .2.1.3.2.1.1.2.2.2.3l.1.1c-.1.3 0 .5.1.6.1.1.3.2.4.2H8.3V14.2c0 .1 0 .1-.1.2s-.1.1-.3 0c-1-.3-1.8-.9-2.4-1.7-.6-.8-.9-1.8-.9-2.8 0-.9.2-1.7.6-2.4.4-.7 1-1.3 1.8-1.8C8 5.2 8.8 5 9.7 5c.9 0 1.7.2 2.4.6.7.4 1.3 1 1.8 1.8.4.7.6 1.5.6 2.4 0 1-.3 2-.9 2.8z"/></svg>