<?xml version="1.0" encoding="utf-8"?>
<!-- Generator: Adobe Illustrator 18.1.1, SVG Export Plug-In . SVG Version: 6.00 Build 0)  -->
<!DOCTYPE svg PUBLIC "-//W3C//DTD SVG 1.1//EN" "http://www.w3.org/Graphics/SVG/1.1/DTD/svg11.dtd">
<svg version="1.1" xmlns="http://www.w3.org/2000/svg" xmlns:xlink="http://www.w3.org/1999/xlink" x="0px" y="0px"
	 viewBox="0 0 19.3 19.3" enable-background="new 0 0 19.3 19.3" xml:space="preserve">
<g id="Layer_1">
	<g opacity="0.9">
		<defs>
			<rect id="SVGID_1_" x="-1120.8" y="149.5" opacity="0.9" width="1399.6" height="425.8"/>
		</defs>
		<clipPath id="SVGID_2_">
			<use xlink:href="#SVGID_1_"  overflow="visible"/>
		</clipPath>
		<g clip-path="url(#SVGID_2_)">
			<polygon fill="none" points="-106.8,102.4 -62.1,152.1 32.1,152.1 76.5,112.2 -10.2,15.6 			"/>
			
				<rect x="39.4" y="-64.9" transform="matrix(-0.668 -0.7442 0.7442 -0.668 173.9992 77.7302)" fill="none" width="129.8" height="129.8"/>
			<polygon fill="#FFFFFF" points="-1837.8,793 -1741.1,706.3 -1751.4,694.8 -1728.5,674.3 -1718.3,685.7 -1621.6,599 
				-1631.9,587.6 -1609,567.1 -1598.8,578.5 -1502.2,491.8 -1512.4,480.3 -1489.5,459.8 -1479.3,471.2 -1382.7,384.5 -1392.9,373.1 
				-1370.1,352.5 -1359.8,364 -1263.2,277.3 -1273.4,265.8 -1250.6,245.3 -1240.3,256.7 -1143.7,170 -1153.9,158.6 -1131.1,138 
				-1120.8,149.5 -1024.2,62.8 -1034.5,51.3 -1011.6,30.8 -1001.3,42.2 -904.7,-44.5 -915,-55.9 -892.1,-76.5 -881.8,-65 
				-797.7,-140.6 -807.9,-152 -785.1,-172.5 -774.8,-161.1 -678.2,-247.8 -688.5,-259.3 -665.6,-279.8 -655.3,-268.3 -558.7,-355.1 
				-569,-366.5 -546.1,-387 -535.8,-375.6 -439.2,-462.3 -449.5,-473.8 -426.6,-494.3 -416.3,-482.9 -319.7,-569.6 -330,-581 
				-307.1,-601.5 -296.9,-590.1 -200.2,-676.8 -210.5,-688.3 -187.6,-708.8 -177.4,-697.4 -80.7,-784.1 -91,-795.5 -68.1,-816 
				-57.9,-804.6 38.7,-891.3 28.5,-902.8 51.3,-923.3 61.6,-911.9 169.7,-1008.9 149.1,-1031.7 -1869.7,780.4 -1859.4,791.8 
				-1848,781.6 			"/>
			<polygon fill="#FFFFFF" points="1007.2,-75.8 899.1,21.2 909.4,32.6 886.5,53.1 876.2,41.7 779.6,128.4 789.9,139.9 767,160.4 
				756.8,149 660.1,235.7 670.4,247.1 647.5,267.6 637.3,256.2 540.6,342.9 550.9,354.4 528,374.9 517.8,363.5 421.2,450.2 
				431.4,461.6 408.5,482.1 398.3,470.7 301.7,557.4 311.9,568.9 289.1,589.4 278.8,578 182.2,664.7 192.4,676.1 169.6,696.7 
				159.3,685.2 62.7,772 72.9,783.4 50.1,803.9 39.8,792.5 -44.3,868 -34.1,879.4 -56.9,900 -67.2,888.5 -163.8,975.3 -153.6,986.7 
				-176.4,1007.2 -186.7,995.8 -283.3,1082.5 -273.1,1094 -295.9,1114.5 -306.2,1103 -402.8,1189.8 -392.5,1201.2 -415.4,1221.7 
				-425.7,1210.3 -522.3,1297 -512,1308.5 -534.9,1329 -545.2,1317.6 -641.8,1404.3 -631.5,1415.7 -654.4,1436.2 -664.7,1424.8 
				-761.3,1511.5 -751,1523 -773.9,1543.5 -784.1,1532.1 -880.8,1618.8 -870.5,1630.2 -893.4,1650.7 -903.6,1639.3 -1000.3,1726 
				-990,1737.5 -1001.4,1747.7 -991.2,1759.2 1027.7,-52.9 			"/>
			
				<rect x="-20.3" y="38.3" transform="matrix(-0.668 -0.7442 0.7442 -0.668 34.439 122.7171)" fill="#FFFFFF" width="129.8" height="30.7"/>
			
				<rect x="-24.4" y="-21.4" transform="matrix(-0.668 -0.7442 0.7442 -0.668 -10.548 -16.843)" fill="#FFFFFF" width="30.7" height="30.7"/>
		</g>
	</g>
	<path fill="#B9C0C1" d="M9.7,0.5c-5.1,0-9.2,4.1-9.2,9.2s4.1,9.2,9.2,9.2c5.1,0,9.2-4.1,9.2-9.2S14.7,0.5,9.7,0.5z M13.6,12.6
		c-0.6,0.8-1.4,1.4-2.4,1.7c-0.1,0-0.2,0-0.2,0c-0.1-0.1-0.1-0.1-0.1-0.2v-1.3c0-0.4-0.1-0.7-0.3-0.9c0.2,0,0.5-0.1,0.6-0.1
		c0.2-0.1,0.4-0.1,0.6-0.2c0.2-0.1,0.4-0.3,0.5-0.4c0.1-0.2,0.2-0.4,0.3-0.7c0.1-0.3,0.1-0.6,0.1-0.9c0-0.5-0.2-0.9-0.5-1.3
		c0.2-0.4,0.1-0.8-0.1-1.3c-0.1,0-0.3,0-0.5,0.1c-0.2,0.1-0.4,0.2-0.6,0.3l-0.2,0.2c-0.4-0.1-0.8-0.2-1.2-0.2
		c-0.4,0-0.8,0.1-1.2,0.2c-0.1,0-0.2-0.1-0.3-0.2C8.1,7.2,7.9,7.1,7.7,7S7.3,6.9,7.1,7c-0.2,0.5-0.2,0.9,0,1.3
		C6.8,8.6,6.6,9,6.6,9.5c0,0.4,0,0.7,0.1,0.9C6.8,10.8,6.9,11,7,11.1c0.1,0.2,0.3,0.3,0.5,0.4c0.2,0.1,0.4,0.2,0.6,0.2
		c0.2,0.1,0.4,0.1,0.6,0.1c-0.2,0.2-0.3,0.4-0.3,0.6c-0.1,0-0.2,0.1-0.3,0.1c-0.1,0-0.2,0-0.4,0c-0.1,0-0.3,0-0.4-0.1
		c-0.1-0.1-0.3-0.2-0.3-0.4C7,12,6.9,11.9,6.8,11.8c-0.1-0.1-0.2-0.1-0.3-0.2l-0.1,0c-0.1,0-0.1,0-0.2,0c0,0,0,0,0,0.1
		c0,0,0,0.1,0.1,0.1c0,0,0.1,0.1,0.1,0.1l0,0c0.1,0,0.2,0.1,0.3,0.2c0.1,0.1,0.2,0.2,0.2,0.3l0.1,0.1C6.9,12.8,7,13,7.1,13.1
		c0.1,0.1,0.3,0.2,0.4,0.2c0.2,0,0.3,0,0.4,0c0.1,0,0.3,0,0.3,0l0.1,0c0,0.2,0,0.3,0,0.6c0,0.2,0,0.3,0,0.3c0,0.1,0,0.1-0.1,0.2
		c-0.1,0.1-0.1,0.1-0.3,0c-1-0.3-1.8-0.9-2.4-1.7c-0.6-0.8-0.9-1.8-0.9-2.8c0-0.9,0.2-1.7,0.6-2.4c0.4-0.7,1-1.3,1.8-1.8
		C8,5.2,8.8,5,9.7,5c0.9,0,1.7,0.2,2.4,0.6c0.7,0.4,1.3,1,1.8,1.8c0.4,0.7,0.6,1.5,0.6,2.4C14.5,10.8,14.2,11.8,13.6,12.6z"/>
</g>
<g id="Grid">
</g>
</svg>
