<?xml version="1.0" encoding="utf-8"?>
<!-- Generator: Adobe Illustrator 18.1.1, SVG Export Plug-In . SVG Version: 6.00 Build 0)  -->
<!DOCTYPE svg PUBLIC "-//W3C//DTD SVG 1.1//EN" "http://www.w3.org/Graphics/SVG/1.1/DTD/svg11.dtd">
<svg version="1.1" xmlns="http://www.w3.org/2000/svg" xmlns:xlink="http://www.w3.org/1999/xlink" x="0px" y="0px"
	 viewBox="0 0 19.3 19.3" enable-background="new 0 0 19.3 19.3" xml:space="preserve">
<g id="Layer_1">
	<g opacity="0.9">
		<defs>
			<rect id="SVGID_1_" x="-1091.7" y="149.5" opacity="0.9" width="1399.6" height="425.8"/>
		</defs>
		<clipPath id="SVGID_2_">
			<use xlink:href="#SVGID_1_"  overflow="visible"/>
		</clipPath>
		<g clip-path="url(#SVGID_2_)">
			<polygon fill="none" points="-77.7,102.4 -33,152.1 61.2,152.1 105.7,112.2 18.9,15.6 			"/>
			<polygon fill="#FFFFFF" points="-1808.6,793 -1712,706.3 -1722.3,694.8 -1699.4,674.3 -1689.1,685.7 -1592.5,599 -1602.8,587.6 
				-1579.9,567.1 -1569.6,578.5 -1473,491.8 -1483.3,480.3 -1460.4,459.8 -1450.1,471.2 -1353.5,384.5 -1363.8,373.1 -1340.9,352.5 
				-1330.7,364 -1234,277.3 -1244.3,265.8 -1221.4,245.3 -1211.2,256.7 -1114.6,170 -1124.8,158.6 -1101.9,138 -1091.7,149.5 
				-995.1,62.8 -1005.3,51.3 -982.5,30.8 -972.2,42.2 -875.6,-44.5 -885.8,-55.9 -863,-76.5 -852.7,-65 -768.5,-140.6 -778.8,-152 
				-755.9,-172.5 -745.7,-161.1 -649.1,-247.8 -659.3,-259.3 -636.5,-279.8 -626.2,-268.3 -529.6,-355.1 -539.8,-366.5 -517,-387 
				-506.7,-375.6 -410.1,-462.3 -420.3,-473.8 -397.5,-494.3 -387.2,-482.9 -290.6,-569.6 -300.9,-581 -278,-601.5 -267.7,-590.1 
				-171.1,-676.8 -181.4,-688.3 -158.5,-708.8 -148.2,-697.4 -51.6,-784.1 -61.9,-795.5 -39,-816 -28.7,-804.6 67.9,-891.3 
				57.6,-902.8 80.5,-923.3 90.7,-911.9 198.8,-1008.9 178.3,-1031.7 -1840.6,780.4 -1830.3,791.8 -1818.9,781.6 			"/>
			
				<rect x="-55" y="-17.4" transform="matrix(-0.668 -0.7442 0.7442 -0.668 -101.5139 49.8246)" fill="#FFFFFF" width="30.7" height="129.8"/>
			<polygon fill="#FFFFFF" points="1036.3,-75.8 928.2,21.2 938.5,32.6 915.6,53.1 905.4,41.7 808.8,128.4 819,139.9 796.1,160.4 
				785.9,149 689.3,235.7 699.5,247.1 676.7,267.6 666.4,256.2 569.8,342.9 580,354.4 557.2,374.9 546.9,363.5 450.3,450.2 
				460.5,461.6 437.7,482.1 427.4,470.7 330.8,557.4 341.1,568.9 318.2,589.4 307.9,578 211.3,664.7 221.6,676.1 198.7,696.7 
				188.4,685.2 91.8,772 102.1,783.4 79.2,803.9 69,792.5 -15.2,868 -4.9,879.4 -27.8,900 -38.1,888.5 -134.7,975.3 -124.4,986.7 
				-147.3,1007.2 -157.6,995.8 -254.2,1082.5 -243.9,1094 -266.8,1114.5 -277.1,1103 -373.7,1189.8 -363.4,1201.2 -386.3,1221.7 
				-396.5,1210.3 -493.2,1297 -482.9,1308.5 -505.8,1329 -516,1317.6 -612.7,1404.3 -602.4,1415.7 -625.3,1436.2 -635.5,1424.8 
				-732.1,1511.5 -721.9,1523 -744.7,1543.5 -755,1532.1 -851.6,1618.8 -841.4,1630.2 -864.2,1650.7 -874.5,1639.3 -971.1,1726 
				-960.9,1737.5 -972.3,1747.7 -962,1759.2 1056.8,-52.9 			"/>
			
				<rect x="8.8" y="38.3" transform="matrix(-0.668 -0.7442 0.7442 -0.668 83.0335 144.3979)" fill="#FFFFFF" width="129.8" height="30.7"/>
			
				<rect x="4.7" y="-21.4" transform="matrix(-0.668 -0.7442 0.7442 -0.668 38.0464 4.8379)" fill="#FFFFFF" width="30.7" height="30.7"/>
		</g>
	</g>
	<path fill="#B9C0C1" d="M9.7,0.5c-5.1,0-9.2,4.1-9.2,9.2s4.1,9.2,9.2,9.2s9.2-4.1,9.2-9.2S14.7,0.5,9.7,0.5z M13.6,7.7
		c0,0.1,0,0.1,0,0.3c0,0.5-0.1,1.1-0.2,1.6c-0.2,0.5-0.4,1.1-0.7,1.6c-0.3,0.5-0.7,0.9-1.2,1.3c-0.4,0.4-1,0.7-1.6,0.9
		c-0.6,0.2-1.3,0.3-2,0.3c-1.1,0-2.2-0.3-3.1-0.9c0.1,0,0.3,0,0.5,0c0.9,0,1.8-0.3,2.5-0.9c-0.4,0-0.8-0.1-1.2-0.4
		c-0.3-0.3-0.6-0.6-0.7-1c0.1,0,0.3,0,0.4,0c0.2,0,0.4,0,0.5-0.1c-0.5-0.1-0.9-0.3-1.2-0.7C5.3,9.4,5.1,9,5.1,8.5v0
		C5.4,8.6,5.7,8.7,6,8.7C5.8,8.5,5.5,8.3,5.4,8C5.2,7.7,5.1,7.4,5.1,7c0-0.4,0.1-0.7,0.3-1c0.5,0.6,1.1,1.1,1.9,1.5
		C8,7.9,8.8,8.1,9.6,8.1c0-0.2-0.1-0.3-0.1-0.5c0-0.6,0.2-1,0.6-1.4c0.4-0.4,0.9-0.6,1.4-0.6c0.6,0,1.1,0.2,1.5,0.6
		C13.5,6.2,14,6,14.4,5.8c-0.2,0.5-0.5,0.9-0.9,1.1c0.4,0,0.8-0.1,1.2-0.3C14.4,7,14,7.4,13.6,7.7z"/>
</g>
<g id="Grid">
</g>
</svg>
