<?xml version="1.0" encoding="utf-8"?>
<!-- Generator: Adobe Illustrator 18.1.1, SVG Export Plug-In . SVG Version: 6.00 Build 0)  -->
<!DOCTYPE svg PUBLIC "-//W3C//DTD SVG 1.1//EN" "http://www.w3.org/Graphics/SVG/1.1/DTD/svg11.dtd">
<svg version="1.1" xmlns="http://www.w3.org/2000/svg" xmlns:xlink="http://www.w3.org/1999/xlink" x="0px" y="0px"
	 viewBox="0 0 1399.6 319" enable-background="new 0 0 1399.6 319" xml:space="preserve">
<g id="Layer_1">
	<g opacity="0.9">
		<defs>
			<rect id="SVGID_1_" x="0" y="743" opacity="0.9" width="1399.6" height="319"/>
		</defs>
		<clipPath id="SVGID_2_">
			<use xlink:href="#SVGID_1_"  overflow="visible"/>
		</clipPath>
		<g clip-path="url(#SVGID_2_)">
			
				<rect x="826.2" y="341.1" transform="matrix(0.668 0.7442 -0.7442 0.668 598.0177 -528.3878)" fill="none" width="129.8" height="129.8"/>
			
				<rect x="850.7" y="-112.4" transform="matrix(0.668 0.7442 -0.7442 0.668 268.6678 -697.1657)" fill="none" width="129.8" height="129.8"/>
			
				<rect x="731.2" y="-5.2" transform="matrix(0.668 0.7442 -0.7442 0.668 308.8107 -572.6342)" fill="none" width="129.8" height="129.8"/>
			
				<rect x="372.8" y="316.6" transform="matrix(0.668 0.7442 -0.7442 0.668 429.2389 -199.0378)" fill="none" width="129.8" height="129.8"/>
			
				<rect x="492.2" y="209.3" transform="matrix(0.668 0.7442 -0.7442 0.668 389.0966 -323.5701)" fill="none" width="129.8" height="129.8"/>
			
				<rect x="611.7" y="102.1" transform="matrix(0.668 0.7442 -0.7442 0.668 348.9529 -448.1019)" fill="none" width="129.8" height="129.8"/>
			
				<rect x="1172.5" y="246.1" transform="matrix(-0.7442 0.668 -0.668 -0.7442 2365.96 -284.1538)" fill="none" width="129.8" height="129.8"/>
			
				<rect x="945.7" y="233.8" transform="matrix(0.668 0.7442 -0.7442 0.668 557.874 -652.9193)" fill="none" width="129.8" height="129.8"/>
			
				<rect x="1065.2" y="126.6" transform="matrix(0.668 0.7442 -0.7442 0.668 517.7317 -777.4512)" fill="none" width="129.8" height="129.8"/>
			
				<rect x="1411.5" y="31.5" transform="matrix(-0.7442 0.668 -0.668 -0.7442 2639.4956 -817.9229)" fill="none" width="129.8" height="129.8"/>
			
				<rect x="1304.2" y="-87.9" transform="matrix(-0.7442 0.668 -0.668 -0.7442 2372.6104 -954.6914)" fill="none" width="129.8" height="129.8"/>
			
				<rect x="958" y="7.1" transform="matrix(0.668 0.7442 -0.7442 0.668 393.2006 -737.3091)" fill="none" width="129.8" height="129.8"/>
			
				<rect x="719" y="221.6" transform="matrix(0.668 0.7442 -0.7442 0.668 473.4857 -488.2451)" fill="none" width="129.8" height="129.8"/>
			
				<rect x="599.5" y="328.8" transform="matrix(0.668 0.7442 -0.7442 0.668 513.6288 -363.7129)" fill="none" width="129.8" height="129.8"/>
			
				<rect x="838.5" y="114.3" transform="matrix(0.668 0.7442 -0.7442 0.668 433.3433 -612.7772)" fill="none" width="129.8" height="129.8"/>
			
				<rect x="1399.2" y="258.3" transform="matrix(-0.7442 0.668 -0.668 -0.7442 2769.6128 -414.2698)" fill="none" width="129.8" height="129.8"/>
			
				<rect x="1292" y="138.8" transform="matrix(-0.7442 0.668 -0.668 -0.7442 2502.7275 -551.0384)" fill="none" width="129.8" height="129.8"/>
			
				<rect x="1077.5" y="-100.2" transform="matrix(0.668 0.7442 -0.7442 0.668 353.0576 -861.8408)" fill="none" width="129.8" height="129.8"/>
			
				<rect x="1184.7" y="19.3" transform="matrix(-0.7442 0.668 -0.668 -0.7442 2235.8425 -687.8065)" fill="none" width="129.8" height="129.8"/>
			<polygon fill="#FFFFFF" points="-716.9,1330.7 -620.3,1243.9 -630.6,1232.5 -607.7,1212 -597.4,1223.4 -500.8,1136.7 
				-511.1,1125.2 -488.2,1104.7 -478,1116.2 -381.3,1029.4 -391.6,1018 -368.7,997.5 -358.5,1008.9 -261.8,922.2 -272.1,910.7 
				-249.2,890.2 -239,901.7 -142.4,814.9 -152.6,803.5 -129.8,783 -119.5,794.4 -22.9,707.7 -33.1,696.2 -10.3,675.7 0,687.1 
				96.6,600.4 86.4,589 109.2,568.5 119.5,579.9 216.1,493.2 205.8,481.7 228.7,461.2 239,472.6 323.1,397.1 312.9,385.7 
				335.7,365.1 346,376.6 442.6,289.8 432.4,278.4 455.2,257.9 465.5,269.3 562.1,182.6 551.9,171.2 574.7,150.6 585,162.1 
				681.6,75.3 671.3,63.9 694.2,43.4 704.5,54.8 801.1,-31.9 790.8,-43.3 813.7,-63.9 824,-52.4 920.6,-139.2 910.3,-150.6 
				933.2,-171.1 943.4,-159.7 1040.1,-246.4 1029.8,-257.9 1052.7,-278.4 1062.9,-266.9 1159.6,-353.7 1149.3,-365.1 1172.2,-385.6 
				1182.4,-374.2 1290.5,-471.2 1270,-494.1 -748.9,1318.1 -738.6,1329.5 -727.2,1319.2 			"/>
			
				<rect x="834.4" y="54.6" transform="matrix(0.668 0.7442 -0.7442 0.668 371.0752 -592.7045)" fill="#FFFFFF" width="30.7" height="129.8"/>
			
				<rect x="953.9" y="-52.7" transform="matrix(0.668 0.7442 -0.7442 0.668 330.9335 -717.2368)" fill="#FFFFFF" width="30.7" height="129.8"/>
			
				<rect x="595.4" y="269.1" transform="matrix(0.668 0.7442 -0.7442 0.668 451.3608 -343.6412)" fill="#FFFFFF" width="30.7" height="129.8"/>
			
				<rect x="714.9" y="161.8" transform="matrix(0.668 0.7442 -0.7442 0.668 411.22 -468.1738)" fill="#FFFFFF" width="30.7" height="129.8"/>
			
				<rect x="1131.1" y="9.1" transform="matrix(-0.7442 0.668 -0.668 -0.7442 2102.4009 -756.1898)" fill="#FFFFFF" width="129.8" height="30.7"/>
			
				<rect x="941.7" y="174.1" transform="matrix(0.668 0.7442 -0.7442 0.668 495.6094 -632.8486)" fill="#FFFFFF" width="30.7" height="129.8"/>
			
				<rect x="1061.1" y="66.8" transform="matrix(0.668 0.7442 -0.7442 0.668 455.4641 -757.3787)" fill="#FFFFFF" width="30.7" height="129.8"/>
			
				<rect x="822.2" y="281.3" transform="matrix(0.668 0.7442 -0.7442 0.668 535.7496 -508.3156)" fill="#FFFFFF" width="30.7" height="129.8"/>
			
				<rect x="1048.9" y="293.6" transform="matrix(0.668 0.7442 -0.7442 0.668 620.1409 -672.9911)" fill="#FFFFFF" width="30.7" height="129.8"/>
			
				<rect x="1118.8" y="235.9" transform="matrix(-0.7442 0.668 -0.668 -0.7442 2232.5173 -352.5378)" fill="#FFFFFF" width="129.8" height="30.7"/>
			
				<rect x="1238.3" y="128.6" transform="matrix(-0.7442 0.668 -0.668 -0.7442 2369.2849 -619.4227)" fill="#FFFFFF" width="129.8" height="30.7"/>
			
				<rect x="1357.8" y="21.4" transform="matrix(-0.7442 0.668 -0.668 -0.7442 2506.053 -886.3071)" fill="#FFFFFF" width="129.8" height="30.7"/>
			
				<rect x="1345.6" y="248.1" transform="matrix(-0.7442 0.668 -0.668 -0.7442 2636.1702 -482.6545)" fill="#FFFFFF" width="129.8" height="30.7"/>
			
				<rect x="1226.1" y="355.4" transform="matrix(-0.7442 0.668 -0.668 -0.7442 2499.4026 -215.7699)" fill="#FFFFFF" width="129.8" height="30.7"/>
			
				<rect x="1294" y="-34.3" transform="matrix(-0.7442 0.668 -0.668 -0.7442 2304.2271 -821.2486)" fill="#FFFFFF" width="30.7" height="129.8"/>
			
				<rect x="1401.3" y="85.2" transform="matrix(-0.7442 0.668 -0.668 -0.7442 2571.1121 -684.4803)" fill="#FFFFFF" width="30.7" height="129.8"/>
			
				<rect x="1347.6" y="75" transform="matrix(-0.7442 0.668 -0.668 -0.7442 2437.6692 -752.8647)" fill="#FFFFFF" width="30.7" height="30.7"/>
			
				<rect x="1389" y="311.9" transform="matrix(-0.7442 0.668 -0.668 -0.7442 2701.229 -280.8274)" fill="#FFFFFF" width="30.7" height="129.8"/>
			
				<rect x="1281.8" y="192.4" transform="matrix(-0.7442 0.668 -0.668 -0.7442 2434.343 -417.597)" fill="#FFFFFF" width="30.7" height="129.8"/>
			
				<rect x="1174.5" y="72.9" transform="matrix(-0.7442 0.668 -0.668 -0.7442 2167.4583 -554.3647)" fill="#FFFFFF" width="30.7" height="129.8"/>
			
				<rect x="1017.7" y="3" transform="matrix(0.668 0.7442 -0.7442 0.668 373.1288 -799.5746)" fill="#FFFFFF" width="129.8" height="30.7"/>
			
				<rect x="1120.9" y="62.8" transform="matrix(0.668 0.7442 -0.7442 0.668 435.3967 -819.6474)" fill="#FFFFFF" width="30.7" height="30.7"/>
			
				<rect x="1228.1" y="182.2" transform="matrix(-0.7442 0.668 -0.668 -0.7442 2300.9004 -485.981)" fill="#FFFFFF" width="30.7" height="30.7"/>
			
				<rect x="1335.4" y="301.7" transform="matrix(-0.7442 0.668 -0.668 -0.7442 2567.7856 -349.213)" fill="#FFFFFF" width="30.7" height="30.7"/>
			
				<rect x="791" y="-9.2" transform="matrix(0.668 0.7442 -0.7442 0.668 288.7393 -634.9001)" fill="#FFFFFF" width="129.8" height="30.7"/>
			
				<rect x="1162.3" y="299.7" transform="matrix(-0.7442 0.668 -0.668 -0.7442 2297.5757 -150.7127)" fill="#FFFFFF" width="30.7" height="129.8"/>
			
				<rect x="898.2" y="110.3" transform="matrix(0.668 0.7442 -0.7442 0.668 413.2716 -675.0431)" fill="#FFFFFF" width="129.8" height="30.7"/>
			
				<rect x="1005.5" y="229.7" transform="matrix(0.668 0.7442 -0.7442 0.668 537.803 -715.1854)" fill="#FFFFFF" width="129.8" height="30.7"/>
			
				<rect x="894.2" y="50.5" transform="matrix(0.668 0.7442 -0.7442 0.668 351.0038 -654.9703)" fill="#FFFFFF" width="30.7" height="30.7"/>
			
				<rect x="1001.4" y="170" transform="matrix(0.668 0.7442 -0.7442 0.668 475.5367 -695.1138)" fill="#FFFFFF" width="30.7" height="30.7"/>
			
				<rect x="1108.7" y="289.5" transform="matrix(0.668 0.7442 -0.7442 0.668 600.0695 -735.2571)" fill="#FFFFFF" width="30.7" height="30.7"/>
			
				<rect x="886" y="337" transform="matrix(0.668 0.7442 -0.7442 0.668 577.9457 -590.6534)" fill="#FFFFFF" width="129.8" height="30.7"/>
			
				<rect x="671.5" y="98" transform="matrix(0.668 0.7442 -0.7442 0.668 328.8821 -510.3681)" fill="#FFFFFF" width="129.8" height="30.7"/>
			
				<rect x="778.7" y="217.5" transform="matrix(0.668 0.7442 -0.7442 0.668 453.4144 -550.511)" fill="#FFFFFF" width="129.8" height="30.7"/>
			
				<rect x="672.5" y="51.7" transform="matrix(0.7442 -0.668 0.668 0.7442 136.3172 474.6753)" fill="#FFFFFF" width="30.7" height="15.4"/>
			
				<rect x="774.7" y="157.8" transform="matrix(0.668 0.7442 -0.7442 0.668 391.1466 -530.4387)" fill="#FFFFFF" width="30.7" height="30.7"/>
			
				<rect x="881.9" y="277.3" transform="matrix(0.668 0.7442 -0.7442 0.668 515.6819 -570.583)" fill="#FFFFFF" width="30.7" height="30.7"/>
			
				<rect x="659.2" y="324.8" transform="matrix(0.668 0.7442 -0.7442 0.668 493.5571 -425.9792)" fill="#FFFFFF" width="129.8" height="30.7"/>
			
				<rect x="552" y="205.3" transform="matrix(0.668 0.7442 -0.7442 0.668 369.0248 -385.8364)" fill="#FFFFFF" width="129.8" height="30.7"/>
			
				<rect x="553.1" y="158.9" transform="matrix(0.7442 -0.668 0.668 0.7442 34.1142 422.303)" fill="#FFFFFF" width="30.7" height="15.4"/>
			
				<rect x="655.2" y="265" transform="matrix(0.668 0.7442 -0.7442 0.668 431.2893 -405.9072)" fill="#FFFFFF" width="30.7" height="30.7"/>
			
				<rect x="432.5" y="312.5" transform="matrix(0.668 0.7442 -0.7442 0.668 409.1671 -261.3037)" fill="#FFFFFF" width="129.8" height="30.7"/>
			
				<rect x="433.6" y="266.2" transform="matrix(0.7442 -0.668 0.668 0.7442 -68.0941 369.9245)" fill="#FFFFFF" width="30.7" height="15.4"/>
		</g>
	</g>
	<g opacity="0.9">
		<defs>
			<rect id="SVGID_3_" x="0" y="0" opacity="0.9" width="1399.6" height="319"/>
		</defs>
		<clipPath id="SVGID_4_">
			<use xlink:href="#SVGID_3_"  overflow="visible"/>
		</clipPath>
		<g clip-path="url(#SVGID_4_)">
			<polygon fill="none" points="1399.1,157.3 1399.1,198.6 1432.4,168.8 1411.8,145.9 			"/>
			<polygon opacity="0.1" fill="#33CC00" points="556.7,370 598,370 548.5,314.8 525.6,335.4 			"/>
			<polygon opacity="0.1" fill="#339900" points="1315.2,232.6 1335.8,255.5 1399.1,198.6 1399.1,157.3 			"/>
			
				<rect x="1238.9" y="243" transform="matrix(-0.668 -0.7442 0.7442 -0.668 1862.9973 1447.079)" opacity="0.1" fill="#006633" width="30.7" height="129.8"/>
			<polygon fill="none" points="0.5,159.5 -12.2,170.9 0.5,185.1 			"/>
			<polygon opacity="0.1" fill="#0099FF" points="585.9,-53.2 477.8,-53.2 433.9,-53.2 453.5,-31.4 540.2,65.2 624.4,-10.3 			"/>
			
				<rect x="909" y="171" transform="matrix(-0.668 -0.7442 0.7442 -0.668 1448.9128 1118.3735)" opacity="0.1" fill="#006633" width="129.8" height="129.8"/>
			<polygon opacity="0.1" fill="#33CC00" points="775.2,327.1 813.7,370 921.8,370 946.1,348.2 859.4,251.5 			"/>
			<polygon opacity="0.1" fill="#33CC00" points="311.1,96.4 290.6,73.5 203.9,-23.1 107.3,63.6 194,160.3 214.5,183.1 301.2,279.7 
				397.9,193 			"/>
			<polygon fill="none" points="0.5,333.9 0.5,231.1 -35.1,191.4 -131.7,278.1 -45,374.8 			"/>
			<polygon opacity="0.1" fill="#339900" points="72.1,310.9 51.6,288 0.5,231.1 0.5,333.9 0.5,370 6.3,370 125.2,370 			"/>
			<polygon fill="none" points="1399.1,157.3 1411.8,145.9 1399.1,131.7 			"/>
			<polygon opacity="0.1" fill="#339900" points="1325.1,49.3 1228.5,136 1315.2,232.6 1399.1,157.3 1399.1,131.7 			"/>
			<polygon opacity="0.1" fill="#33CCCC" points="1274.4,-53.2 1233.1,-53.2 1198.9,-53.2 1121.2,16.5 1098.4,37 1001.8,123.8 
				1088.5,220.4 1185.1,133.7 1208,113.1 1304.6,26.4 1327.5,5.9 1393.3,-53.2 			"/>
			<polygon fill="none" points="1399.1,-17.1 1399.1,85.7 1434.7,125.4 1531.3,38.6 1444.6,-58 			"/>
			<polygon opacity="0.1" fill="#33CCFF" points="1399.1,85.7 1399.1,-17.1 1348,28.7 			"/>
			<polygon opacity="0.1" fill="#33CC00" points="989.5,350.5 1007,370 1162.2,370 1172.9,360.4 1086.1,263.8 			"/>
			
				<rect x="1135.8" y="183.3" transform="matrix(0.7442 -0.668 0.668 0.7442 141.3655 865.525)" opacity="0.1" fill="#006633" width="129.8" height="129.8"/>
			<polygon opacity="0.1" fill="#33CC00" points="548.5,314.8 598,370 681.5,370 731.8,324.7 645.1,228.1 			"/>
			<polygon opacity="0.1" fill="#33CCFF" points="871.6,24.8 851.1,1.9 801.6,-53.2 718.2,-53.2 667.8,-8 644.9,12.6 560.7,88.1 
				647.5,184.7 668,207.6 754.7,304.2 838.9,228.7 861.7,208.1 958.4,121.4 			"/>
			<polygon opacity="0.1" fill="#0099FF" points="1017.4,-53.2 958.5,-53.2 912.5,-53.2 842.9,-53.2 874,-18.6 894.5,4.3 
				981.2,100.9 1077.9,14.2 			"/>
			<polygon opacity="0.1" fill="#006633" points="1216.3,362.7 1222.8,370 1397.2,370 1312.9,276 			"/>
			<polygon opacity="0.1" fill="#006633" points="537.9,108.6 441.2,195.4 418.4,215.9 321.8,302.6 382.2,370 441.1,370 
				505.1,312.5 528,292 624.6,205.3 			"/>
			<polygon opacity="0.1" fill="#006633" points="298.9,323.1 278.4,300.3 191.6,203.6 171.1,180.8 84.4,84.2 0.5,159.5 0.5,185.1 
				74.5,267.5 95,290.4 166.5,370 200.7,370 246.7,370 340.9,370 			"/>
			<polygon fill="none" points="1399.1,198.6 1399.1,326.1 1422.5,352.1 1519.1,265.4 1432.4,168.8 			"/>
			<polygon opacity="0.1" fill="#339900" points="1399.1,326.1 1399.1,198.6 1335.8,255.5 			"/>
			<polygon opacity="0.1" fill="#0099FF" points="183.3,-46 176.9,-53.2 2.4,-53.2 86.7,40.8 			"/>
			<polygon fill="none" points="0.5,118.2 0.5,-9.3 -22.9,-35.3 -119.5,51.4 -32.8,148 			"/>
			<polygon opacity="0.1" fill="#33CCCC" points="0.5,-9.3 0.5,118.2 63.9,61.3 			"/>
			<polygon fill="#FFFFFF" points="-716.9,587.7 -620.3,500.9 -630.6,489.5 -607.7,469 -597.4,480.4 -500.8,393.7 -511.1,382.2 
				-488.2,361.7 -478,373.2 -381.3,286.4 -391.6,275 -368.7,254.5 -358.5,265.9 -261.8,179.2 -272.1,167.7 -249.2,147.2 -239,158.7 
				-142.4,71.9 -152.6,60.5 -129.8,40 -119.5,51.4 -22.9,-35.3 -33.1,-46.8 -10.3,-67.3 0,-55.9 96.6,-142.6 86.4,-154 
				109.2,-174.5 119.5,-163.1 216.1,-249.8 205.8,-261.3 228.7,-281.8 239,-270.4 323.1,-345.9 312.9,-357.3 335.7,-377.9 
				346,-366.4 442.6,-453.2 432.4,-464.6 455.2,-485.1 465.5,-473.7 562.1,-560.4 551.9,-571.8 574.7,-592.4 585,-580.9 
				681.6,-667.7 671.3,-679.1 694.2,-699.6 704.5,-688.2 801.1,-774.9 790.8,-786.3 813.7,-806.9 824,-795.4 920.6,-882.2 
				910.3,-893.6 933.2,-914.1 943.4,-902.7 1040.1,-989.4 1029.8,-1000.9 1052.7,-1021.4 1062.9,-1009.9 1159.6,-1096.7 
				1149.3,-1108.1 1172.2,-1128.6 1182.4,-1117.2 1290.5,-1214.2 1270,-1237.1 -748.9,575.1 -738.6,586.5 -727.2,576.2 			"/>
			<polygon fill="#FFFFFF" points="0.5,159.5 0.5,118.2 -32.8,148 -12.2,170.9 			"/>
			<polygon fill="#FFFFFF" points="84.4,84.2 63.9,61.3 0.5,118.2 0.5,159.5 			"/>
			<polygon opacity="0.1" fill="#33CCFF" points="430.6,-10.9 410.1,-33.7 392.6,-53.2 237.4,-53.2 218.1,-53.2 226.7,-43.6 
				313.5,53 334,75.9 420.7,172.5 517.3,85.8 			"/>
			
				<rect x="129.9" y="-56.1" transform="matrix(0.668 0.7442 -0.7442 0.668 54.8185 -105.1964)" fill="#FFFFFF" width="30.7" height="129.8"/>
			
				<rect x="344.4" y="182.9" transform="matrix(0.668 0.7442 -0.7442 0.668 303.8816 -185.482)" fill="#FFFFFF" width="30.7" height="129.8"/>
			
				<rect x="463.9" y="75.6" transform="matrix(0.668 0.7442 -0.7442 0.668 263.7401 -310.0141)" fill="#FFFFFF" width="30.7" height="129.8"/>
			
				<rect x="577.2" y="-17.6" transform="matrix(0.668 0.7442 -0.7442 0.668 225.6911 -428.0511)" fill="#FFFFFF" width="30.7" height="113.1"/>
			
				<rect x="571.2" y="195.1" transform="matrix(-0.668 -0.7442 0.7442 -0.668 784.824 870.2566)" fill="#FFFFFF" width="30.7" height="129.8"/>
			<polygon fill="#FFFFFF" points="505.1,312.5 441.1,370 487.1,370 525.6,335.4 			"/>
			
				<rect x="791.7" y="221.3" transform="matrix(-0.668 -0.7442 0.7442 -0.668 1139.3604 1064.0957)" fill="#FFFFFF" width="30.7" height="113.1"/>
			<polygon fill="#FFFFFF" points="1100.7,-6.4 1121.2,16.5 1198.9,-53.2 1152.9,-53.2 			"/>
			
				<rect x="1024.4" y="4" transform="matrix(-0.668 -0.7442 0.7442 -0.668 1683.0439 888.8411)" fill="#FFFFFF" width="30.7" height="129.8"/>
			
				<rect x="905" y="111.3" transform="matrix(-0.668 -0.7442 0.7442 -0.668 1403.9253 978.8137)" fill="#FFFFFF" width="30.7" height="129.8"/>
			
				<rect x="1251.2" y="16.3" transform="matrix(-0.668 -0.7442 0.7442 -0.668 2052.1382 1077.9879)" fill="#FFFFFF" width="30.7" height="129.8"/>
			<polygon fill="#FFFFFF" points="1393.3,-53.2 1327.5,5.9 1348,28.7 1399.1,-17.1 1399.1,-53.2 			"/>
			
				<rect x="1012.2" y="230.8" transform="matrix(-0.668 -0.7442 0.7442 -0.668 1493.899 1257.9343)" fill="#FFFFFF" width="30.7" height="129.8"/>
			
				<rect x="1131.7" y="123.5" transform="matrix(-0.668 -0.7442 0.7442 -0.668 1773.0229 1167.9579)" fill="#FFFFFF" width="30.7" height="129.8"/>
			<polygon fill="#FFFFFF" points="2128,-281.1 2019.9,-184.2 2030.2,-172.7 2007.3,-152.2 1997.1,-163.6 1900.4,-76.9 
				1910.7,-65.5 1887.8,-44.9 1877.6,-56.4 1780.9,30.4 1791.2,41.8 1768.3,62.3 1758.1,50.9 1661.5,137.6 1671.7,149 1648.9,169.6 
				1638.6,158.1 1542,244.9 1552.2,256.3 1529.4,276.8 1519.1,265.4 1422.5,352.1 1432.7,363.5 1409.9,384.1 1399.6,372.6 
				1303,459.4 1313.3,470.8 1290.4,491.3 1280.1,479.9 1183.5,566.6 1193.8,578.1 1170.9,598.6 1160.6,587.1 1076.5,662.7 
				1086.7,674.1 1063.9,694.6 1053.6,683.2 957,769.9 967.3,781.4 944.4,801.9 934.1,790.5 837.5,877.2 847.8,888.6 824.9,909.1 
				814.6,897.7 718,984.4 728.3,995.9 705.4,1016.4 695.1,1005 598.5,1091.7 608.8,1103.1 585.9,1123.7 575.7,1112.2 479,1198.9 
				489.3,1210.4 466.4,1230.9 456.2,1219.5 359.5,1306.2 369.8,1317.6 346.9,1338.2 336.7,1326.7 240.1,1413.5 250.3,1424.9 
				227.4,1445.4 217.2,1434 120.6,1520.7 130.8,1532.1 119.4,1542.4 129.7,1553.8 2148.5,-258.3 			"/>
			
				<rect x="635" y="250.8" transform="matrix(-0.668 -0.7442 0.7442 -0.668 969.3738 964.8286)" fill="#FFFFFF" width="129.8" height="30.7"/>
			
				<rect x="420.5" y="11.8" transform="matrix(0.668 0.7442 -0.7442 0.668 181.4022 -352.2084)" fill="#FFFFFF" width="129.8" height="30.7"/>
			
				<rect x="527.7" y="131.3" transform="matrix(0.668 0.7442 -0.7442 0.668 305.9349 -392.3516)" fill="#FFFFFF" width="129.8" height="30.7"/>
			
				<rect x="523.7" y="71.6" transform="matrix(0.668 0.7442 -0.7442 0.668 243.6688 -372.2802)" fill="#FFFFFF" width="30.7" height="30.7"/>
			
				<rect x="630.9" y="191.1" transform="matrix(-0.7442 0.668 -0.668 -0.7442 1265.1393 -71.6697)" fill="#FFFFFF" width="30.7" height="30.7"/>
			
				<rect x="738.2" y="310.5" transform="matrix(-0.668 -0.7442 0.7442 -0.668 1014.3604 1104.3892)" fill="#FFFFFF" width="30.7" height="30.7"/>
			
				<rect x="193.8" y="-0.4" transform="matrix(0.668 0.7442 -0.7442 0.668 97.0132 -187.5338)" fill="#FFFFFF" width="129.8" height="30.7"/>
			
				<rect x="301" y="119.1" transform="matrix(0.668 0.7442 -0.7442 0.668 221.5455 -227.6767)" fill="#FFFFFF" width="129.8" height="30.7"/>
			
				<rect x="296.9" y="59.3" transform="matrix(0.668 0.7442 -0.7442 0.668 159.2794 -207.6054)" fill="#FFFFFF" width="30.7" height="30.7"/>
			
				<rect x="404.2" y="178.8" transform="matrix(0.668 0.7442 -0.7442 0.668 283.8116 -247.7481)" fill="#FFFFFF" width="30.7" height="30.7"/>
			
				<rect x="511.4" y="298.3" transform="matrix(-0.668 -0.7442 0.7442 -0.668 645.2654 915.243)" fill="#FFFFFF" width="30.7" height="30.7"/>
			
				<rect x="74.3" y="106.8" transform="matrix(0.668 0.7442 -0.7442 0.668 137.1561 -63.0021)" fill="#FFFFFF" width="129.8" height="30.7"/>
			
				<rect x="181.5" y="226.3" transform="matrix(0.668 0.7442 -0.7442 0.668 261.688 -103.1448)" fill="#FFFFFF" width="129.8" height="30.7"/>
			<polygon fill="#FFFFFF" points="86.7,40.8 2.4,-53.2 0.5,-53.2 0.5,-9.3 63.9,61.3 			"/>
			<polygon fill="#FFFFFF" points="382.2,370 321.8,302.6 298.9,323.1 340.9,370 			"/>
			
				<rect x="70.2" y="47.1" transform="matrix(0.7442 -0.668 0.668 0.7442 -19.8364 73.1289)" fill="#FFFFFF" width="30.7" height="30.7"/>
			
				<rect x="177.4" y="166.6" transform="matrix(0.668 0.7442 -0.7442 0.668 199.4212 -83.0734)" fill="#FFFFFF" width="30.7" height="30.7"/>
			
				<rect x="284.7" y="286.1" transform="matrix(0.668 0.7442 -0.7442 0.668 323.9529 -123.2162)" fill="#FFFFFF" width="30.7" height="30.7"/>
			<polygon fill="#FFFFFF" points="0.5,185.1 -12.2,170.9 -35.1,191.4 0.5,231.1 			"/>
			<polygon fill="#FFFFFF" points="74.5,267.5 0.5,185.1 0.5,231.1 51.6,288 			"/>
			<polygon fill="#FFFFFF" points="166.5,370 95,290.4 72.1,310.9 125.2,370 			"/>
			
				<rect x="58" y="273.8" transform="matrix(-0.7442 0.668 -0.668 -0.7442 321.0657 455.4483)" fill="#FFFFFF" width="30.7" height="30.7"/>
			<polygon fill="#FFFFFF" points="1399.1,131.7 1411.8,145.9 1434.7,125.4 1399.1,85.7 			"/>
			<polygon fill="#FFFFFF" points="1325.1,49.3 1399.1,131.7 1399.1,85.7 1348,28.7 			"/>
			
				<rect x="1310.9" y="12.2" transform="matrix(0.7442 -0.668 0.668 0.7442 320.8661 892.9828)" fill="#FFFFFF" width="30.7" height="30.7"/>
			<polygon fill="#FFFFFF" points="1017.4,-53.2 1077.9,14.2 1100.7,-6.4 1058.7,-53.2 			"/>
			
				<rect x="1195.5" y="179.2" transform="matrix(-0.668 -0.7442 0.7442 -0.668 1957.5669 1262.5336)" fill="#FFFFFF" width="129.8" height="30.7"/>
			<polygon fill="#FFFFFF" points="1312.9,276 1397.2,370 1399.1,370 1399.1,326.1 1335.8,255.5 			"/>
			
				<rect x="1084.2" y="0" transform="matrix(-0.668 -0.7442 0.7442 -0.668 1822.6045 843.8543)" fill="#FFFFFF" width="30.7" height="30.7"/>
			
				<rect x="1191.4" y="119.5" transform="matrix(-0.668 -0.7442 0.7442 -0.668 1912.5834 1122.9707)" fill="#FFFFFF" width="30.7" height="30.7"/>
			
				<rect x="1298.7" y="239" transform="matrix(-0.7442 0.668 -0.668 -0.7442 2461.8296 -434.1835)" fill="#FFFFFF" width="30.7" height="30.7"/>
			
				<rect x="861.5" y="47.5" transform="matrix(-0.668 -0.7442 0.7442 -0.668 1498.4991 794.2656)" fill="#FFFFFF" width="129.8" height="30.7"/>
			<polygon fill="#FFFFFF" points="842.9,-53.2 801.6,-53.2 851.1,1.9 874,-18.6 			"/>
			
				<rect x="968.8" y="167" transform="matrix(-0.668 -0.7442 0.7442 -0.668 1588.4729 1073.3866)" fill="#FFFFFF" width="129.8" height="30.7"/>
			
				<rect x="1076" y="286.5" transform="matrix(-0.668 -0.7442 0.7442 -0.668 1678.448 1352.5067)" fill="#FFFFFF" width="129.8" height="30.7"/>
			
				<rect x="857.4" y="-12.3" transform="matrix(-0.668 -0.7442 0.7442 -0.668 1453.5095 654.7078)" fill="#FFFFFF" width="30.7" height="30.7"/>
			
				<rect x="964.7" y="107.2" transform="matrix(-0.668 -0.7442 0.7442 -0.668 1543.4858 933.8263)" fill="#FFFFFF" width="30.7" height="30.7"/>
			
				<rect x="1071.9" y="226.7" transform="matrix(-0.668 -0.7442 0.7442 -0.668 1633.4569 1212.9487)" fill="#FFFFFF" width="30.7" height="30.7"/>
			
				<rect x="849.3" y="274.2" transform="matrix(-0.668 -0.7442 0.7442 -0.668 1309.3536 1163.3602)" fill="#FFFFFF" width="129.8" height="30.7"/>
			
				<rect x="630.7" y="-24.5" transform="matrix(0.668 0.7442 -0.7442 0.668 207.7133 -483.822)" fill="#FFFFFF" width="30.7" height="30.7"/>
			
				<rect x="845.2" y="214.5" transform="matrix(-0.668 -0.7442 0.7442 -0.668 1264.3649 1023.8006)" fill="#FFFFFF" width="30.7" height="30.7"/>
		</g>
	</g>
</g>
<g id="Grid">
</g>
</svg>
