<?xml version="1.0" encoding="utf-8"?>
<!-- Generator: Adobe Illustrator 19.1.0, SVG Export Plug-In . SVG Version: 6.00 Build 0)  -->
<svg version="1.1" id="Layer_1" xmlns="http://www.w3.org/2000/svg" xmlns:xlink="http://www.w3.org/1999/xlink" x="0px" y="0px"
	 viewBox="0 0 133.5 133.5" enable-background="new 0 0 133.5 133.5" xml:space="preserve">
<g>
	<path fill="#51B848" d="M88,46c-0.8-0.8-0.8-2.2,0-3l3.4-3.4l3-3l6.2-6.2c0.8-0.8,2.2-0.8,3,0c0.8,0.8,0.8,2.2,0,3l-6.1,6.1l-3,3
		L91,46C90.1,46.9,88.8,46.9,88,46z M125.3,5.9c-9.3-8.2-23.5-7.9-32.5,0.7c-4.8,4.7-7.3,10.9-7.3,17.2c0,0.6-0.1,1.1-0.4,1.6
		l-6,9.7c-0.5,0.8-0.4,1.9,0.3,2.6c0.2,0.2,0.5,0.4,0.8,0.5c1,0.4,2-0.1,2.6-1l3.8-6.3l0.8-1.3c1.3-2.2,2.2-4.6,2.4-7.2
		c0.1-1.3,0.3-2.7,0.7-4c1.1-3.9,3.5-7.6,7.1-10.3c7.1-5.5,17.1-5.3,24.1,0.2c9.3,7.5,9.9,21.2,1.7,29.3c-2.5,2.5-5.4,4.1-8.5,5
		c-1.3,0.4-2.6,0.6-4,0.7c-2.6,0.2-5,1-7.2,2.4l-1.3,0.8l-6.3,3.8c-0.9,0.5-1.3,1.7-1,2.6c0.1,0.3,0.3,0.5,0.5,0.8
		c0.7,0.7,1.8,0.8,2.6,0.3l9.7-6c0.5-0.2,1-0.4,1.6-0.4c6.1-0.1,12.2-2.3,16.8-7C136.2,31.1,135.8,15.1,125.3,5.9z M93.9,58.1
		c-0.3,0.3-0.6,0.5-1,0.6c-0.7,0.2-1.4,0.5-2,1c-2.2,1.4-6.4,4-6.4,4c-2.7,1.1-5.9,0.7-8.1-1.4L74,59.7l-0.3-0.3l-0.3-0.3L71.3,57
		c-2.1-2.1-2.6-5.5-1.3-8.2l0.2-0.3l3.6-5.8c0.4-0.9,0.8-1.7,1.1-2.6c0.1-0.2,0.2-0.4,0.4-0.7c0.8-0.7,2-0.5,2.8,0.3l15.4,15.4
		C94.4,56.1,94.7,57.2,93.9,58.1z M88.6,56.2l-6.5-6.5c-2.5-2.5-6.7-2-8.5,1c-0.4,1.1-0.2,2.3,0.7,3.2l2.5,2.5l0.3,0.3l0.3,0.3
		l2.2,2.2c0.8,0.8,2.1,1.1,3.2,0.7L88.6,56.2z"/>
	<path fill="#51B848" d="M87.5,88c0.8-0.8,2.2-0.8,3,0l3.4,3.4l3,3l6.2,6.2c0.8,0.8,0.8,2.2,0,3c-0.8,0.8-2.2,0.8-3,0L94,97.5l-3-3
		L87.5,91C86.6,90.1,86.6,88.8,87.5,88z M127.6,125.3c8.2-9.3,7.9-23.5-0.7-32.5c-4.7-4.8-10.9-7.3-17.2-7.3c-0.6,0-1.1-0.1-1.6-0.4
		l-9.7-6c-0.8-0.5-1.9-0.4-2.6,0.3c-0.2,0.2-0.4,0.5-0.5,0.8c-0.4,1,0.1,2,1,2.6l6.3,3.8l1.3,0.8c2.2,1.3,4.6,2.2,7.2,2.4
		c1.3,0.1,2.7,0.3,4,0.7c3.9,1.1,7.6,3.5,10.3,7.1c5.5,7.1,5.3,17.1-0.2,24.1c-7.5,9.3-21.2,9.9-29.3,1.7c-2.5-2.5-4.1-5.4-5-8.5
		c-0.4-1.3-0.6-2.6-0.7-4c-0.2-2.6-1-5-2.4-7.2l-0.8-1.3l-3.8-6.3c-0.5-0.9-1.7-1.3-2.6-1c-0.3,0.1-0.5,0.3-0.8,0.5
		c-0.7,0.7-0.8,1.8-0.3,2.6l6,9.7c0.2,0.5,0.4,1,0.4,1.6c0.1,6.1,2.3,12.2,7,16.8C102.4,136.2,118.4,135.8,127.6,125.3z M75.4,93.9
		c-0.3-0.3-0.5-0.6-0.6-1c-0.2-0.7-0.5-1.4-1-2c-1.4-2.2-4-6.4-4-6.4c-1.1-2.7-0.7-5.9,1.4-8.1l2.5-2.5l0.3-0.3l0.3-0.3l2.2-2.2
		c2.1-2.1,5.5-2.6,8.2-1.3l0.3,0.2l5.8,3.6c0.9,0.4,1.7,0.8,2.6,1.1c0.2,0.1,0.4,0.2,0.7,0.4c0.7,0.8,0.5,2-0.3,2.8L78.3,93.5
		C77.4,94.4,76.3,94.7,75.4,93.9z M77.3,88.6l6.5-6.5c2.5-2.5,2-6.7-1-8.5c-1.1-0.4-2.3-0.2-3.2,0.7l-2.5,2.5L76.8,77l-0.3,0.3
		l-2.2,2.2c-0.8,0.8-1.1,2.1-0.7,3.2L77.3,88.6z"/>
	<path fill="#51B848" d="M45.5,87.5c0.8,0.8,0.8,2.2,0,3l-3.4,3.4l-3,3l-6.2,6.2c-0.8,0.8-2.2,0.8-3,0c-0.8-0.8-0.8-2.2,0-3L36,94
		l3-3l3.5-3.5C43.4,86.6,44.7,86.6,45.5,87.5z M8.2,127.6c9.3,8.2,23.5,7.9,32.5-0.7c4.8-4.7,7.3-10.9,7.3-17.2
		c0-0.6,0.1-1.1,0.4-1.6l6-9.7c0.5-0.8,0.4-1.9-0.3-2.6c-0.2-0.2-0.5-0.4-0.8-0.5c-1-0.4-2,0.1-2.6,1l-3.8,6.3l-0.8,1.3
		c-1.3,2.2-2.2,4.6-2.4,7.2c-0.1,1.3-0.3,2.7-0.7,4c-1.1,3.9-3.5,7.6-7.1,10.3c-7.1,5.5-17.1,5.3-24.1-0.2
		c-9.3-7.5-9.9-21.2-1.7-29.3c2.5-2.5,5.4-4.1,8.5-5c1.3-0.4,2.6-0.6,4-0.7c2.6-0.2,5-1,7.2-2.4l1.3-0.8l6.3-3.8
		c0.9-0.5,1.3-1.7,1-2.6c-0.1-0.3-0.3-0.5-0.5-0.8c-0.7-0.7-1.8-0.8-2.6-0.3l-9.7,6c-0.5,0.2-1,0.4-1.6,0.4
		c-6.1,0.1-12.2,2.3-16.8,7C-2.7,102.4-2.3,118.4,8.2,127.6z M39.6,75.4c0.3-0.3,0.6-0.5,1-0.6c0.7-0.2,1.4-0.5,2-1
		c2.2-1.4,6.4-4,6.4-4c2.7-1.1,5.9-0.7,8.1,1.4l2.5,2.5l0.3,0.3l0.3,0.3l2.2,2.2c2.1,2.1,2.6,5.5,1.3,8.2L63.4,85l-3.6,5.8
		c-0.4,0.9-0.8,1.7-1.1,2.6c-0.1,0.2-0.2,0.4-0.4,0.7c-0.8,0.7-2,0.5-2.8-0.3L39.9,78.3C39.1,77.4,38.8,76.3,39.6,75.4z M44.9,77.3
		l6.5,6.5c2.5,2.5,6.7,2,8.5-1c0.4-1.1,0.2-2.3-0.7-3.2l-2.5-2.5l-0.3-0.3l-0.3-0.3l-2.2-2.2c-0.8-0.8-2.1-1.1-3.2-0.7L44.9,77.3z"
		/>
	<path fill="#51B848" d="M46,45.5c-0.8,0.8-2.2,0.8-3,0l-3.4-3.4l-3-3l-6.2-6.2c-0.8-0.8-0.8-2.2,0-3s2.2-0.8,3,0l6.1,6.1l3,3
		l3.5,3.5C46.9,43.4,46.9,44.7,46,45.5z M5.9,8.2c-8.2,9.3-7.9,23.5,0.7,32.5c4.7,4.8,10.9,7.3,17.2,7.3c0.6,0,1.1,0.1,1.6,0.4
		l9.7,6c0.8,0.5,1.9,0.4,2.6-0.3c0.2-0.2,0.4-0.5,0.5-0.8c0.4-1-0.1-2-1-2.6l-6.3-3.8L29.8,46c-2.2-1.3-4.6-2.2-7.2-2.4
		c-1.3-0.1-2.7-0.3-4-0.7c-3.9-1.1-7.6-3.5-10.3-7.1c-5.5-7.1-5.3-17.1,0.2-24.1c7.5-9.3,21.2-9.9,29.3-1.7c2.5,2.5,4.1,5.4,5,8.5
		c0.4,1.3,0.6,2.6,0.7,4c0.2,2.6,1,5,2.4,7.2l0.8,1.3l3.8,6.3c0.5,0.9,1.7,1.3,2.6,1c0.3-0.1,0.5-0.3,0.8-0.5
		c0.7-0.7,0.8-1.8,0.3-2.6l-6-9.7c-0.2-0.5-0.4-1-0.4-1.6c-0.1-6.1-2.3-12.2-7-16.8C31.1-2.7,15.1-2.3,5.9,8.2z M58.1,39.6
		c0.3,0.3,0.5,0.6,0.6,1c0.2,0.7,0.5,1.4,1,2c1.4,2.2,4,6.4,4,6.4c1.1,2.7,0.7,5.9-1.4,8.1l-2.5,2.5l-0.3,0.3l-0.3,0.3L57,62.2
		c-2.1,2.1-5.5,2.6-8.2,1.3l-0.3-0.2l-5.8-3.6c-0.9-0.4-1.7-0.8-2.6-1.1c-0.2-0.1-0.4-0.2-0.7-0.4c-0.7-0.8-0.5-2,0.3-2.8l15.4-15.4
		C56.1,39.1,57.2,38.8,58.1,39.6z M56.2,44.9l-6.5,6.5c-2.5,2.5-2,6.7,1,8.5c1.1,0.4,2.3,0.2,3.2-0.7l2.5-2.5l0.3-0.3l0.3-0.3
		l2.2-2.2c0.8-0.8,1.1-2.1,0.7-3.2L56.2,44.9z"/>
	<path fill="#51B848" d="M96.4,67.1c0-1.2,0.9-2.1,2.1-2.1h4.8h4.2h8.8c1.2,0,2.1,0.9,2.1,2.1s-0.9,2.1-2.1,2.1h-8.6h-4.2h-4.9
		C97.3,69.2,96.4,68.3,96.4,67.1"/>
	<path fill="#51B848" d="M66.4,96.4c1.2,0,2.1,0.9,2.1,2.1v4.8v4.2v8.8c0,1.2-0.9,2.1-2.1,2.1c-1.2,0-2.1-0.9-2.1-2.1v-8.6v-4.2
		v-4.9C64.3,97.3,65.2,96.4,66.4,96.4z"/>
	<path fill="#51B848" d="M37.1,66.4c0,1.2-0.9,2.1-2.1,2.1h-4.8h-4.2h-8.8c-1.2,0-2.1-0.9-2.1-2.1c0-1.2,0.9-2.1,2.1-2.1h8.6H30h4.9
		C36.2,64.3,37.1,65.2,37.1,66.4z"/>
	<path fill="#51B848" d="M67.1,37.1c-1.2,0-2.1-0.9-2.1-2.1v-4.8v-4.2v-8.8c0-1.2,0.9-2.1,2.1-2.1c1.2,0,2.1,0.9,2.1,2.1v8.6V30v4.9
		C69.2,36.2,68.3,37.1,67.1,37.1z"/>
</g>
</svg>
