<?xml version="1.0" encoding="utf-8"?>
<!-- Generator: Adobe Illustrator 19.1.0, SVG Export Plug-In . SVG Version: 6.00 Build 0)  -->
<svg version="1.1" id="Layer_1" xmlns="http://www.w3.org/2000/svg" xmlns:xlink="http://www.w3.org/1999/xlink" x="0px" y="0px"
	 viewBox="0 0 95.7 132.7" enable-background="new 0 0 95.7 132.7" xml:space="preserve">
<g>
	<g>
		<g>
			<path fill="#47C8F5" d="M18.5,78.8l20.4,20.4l38.3-38.3l-5-5L38.9,89.2L23.5,73.8L18.5,78.8z"/>
		</g>
	</g>
	<g>
		<g>
			<path fill="#47C8F5" d="M4.9,15.5c-2.8,0-4.9,2.1-4.9,4.9v107.5c0,2.6,2.3,4.8,4.9,4.8h85.8c2.8,0,4.9-2.1,4.9-4.8V20.5
				c0-2.7-2.2-4.9-4.9-4.9H66.6l-0.2-2.6c0-2.8-2.2-5-5.1-5h-3L58,7.3C56.6,3,52.5,0,47.8,0c-4.6,0-8.7,2.9-10.2,7.3l-0.2,0.6h-3
				c-2.8,0-5.1,2.3-5.1,5.1v2.5H4.9z M89.7,126.8H6V21.7h23.5v2.7c0,2.8,2.3,5.1,5.1,5.1h26.9c2.5,0,5.1-1.8,5.1-4.9v-2.8h23.2
				V126.8z M60.7,23.3H35v-9.6h7.9v-3.6c0-2.6,2.2-4.8,4.8-4.8c2.6,0,4.8,2.2,4.8,4.8v3.6h8.2V23.3z"/>
		</g>
	</g>
</g>
</svg>
