<svg xmlns="http://www.w3.org/2000/svg" xmlns:xlink="http://www.w3.org/1999/xlink" viewBox="0 0 19.3 19.3"><g opacity=".9"><defs><path id="a" opacity=".9" d="M-1150 149.5H249.6v425.8H-1150z"/></defs><clipPath id="b"><use xlink:href="#a" overflow="visible"/></clipPath><g clip-path="url(#b)"><path fill="none" d="M-136 102.4l44.7 49.7H2.9l44.5-39.9-86.7-96.6M70.226 91.737L-16.48-4.86l96.596-86.706L166.823 5.03z"/><path fill="#FFF" d="M-1866.9 793l96.6-86.7-10.2-11.5 22.8-20.5 10.3 11.4 96.6-86.7-10.2-11.4 22.8-20.5 10.3 11.4 96.6-86.7-10.2-11.5 22.8-20.5 10.3 11.4 96.6-86.7-10.3-11.4 22.9-20.6 10.3 11.5 96.6-86.7-10.3-11.5 22.9-20.5 10.3 11.4 96.6-86.7-10.3-11.4 22.9-20.6 10.2 11.5 96.7-86.7-10.3-11.5 22.9-20.5 10.2 11.4 96.7-86.7-10.3-11.4 22.9-20.6L-911-65l84.2-75.6-10.3-11.4 22.9-20.5 10.3 11.4 96.6-86.7-10.3-11.5 22.9-20.5 10.2 11.5 96.7-86.8-10.3-11.4 22.9-20.5 10.2 11.4 96.7-86.7-10.3-11.5 22.9-20.5 10.2 11.4 96.6-86.7-10.2-11.4 22.8-20.5 10.3 11.4 96.6-86.7-10.2-11.5 22.8-20.5 10.3 11.4 96.6-86.7-10.2-11.4 22.8-20.5 10.3 11.4 96.6-86.7-10.3-11.5 22.9-20.5 10.3 11.4 108-97-20.5-22.8-2018.8 1812.1 10.2 11.4 11.5-10.2M978-75.8l-108 97 10.2 11.4-22.8 20.5-10.3-11.4-96.6 86.7 10.2 11.5-22.8 20.5-10.3-11.4-96.6 86.7 10.3 11.4-22.9 20.5-10.3-11.4-96.6 86.7 10.3 11.5-22.9 20.5-10.3-11.4-96.6 86.7 10.3 11.4-22.9 20.5-10.2-11.4-96.7 86.7 10.3 11.5-22.9 20.5-10.2-11.4-96.7 86.7 10.3 11.4-22.9 20.6-10.2-11.5L33.6 772l10.2 11.4-22.9 20.5-10.2-11.4-84.2 75.5 10.3 11.4-22.9 20.6-10.2-11.5-96.7 86.8 10.3 11.4-22.9 20.5-10.2-11.4-96.7 86.7 10.3 11.5-22.9 20.5-10.2-11.5-96.6 86.8 10.2 11.4-22.8 20.5-10.3-11.4-96.6 86.7 10.2 11.5-22.8 20.5-10.3-11.4-96.6 86.7 10.2 11.4-22.8 20.5-10.3-11.4-96.6 86.7 10.3 11.5-22.9 20.5-10.3-11.4-96.6 86.7 10.3 11.4-22.9 20.5-10.3-11.4-96.6 86.7 10.3 11.5-11.5 10.2 10.3 11.5L998.6-52.9M47.413 112.29l-86.706-96.597 22.847-20.508L70.26 91.782z"/></g></g><path fill="#B9C0C1" d="M9.7.5C4.6.5.5 4.6.5 9.7s4.1 9.2 9.2 9.2 9.2-4.1 9.2-9.2S14.7.5 9.7.5zm2.2 9.2h-1.4v5.2H8.3V9.7h-1V7.9h1.1V6.8c0-.8.2-1.3.5-1.7.4-.4 1-.6 1.8-.6h1.4v1.8h-1.3c-.1 0-.2.1-.2.1 0 .1-.1.1-.1.2v1.2h1.6l-.2 1.9z"/></svg>