<?xml version="1.0" encoding="utf-8"?>
<!-- Generator: Adobe Illustrator 18.1.1, SVG Export Plug-In . SVG Version: 6.00 Build 0)  -->
<!DOCTYPE svg PUBLIC "-//W3C//DTD SVG 1.1//EN" "http://www.w3.org/Graphics/SVG/1.1/DTD/svg11.dtd">
<svg version="1.1" xmlns="http://www.w3.org/2000/svg" xmlns:xlink="http://www.w3.org/1999/xlink" x="0px" y="0px"
	 viewBox="0 0 18.8 18.8" enable-background="new 0 0 18.8 18.8" xml:space="preserve">
<g id="Layer_1">
	<g opacity="0.9">
		<defs>
			<rect id="SVGID_1_" x="-1052.7" y="151" opacity="0.9" width="1399.6" height="425.8"/>
		</defs>
		<clipPath id="SVGID_2_">
			<use xlink:href="#SVGID_1_"  overflow="visible"/>
		</clipPath>
		<g clip-path="url(#SVGID_2_)">
			<polygon fill="none" points="-38.7,103.9 5.9,153.7 100.2,153.7 144.6,113.8 57.9,17.2 			"/>
			
				<rect x="-119.2" y="-75.5" transform="matrix(0.668 0.7442 -0.7442 0.668 -25.9335 36.8979)" fill="none" width="129.8" height="129.8"/>
			<polygon fill="#FFFFFF" points="-1769.7,794.6 -1673,707.8 -1683.3,696.4 -1660.4,675.9 -1650.2,687.3 -1553.6,600.6 
				-1563.8,589.2 -1541,568.6 -1530.7,580.1 -1434.1,493.3 -1444.3,481.9 -1421.5,461.4 -1411.2,472.8 -1314.6,386.1 -1324.8,374.6 
				-1302,354.1 -1291.7,365.6 -1195.1,278.8 -1205.4,267.4 -1182.5,246.9 -1172.2,258.3 -1075.6,171.6 -1085.9,160.1 -1063,139.6 
				-1052.7,151 -956.1,64.3 -966.4,52.9 -943.5,32.4 -933.2,43.8 -836.6,-42.9 -846.9,-54.4 -824,-74.9 -813.8,-63.5 -729.6,-139 
				-739.9,-150.4 -717,-171 -706.7,-159.5 -610.1,-246.2 -620.4,-257.7 -597.5,-278.2 -587.2,-266.8 -490.6,-353.5 -500.9,-364.9 
				-478,-385.5 -467.8,-374 -371.1,-460.8 -381.4,-472.2 -358.5,-492.7 -348.3,-481.3 -251.6,-568 -261.9,-579.4 -239,-600 
				-228.8,-588.5 -132.2,-675.3 -142.4,-686.7 -119.5,-707.2 -109.3,-695.8 -12.7,-782.5 -22.9,-793.9 -0.1,-814.5 10.2,-803 
				106.8,-889.8 96.6,-901.2 119.4,-921.7 129.7,-910.3 237.7,-1007.3 217.2,-1030.2 -1801.6,782 -1791.4,793.4 -1779.9,783.1 			
				"/>
			
				<rect x="-16.1" y="-15.8" transform="matrix(-0.668 -0.7442 0.7442 -0.668 -37.7146 81.4338)" fill="#FFFFFF" width="30.7" height="129.8"/>
			<polygon fill="#FFFFFF" points="1075.2,-74.2 967.2,22.8 977.5,34.2 954.6,54.7 944.3,43.3 847.7,130 858,141.4 835.1,162 
				824.8,150.5 728.2,237.3 738.5,248.7 715.6,269.2 705.3,257.8 608.7,344.5 619,355.9 596.1,376.5 585.9,365 489.2,451.8 
				499.5,463.2 476.6,483.7 466.4,472.3 369.7,559 380,570.5 357.1,591 346.9,579.5 250.3,666.3 260.5,677.7 237.7,698.2 
				227.4,686.8 130.8,773.5 141,785 118.2,805.5 107.9,794 23.7,869.6 34,881 11.1,901.5 0.9,890.1 -95.7,976.8 -85.5,988.3 
				-108.3,1008.8 -118.6,997.4 -215.2,1084.1 -205,1095.5 -227.8,1116.1 -238.1,1104.6 -334.7,1191.3 -324.5,1202.8 -347.3,1223.3 
				-357.6,1211.9 -454.2,1298.6 -443.9,1310 -466.8,1330.6 -477.1,1319.1 -573.7,1405.9 -563.4,1417.3 -586.3,1437.8 -596.6,1426.4 
				-693.2,1513.1 -682.9,1524.5 -705.8,1545.1 -716.1,1533.6 -812.7,1620.4 -802.4,1631.8 -825.3,1652.3 -835.5,1640.9 
				-932.2,1727.6 -921.9,1739 -933.3,1749.3 -923.1,1760.7 1095.8,-51.4 			"/>
		</g>
	</g>
	<path fill="#B9C0C1" d="M18,16c0.3,0.3,0.4,0.6,0.4,1c0,0.4-0.1,0.7-0.4,1c-0.3,0.3-0.6,0.4-1,0.4c-0.4,0-0.7-0.1-1-0.4l-3.7-3.7
		C11,15.2,9.6,15.6,8,15.6c-1,0-2-0.2-2.9-0.6c-0.9-0.4-1.7-0.9-2.4-1.6S1.5,11.9,1.1,11C0.7,10,0.5,9.1,0.5,8s0.2-2,0.6-2.9
		C1.5,4.2,2,3.4,2.7,2.7s1.5-1.2,2.4-1.6S7,0.5,8,0.5c1,0,2,0.2,2.9,0.6c0.9,0.4,1.7,0.9,2.4,1.6s1.2,1.5,1.6,2.4
		C15.4,6,15.6,7,15.6,8c0,1.6-0.4,3-1.3,4.3L18,16L18,16z M11.4,11.4c0.9-0.9,1.4-2.1,1.4-3.4s-0.5-2.5-1.4-3.4S9.4,3.2,8,3.2
		c-1.3,0-2.5,0.5-3.4,1.4C3.7,5.6,3.2,6.7,3.2,8s0.5,2.5,1.4,3.4c0.9,0.9,2.1,1.4,3.4,1.4C9.4,12.8,10.5,12.4,11.4,11.4z"/>
</g>
<g id="Grid">
</g>
</svg>
