<svg xmlns="http://www.w3.org/2000/svg" xmlns:xlink="http://www.w3.org/1999/xlink" viewBox="0 0 19.3 19.3"><g opacity=".9"><defs><path id="a" opacity=".9" d="M-1091.7 149.5H307.9v425.8h-1399.6z"/></defs><clipPath id="b"><use xlink:href="#a" overflow="visible"/></clipPath><g clip-path="url(#b)"><path fill="none" d="M-77.7 102.4l44.7 49.7h94.2l44.5-39.9-86.8-96.6"/><path fill="#FFF" d="M-1808.6 793l96.6-86.7-10.3-11.5 22.9-20.5 10.3 11.4 96.6-86.7-10.3-11.4 22.9-20.5 10.3 11.4 96.6-86.7-10.3-11.5 22.9-20.5 10.3 11.4 96.6-86.7-10.3-11.4 22.9-20.6 10.2 11.5 96.7-86.7-10.3-11.5 22.9-20.5 10.2 11.4 96.6-86.7-10.2-11.4 22.9-20.6 10.2 11.5 96.6-86.7-10.2-11.5 22.8-20.5 10.3 11.4 96.6-86.7-10.2-11.4 22.8-20.6 10.3 11.5 84.2-75.6-10.3-11.4 22.9-20.5 10.2 11.4 96.6-86.7-10.2-11.5 22.8-20.5 10.3 11.5 96.6-86.8-10.2-11.4L-517-387l10.3 11.4 96.6-86.7-10.2-11.5 22.8-20.5 10.3 11.4 96.6-86.7-10.3-11.4 22.9-20.5 10.3 11.4 96.6-86.7-10.3-11.5 22.9-20.5 10.3 11.4 96.6-86.7-10.3-11.4L-39-816l10.3 11.4 96.6-86.7-10.3-11.5 22.9-20.5 10.2 11.4 108.1-97-20.5-22.8-2018.9 1812.1 10.3 11.4 11.4-10.2M-77.723 102.38L-98.23 79.53-1.634-7.175l20.507 22.847zM1036.3-75.8l-108.1 97 10.3 11.4-22.9 20.5-10.2-11.4-96.6 86.7 10.2 11.5-22.9 20.5-10.2-11.4-96.6 86.7 10.2 11.4-22.8 20.5-10.3-11.4-96.6 86.7 10.2 11.5-22.8 20.5-10.3-11.4-96.6 86.7 10.2 11.4-22.8 20.5-10.3-11.4-96.6 86.7 10.3 11.5-22.9 20.5-10.3-11.4-96.6 86.7 10.3 11.4-22.9 20.6-10.3-11.5L91.8 772l10.3 11.4-22.9 20.5L69 792.5-15.2 868l10.3 11.4-22.9 20.6-10.3-11.5-96.6 86.8 10.3 11.4-22.9 20.5-10.3-11.4-96.6 86.7 10.3 11.5-22.9 20.5-10.3-11.5-96.6 86.8 10.3 11.4-22.9 20.5-10.2-11.4-96.7 86.7 10.3 11.5-22.9 20.5-10.2-11.4-96.7 86.7 10.3 11.4-22.9 20.5-10.2-11.4-96.6 86.7 10.2 11.5-22.8 20.5-10.3-11.4-96.6 86.7 10.2 11.4-22.8 20.5-10.3-11.4-96.6 86.7 10.2 11.5-11.4 10.2 10.3 11.5L1056.8-52.9M105.658 112.265L18.952 15.667 41.798-4.84l86.707 96.597zM18.98 15.635L-1.526-7.212 21.32-27.72 41.828-4.87z"/></g></g><path fill="#B9C0C1" d="M9.7.5C4.6.5.5 4.6.5 9.7s4.1 9.2 9.2 9.2 9.2-4.1 9.2-9.2S14.7.5 9.7.5zm3.9 7.2V8c0 .5-.1 1.1-.2 1.6-.2.5-.4 1.1-.7 1.6-.3.5-.7.9-1.2 1.3-.4.4-1 .7-1.6.9-.6.2-1.3.3-2 .3-1.1 0-2.2-.3-3.1-.9h.5c.9 0 1.8-.3 2.5-.9-.4 0-.8-.1-1.2-.4-.3-.3-.6-.6-.7-1h.4c.2 0 .4 0 .5-.1-.5-.1-.9-.3-1.2-.7-.3-.3-.5-.7-.5-1.2.3.1.6.2.9.2-.2-.2-.5-.4-.6-.7-.2-.3-.3-.6-.3-1s.1-.7.3-1c.5.6 1.1 1.1 1.9 1.5.7.4 1.5.6 2.3.6 0-.2-.1-.3-.1-.5 0-.6.2-1 .6-1.4.4-.4.9-.6 1.4-.6.6 0 1.1.2 1.5.6.5 0 1-.2 1.4-.4-.2.5-.5.9-.9 1.1.4 0 .8-.1 1.2-.3-.3.4-.7.8-1.1 1.1z"/></svg>