<svg xmlns="http://www.w3.org/2000/svg" xmlns:xlink="http://www.w3.org/1999/xlink" version="1.1" x="0px" y="0px" viewBox="0 0 100 100" enable-background="new 0 0 100 100" xml:space="preserve"><path d="M66.9,17.3c0-3.6-2.9-6.5-6.5-6.5H39.7c-3.6,0-6.5,2.9-6.5,6.5v4.5H15.8v5.9H21V77c0,6.8,5.5,12.3,12.3,12.3  h33.6C73.6,89.3,79,83.8,79,77V27.7h5.1v-5.9H66.9V17.3z M39,17.3c0-0.3,0.3-0.6,0.6-0.6h20.7c0.3,0,0.6,0.3,0.6,0.6v4.5H39V17.3z   M73.1,77c0,3.5-2.8,6.3-6.3,6.3H33.2c-3.5,0-6.3-2.8-6.3-6.3V27.7h46.2V77z M53,74.4H47V36.7H53V74.4z M66.9,74.4H61V36.7h5.9V74.4  z M39,74.4h-5.9V36.7H39V74.4z"></path></svg>