<svg xmlns="http://www.w3.org/2000/svg" xmlns:xlink="http://www.w3.org/1999/xlink" version="1.1" x="0px" y="0px" viewBox="0 0 100 100" enable-background="new 0 0 100 100" xml:space="preserve"><path d="M15.5,61.1l-2.1,25.6L29,85.4l-0.5-5.9l-8.7,0.7L21,66.6l18,18L81.6,42c6.4-6.4,6.7-16.9,0.5-23.4  c-3.1-3.3-7.3-5.1-11.9-5.2c-4.5-0.1-8.8,1.7-12,4.9l-2.2,2.2l9.7,9.7L29.3,66.5l-5.5-5.5l30.8-30.8l-4.2-4.2L15.5,61.1L15.5,61.1z   M70.2,19.3c2.9,0,5.6,1.2,7.6,3.4c3.2,3.4,3.7,8.5,1.5,12.6L64.8,20.7C66.4,19.7,68.3,19.2,70.2,19.3z M70,34.2l5.5,5.5L39,76.2  l-5.5-5.5L70,34.2z"></path></svg>