<svg width="2898px" height="2898px" xmlns="http://www.w3.org/2000/svg">
  <g transform="translate(425.0 425.0) rotate(45 1024.0 1024.0)">
    <svg id="coding-gaming" x="60" y="60" xmlns="http://www.w3.org/2000/svg">
      <rect id="codeorg-code-combat" x="555px" y="365px" width="41px" height="224px" />
      <rect id="remake-learning-digital-learning-tools" x="118px" y="516px" width="118px" height="73px" />
      <rect id="mozilla-webmaker-x-ray-goggles" x="6px" y="6px" width="44px" height="146px" />
      <rect id="computer-science-education-week-thinkersmith-unplugged-hour-of-code-activity" x="602px" y="456px" width="35px" height="133px" />
      <rect id="brain-pop-digital-etiquette" x="367px" y="6px" width="69px" height="146px" />
      <rect id="codeorg-20-hour-intro-course" x="743px" y="456px" width="95px" height="133px" />
      <rect id="stem-advanced-technologies-for-kids-mobile-app-design" x="743px" y="300px" width="182px" height="59px" />
      <rect id="neighborhood-learning-alliance-tech-warriors-training" x="1218px" y="392px" width="53px" height="58px" />
      <rect id="codecademy-make-a-website" x="931px" y="260px" width="119px" height="34px" />
      <rect id="mozilla-webmaker-make-a-meme" x="242px" y="6px" width="119px" height="146px" />
      <rect id="gamesalad-game-salad" x="6px" y="158px" width="106px" height="96px" />
      <rect id="carnegie-science-center-click---spy-school" x="936px" y="456px" width="114px" height="133px" />
      <rect id="school-of-open-get-to-know-the-hackasaurus-xray-goggles" x="118px" y="6px" width="81px" height="146px" />
      <rect id="webmaker-tools-thimble" x="843px" y="158px" width="82px" height="96px" />
      <rect id="webmaker-training-html-basics" x="1056px" y="158px" width="156px" height="96px" />
      <rect id="appshed-academy" x="931px" y="300px" width="119px" height="59px" />
      <rect id="stem-advanced-technologies-for-kids-video-game-design" x="743px" y="6px" width="94px" height="146px" />
      <rect id="webmaker-training-building-on-the-web" x="1218px" y="232px" width="53px" height="154px" />
      <rect id="women-at-scs-school-of-computer-science---carnegie-mellon-university-creative-tech-nights" x="743px" y="365px" width="95px" height="85px" />
      <rect id="girl-develop-it-html-intro" x="242px" y="260px" width="119px" height="99px" />
      <rect id="instructables-create-tumblr-account" x="442px" y="6px" width="107px" height="146px" />
      <rect id="carnegie-science-center--click---spy-mission" x="1056px" y="456px" width="156px" height="133px" />
      <rect id="diyorg-gather-website-inspiration" x="743px" y="260px" width="182px" height="34px" />
      <rect id="diyorg-set-up-a-virtual-machine-with-ubuntu-" x="6px" y="411px" width="106px" height="178px" />
      <rect id="tumblr-theme-garden" x="367px" y="300px" width="182px" height="59px" />
      <rect id="codecademy-make-an-interactive-website" x="1056px" y="260px" width="156px" height="34px" />
      <rect id="id-tech-game-programming-for-apple-ios-and-android-with-unity" x="118px" y="158px" width="118px" height="96px" />
      <rect id="diyorg-minecrafter" x="367px" y="158px" width="182px" height="96px" />
      <rect id="w3-schools-html5-tutorial" x="743px" y="158px" width="94px" height="96px" />
      <rect id="cs2n-rumbleblocks" x="118px" y="457px" width="118px" height="53px" />
      <rect id="institute-of-play-through-the-arcade" x="844px" y="456px" width="86px" height="133px" />
      <rect id="schell-games-gamesprout" x="843px" y="6px" width="82px" height="146px" />
      <rect id="diyorg-make-a-board-game" x="931px" y="6px" width="69px" height="146px" />
      <rect id="institute-of-play-gamekit-challenge-pack---the-basics" x="1006px" y="6px" width="44px" height="146px" />
      <rect id="made-w-code-watch-the-film" x="555px" y="6px" width="69px" height="146px" />
      <rect id="brain-pop-digital-etiquette-quiz" x="56px" y="6px" width="56px" height="146px" />
      <rect id="e-line-media-gamestar-mechanic" x="1056px" y="6px" width="31px" height="146px" />
      <rect id="girl-develop-it-introduction-to-web-concepts" x="205px" y="6px" width="31px" height="146px" />
      <rect id="codecademy-python" x="844px" y="365px" width="206px" height="85px" />
      <rect id="diyorg-make-a-pen-and-paper-game" x="1218px" y="6px" width="53px" height="220px" />
      <rect id="p2pu-webmaking-101" x="555px" y="260px" width="182px" height="34px" />
      <rect id="the-jerome-bettis-bus-stops-here-foundation-the-cyber-bus-computer-engineering-program" x="118px" y="305px" width="118px" height="100px" />
      <rect id="lifelong-kindergarten-group-at-the-mit-media-lab-scratch" x="602px" y="365px" width="135px" height="85px" />
      <rect id="assemble-make-it" x="931px" y="158px" width="119px" height="96px" />
      <rect id="id-tech-mobile-game-design-for-iphone-and-android" x="555px" y="158px" width="182px" height="96px" />
      <rect id="id-tech-intro-to-programming-with-scratch-and-javascript" x="242px" y="365px" width="63px" height="224px" />
      <rect id="tumblr-how-to-create-a-custom-html-theme" x="118px" y="260px" width="118px" height="39px" />
      <rect id="carnegie-mellon-university-school-of-computer-science-leap-at-cmu" x="311px" y="365px" width="50px" height="224px" />
      <rect id="digital-media-academy-online-fundamentals-of-programming" x="643px" y="456px" width="94px" height="133px" />
      <rect id="codeorg-studio-activities" x="417px" y="365px" width="132px" height="224px" />
      <rect id="global-game-jam-2015-global-game-jam-games" x="1218px" y="456px" width="53px" height="133px" />
      <rect id="girl-develop-it-intermediate-html-and-css" x="6px" y="260px" width="106px" height="145px" />
      <rect id="diyorg-design-a-body-game" x="630px" y="6px" width="107px" height="146px" />
      <rect id="grow-a-generation-mobile-app-development" x="555px" y="300px" width="182px" height="59px" />
      <rect id="codeorg-make-a-flappy-game" x="1093px" y="6px" width="119px" height="146px" />
      <rect id="girl-develop-it-web-accessibility" x="367px" y="260px" width="182px" height="34px" />
      <rect id="id-tech-java-programming" x="118px" y="411px" width="118px" height="40px" />
      <rect id="id-tech-adventures-in-minecraft-game-design" x="242px" y="158px" width="119px" height="96px" />
      <rect id="microsoft-virtual-academy-hour-of-code-event-training" x="367px" y="365px" width="44px" height="224px" />
      <rect id="webmaker-tools-appmaker" x="1056px" y="300px" width="156px" height="59px" />
      <rect id="girl-develop-it-introduction-to-git-and-github" x="1056px" y="365px" width="156px" height="85px" />
    </svg>

    <svg id="mediamaking" x="1391" y="60" xmlns="http://www.w3.org/2000/svg">
      <rect id="mcg-youth-and-arts-the-wide-world-of-photo" x="6px" y="316px" width="72px" height="273px" />
      <rect id="pf-and-pca-filmmakers-youth-media-directors-workshop" x="84px" y="6px" width="72px" height="66px" />
      <rect id="mcg-youth-and-arts-electric-avenue" x="423px" y="489px" width="174px" height="100px" />
      <rect id="madmagz-make-your-own-magazine" x="350px" y="427px" width="67px" height="56px" />
      <rect id="steeltown-entertainment-youth-and-media" x="423px" y="6px" width="72px" height="66px" />
      <rect id="diy-org-reenact-a-scene" x="6px" y="78px" width="72px" height="90px" />
      <rect id="diy-org-build-a-photo-studio" x="423px" y="295px" width="174px" height="44px" />
      <rect id="pf-and-pca-filmmakers-youth-media-handmade-filmmaking-at-pf" x="423px" y="78px" width="72px" height="211px" />
      <rect id="labs-at-carnegie-library-of-pittsburgh-open-lab" x="272px" y="427px" width="72px" height="56px" />
      <rect id="pf-and-pca-filmmakers-youth-media-cryptozoology" x="501px" y="116px" width="96px" height="173px" />
      <rect id="diy-org-make-trick-photography-" x="162px" y="316px" width="104px" height="105px" />
      <rect id="interview-magazine-andy-warhol-magazine--interview-" x="423px" y="427px" width="174px" height="56px" />
      <rect id="teen-ink-teen-ink-video" x="220px" y="150px" width="197px" height="90px" />
      <rect id="mcg-youth-and-arts-photography" x="272px" y="316px" width="72px" height="105px" />
      <rect id="diy-org-film-a-spoof-video" x="84px" y="246px" width="72px" height="64px" />
      <rect id="jenesis-magazine-online-youth-lifestyle-publication-based-in-pittsburgh" x="162px" y="427px" width="104px" height="56px" />
      <rect id="white-house-the-white-house--students-film-festival" x="6px" y="6px" width="72px" height="66px" />
      <rect id="starz-the-chair" x="162px" y="6px" width="255px" height="66px" />
      <rect id="pf-and-pca-filmmakers-youth-media-photography-at-pf" x="84px" y="316px" width="72px" height="105px" />
      <rect id="labs-at-carnegie-library-of-pittsburgh-clp-teens-tumblr" x="162px" y="489px" width="182px" height="100px" />
      <rect id="vimeo-directing-101" x="84px" y="78px" width="72px" height="162px" />
      <rect id="pf-and-pca-filmmakers-youth-media-foundations-of-photography" x="350px" y="316px" width="67px" height="105px" />
      <rect id="carnegie-science-center-digital-video-smash-jam-two-day-workshop" x="501px" y="6px" width="96px" height="104px" />
      <rect id="diy-org-create-a-book-trailer" x="162px" y="78px" width="255px" height="66px" />
      <rect id="wyep-rock-radio-camp" x="423px" y="345px" width="174px" height="76px" />
      <rect id="wyep-radio-tour" x="84px" y="427px" width="72px" height="162px" />
      <rect id="the-criterion-collection-criterion-collection-top-10s" x="162px" y="150px" width="52px" height="90px" />
      <rect id="pf-and-pca-filmmakers-youth-media-foundations-of-filmmaking" x="6px" y="174px" width="72px" height="136px" />
      <rect id="carnegie-science-center-i5-video-competition" x="162px" y="246px" width="255px" height="64px" />
      <rect id="pf-and-pca-filmmakers-youth-media-graphic-design" x="350px" y="489px" width="67px" height="100px" />
    </svg>

    <svg id="building-making" x="60" y="709" xmlns="http://www.w3.org/2000/svg">
      <rect id="super-awesome-sylvia-show-super-awesome-sylvia---episodes" x="697px" y="6px" width="59px" height="121px" />
      <rect id="pbs-kids-pbs-design-squad---watch" x="893px" y="6px" width="33px" height="121px" />
      <rect id="assemble-unblurred" x="567px" y="6px" width="72px" height="121px" />
      <rect id="assemble-teens-as-teachers" x="854px" y="6px" width="33px" height="121px" />
      <rect id="carnegie-science-center-fab-lab" x="140px" y="54px" width="65px" height="222px" />
      <rect id="assemble-learning-parties" x="331px" y="133px" width="99px" height="143px" />
      <rect id="pittsburgh-center-for-creative-reuse-the-remaker-playshop---sew-mend-make" x="1154px" y="6px" width="91px" height="121px" />
      <rect id="slamacow-minecraft-leaking-into-the-real-world---minecraft-animation" x="645px" y="6px" width="46px" height="121px" />
      <rect id="built-by-kids-activities" x="697px" y="133px" width="59px" height="143px" />
      <rect id="maker-faire--visit-maker-faire-pittsburgh" x="762px" y="133px" width="125px" height="44px" />
      <rect id="assemble-saturday-crafternoons-" x="893px" y="133px" width="190px" height="143px" />
      <rect id="tech-shop-visit-tech-shop" x="1089px" y="133px" width="27px" height="143px" />
      <rect id="northern-tier-regional-library-cube-head-superheroes" x="1037px" y="6px" width="46px" height="121px" />
      <rect id="diy-sketch-a-real-building-" x="932px" y="6px" width="99px" height="121px" />
      <rect id="diy-minecrafter" x="271px" y="6px" width="54px" height="270px" />
      <rect id="assemble-assemble-afterschool" x="1089px" y="6px" width="59px" height="121px" />
      <rect id="childrens-museum-of-pittsburgh-the-makeshop-show" x="528px" y="6px" width="33px" height="121px" />
      <rect id="society-for-contemporary-craft-drop-in-studio" x="6px" y="54px" width="128px" height="45px" />
      <rect id="maker-media-make-magazine" x="1122px" y="133px" width="26px" height="143px" />
      <rect id="diy-lego-master" x="211px" y="6px" width="54px" height="270px" />
      <rect id="assemble-youth-maker-night" x="6px" y="105px" width="128px" height="171px" />
      <rect id="ted-talks-life-lessons-through-tinkering" x="6px" y="6px" width="199px" height="42px" />
      <rect id="hack-pittsburgh-visit-hackpittsburgh" x="436px" y="133px" width="86px" height="143px" />
      <rect id="gtech-strategies-412-build" x="528px" y="133px" width="111px" height="143px" />
      <rect id="lego-lego-sets" x="331px" y="6px" width="99px" height="121px" />
      <rect id="diy-make-a-rube-goldberg-machine-" x="436px" y="6px" width="86px" height="121px" />
      <rect id="childrens-museum-of-pittsburgh-makeshop" x="645px" y="133px" width="46px" height="143px" />
      <rect id="pbs-kids-pbs-design-squad---build" x="762px" y="6px" width="86px" height="121px" />
      <rect id="instructables-build-something" x="1154px" y="133px" width="37px" height="143px" />
      <rect id="assemble-m3---materials-media-and-me" x="1197px" y="133px" width="48px" height="143px" />
      <rect id="millvale-community-library-maker-thursdays" x="762px" y="183px" width="125px" height="93px" />
    </svg>

    <svg id="art-design" x="1365" y="709" xmlns="http://www.w3.org/2000/svg">
      <rect id="pittsburgh-filmmaker-and-center-for-the-arts-drawing" x="449px" y="6px" width="174px" height="50px" />
      <rect id="pittsburgh-filmmaker-and-center-for-the-arts-stained-glass" x="227px" y="474px" width="216px" height="96px" />
      <rect id="mcg-youth-and-arts-electric-avenue" x="6px" y="899px" width="215px" height="53px" />
      <rect id="pittsburgh-filmmaker-and-center-for-the-arts-manipulating-metals" x="449px" y="372px" width="174px" height="36px" />
      <rect id="society-for-contemporary-craft-visit-scc-store" x="449px" y="414px" width="174px" height="36px" />
      <rect id="society-for-contemporary-craft-contemporary-craft-blog" x="449px" y="456px" width="174px" height="135px" />
      <rect id="tek-start-the-beauty-of-stem-makers-institute" x="227px" y="576px" width="216px" height="43px" />
      <rect id="mattress-factory-community-art-lab" x="227px" y="109px" width="216px" height="74px" />
      <rect id="carnegie-museums-of-art-and-natural-history-sketchbook" x="6px" y="189px" width="215px" height="40px" />
      <rect id="pittsburgh-center-for-creative-reuse-the-remaker-playshop---sew-mend-make" x="449px" y="597px" width="174px" height="36px" />
      <rect id="pittsburgh-filmmaker-and-center-for-the-arts-high-fire-ceramics" x="449px" y="682px" width="94px" height="100px" />
      <rect id="the-andy-warhol-museum-andy-warhol---pop-portraits-and-selfies" x="549px" y="899px" width="74px" height="380px" />
      <rect id="mattress-factory-summer-art-cooperative" x="227px" y="292px" width="216px" height="74px" />
      <rect id="open-ideo-adding-visual-goodness-to-your-ideas-" x="290px" y="958px" width="199px" height="156px" />
      <rect id="mcg-youth-and-arts-the-wide-world-of-photo" x="449px" y="104px" width="174px" height="50px" />
      <rect id="carnegie-museums-of-art-and-natural-history-you-are-here---pittsburgh-placemaking" x="84px" y="1120px" width="137px" height="159px" />
      <rect id="labs-at-carnegie-library-of-pittsburgh-open-lab" x="549px" y="788px" width="74px" height="105px" />
      <rect id="mcg-youth-and-arts-print-draw-paint" x="449px" y="62px" width="174px" height="36px" />
      <rect id="the-andy-warhol-museum-online-weeeknd-factory" x="6px" y="958px" width="72px" height="321px" />
      <rect id="pittsburgh-filmmaker-and-center-for-the-arts-raku" x="6px" y="556px" width="215px" height="63px" />
      <rect id="tech-shop-steam003---textile-printing-and-sewing-" x="6px" y="625px" width="215px" height="51px" />
      <rect id="the-andy-warhol-museum-youth-open-studio" x="6px" y="235px" width="215px" height="40px" />
      <rect id="diy-hack-a-t-shirt-" x="6px" y="682px" width="215px" height="100px" />
      <rect id="moma--moma-teens-online" x="6px" y="281px" width="215px" height="109px" />
      <rect id="carnegie-museums-of-art-and-natural-history-city-explorers---urban-designers" x="495px" y="1120px" width="48px" height="159px" />
      <rect id="carnegie-museums-of-art-and-natural-history-drawing-people" x="6px" y="6px" width="215px" height="97px" />
      <rect id="mcg-youth-and-arts-ceramics-sets" x="449px" y="292px" width="174px" height="74px" />
      <rect id="labs-at-carnegie-library-of-pittsburgh-fashion-design-workshops" x="227px" y="372px" width="216px" height="96px" />
      <rect id="carnegie-museums-of-art-and-natural-history-youth-museum-institute---exhibit-design-lab" x="227px" y="899px" width="262px" height="53px" />
      <rect id="carnegie-museums-of-art-and-natural-history-dream-house---sketch-to-structure" x="495px" y="958px" width="48px" height="156px" />
      <rect id="the-andy-warhol-museum-vertical-silkscreen-printing-with-stefan-hoffmann" x="6px" y="109px" width="215px" height="74px" />
      <rect id="design-boom-design-boom" x="290px" y="1120px" width="199px" height="159px" />
      <rect id="pittsburgh-filmmaker-and-center-for-the-arts-anime" x="84px" y="958px" width="137px" height="156px" />
      <rect id="mcg-youth-and-arts-digital-expressions" x="227px" y="958px" width="57px" height="156px" />
      <rect id="carnegie-museums-of-art--interact" x="227px" y="788px" width="316px" height="105px" />
      <rect id="colossal-colossal" x="227px" y="189px" width="216px" height="97px" />
      <rect id="carnegie-museums-of-art-and-natural-history-experimental-drawing-and-painting" x="449px" y="216px" width="174px" height="70px" />
      <rect id="pittsburgh-filmmaker-and-center-for-the-arts-graphic-design" x="6px" y="788px" width="215px" height="105px" />
      <rect id="diy-sketch-a-real-building-" x="227px" y="1120px" width="57px" height="159px" />
      <rect id="evan-mirapaul-la-hutte-royal" x="227px" y="6px" width="216px" height="97px" />
      <rect id="pittsburgh-filmmaker-and-center-for-the-arts-creature-design-and-mask-making" x="6px" y="396px" width="215px" height="74px" />
      <rect id="society-for-contemporary-craft-drop-in-studio" x="549px" y="682px" width="74px" height="100px" />
      <rect id="carnegie-museums-of-art-and-natural-history-fiber-art" x="6px" y="476px" width="215px" height="74px" />
      <rect id="pittsburgh-filmmaker-and-center-for-the-arts-the-shop" x="227px" y="682px" width="216px" height="100px" />
      <rect id="deviant-art-deviantart" x="449px" y="160px" width="174px" height="50px" />
      <rect id="food-revolution-pittsburgh-cooking-club-at-harvest-and-create" x="227px" y="625px" width="216px" height="51px" />
      <rect id="mcg-youth-and-arts-pillows-galore" x="449px" y="639px" width="174px" height="37px" />
      <rect id="labs-at-carnegie-library-of-pittsburgh-the-labsy-awards" x="495px" y="899px" width="48px" height="53px" />
    </svg>

    <svg id="food-gardening" x="60" y="1045" xmlns="http://www.w3.org/2000/svg">
      <rect id="fda-read-the-label-youth-outreach-campaign-" x="6px" y="6px" width="131px" height="38px" />
      <rect id="falling-fruit-mapping-the-urban-harvest" x="243px" y="751px" width="98px" height="61px" />
      <rect id="slow-foods-youth-network-slow-food-youth-network-eat-the-future-you-want" x="6px" y="226px" width="131px" height="83px" />
      <rect id="saint-paul-episcopal-church-mission-trip" x="36px" y="811px" width="48px" height="132px" />
      <rect id="center-for-disease--control-bam-body-and-mind" x="6px" y="50px" width="131px" height="82px" />
      <rect id="phipps-conservatory-homegrown-hero-badge-resources-" x="194px" y="561px" width="147px" height="79px" />
      <rect id="slow-foods-origins-of-taste" x="143px" y="226px" width="45px" height="83px" />
      <rect id="food-n-me-various-activities" x="194px" y="226px" width="147px" height="34px" />
      <rect id="foraging-pittsburgh-wild-food-walks" x="6px" y="751px" width="78px" height="54px" />
      <rect id="eat-local-challenge-10-reasons-to-eat-local-food" x="347px" y="706px" width="95px" height="237px" />
      <rect id="food-n-me-smash-your-food" x="143px" y="177px" width="198px" height="43px" />
      <rect id="phipps-conservatory-homegrown-challenges" x="6px" y="520px" width="182px" height="35px" />
      <rect id="food-revolution-pittsburgh-cooking-club-at-harvest-and-create" x="194px" y="389px" width="65px" height="59px" />
      <rect id="wild-purveyors-tour-of-store" x="90px" y="751px" width="98px" height="192px" />
      <rect id="saint-paul-episcopal-church-saint-francis-garden" x="347px" y="596px" width="95px" height="44px" />
      <rect id="food-revolution-pittsburgh-cooking-club" x="6px" y="389px" width="182px" height="59px" />
      <rect id="winter-root-wild-edibles-app" x="347px" y="646px" width="95px" height="54px" />
      <rect id="wilkinsburg-public-library-unmask-super-snacks" x="194px" y="266px" width="147px" height="43px" />
      <rect id="usda-choose-my-plate-teen-boys" x="347px" y="6px" width="95px" height="54px" />
      <rect id="grow-pittsburgh-start-a-garden" x="194px" y="646px" width="147px" height="54px" />
      <rect id="local-harvest-local-farmers-markets" x="194px" y="454px" width="147px" height="60px" />
      <rect id="pa-summer-food-service-program-summer-food-service-" x="243px" y="818px" width="98px" height="125px" />
      <rect id="food-revolution-pittsburgh-cooking-demos" x="347px" y="216px" width="95px" height="69px" />
      <rect id="diy-diy-gardener" x="194px" y="520px" width="147px" height="35px" />
      <rect id="usda-choose-my-plate-teen-girls" x="143px" y="6px" width="198px" height="46px" />
      <rect id="webmd-and-whitehouse-webmd-town-hall" x="6px" y="561px" width="182px" height="79px" />
      <rect id="the-white-house-lets-move-kids" x="6px" y="138px" width="131px" height="82px" />
      <rect id="fit-webmd-fit-webmd-teen" x="143px" y="110px" width="198px" height="61px" />
      <rect id="phipps-conservatory-12-month-gardening-tips" x="6px" y="646px" width="182px" height="54px" />
      <rect id="phipps-conservatory-phipps-cafe" x="347px" y="291px" width="95px" height="55px" />
      <rect id="fox-master-chef-jr" x="6px" y="315px" width="182px" height="68px" />
      <rect id="food-revolution-pittsburgh-cooking-club-at-summer-dreamers" x="194px" y="315px" width="147px" height="68px" />
      <rect id="cooking-with-rockstars-cooking-with-rockstars" x="347px" y="352px" width="95px" height="146px" />
      <rect id="take-part-place-at-the-table" x="194px" y="751px" width="43px" height="192px" />
      <rect id="teen-observer-alice-waters-article" x="6px" y="706px" width="182px" height="39px" />
      <rect id="healcrest-farm-farm-fresh-icepops" x="194px" y="706px" width="147px" height="39px" />
      <rect id="sam-stern-light-meals-and-snacks" x="265px" y="389px" width="76px" height="59px" />
      <rect id="fit-webmd-fit-webmd-handbook" x="347px" y="66px" width="95px" height="144px" />
      <rect id="carnegie-library-of-pittsburgh-cooking-for-teens-" x="6px" y="454px" width="182px" height="60px" />
      <rect id="no-kid-hungry-no-kid-hungry-summer-" x="6px" y="811px" width="24px" height="132px" />
      <rect id="food-revolution-day-recipes" x="347px" y="504px" width="95px" height="86px" />
    </svg>

    <svg id="robotics" x="562" y="1045" xmlns="http://www.w3.org/2000/svg">
      <rect id="carnegie-science-center-chain-reaction-contraption-contest" x="6px" y="6px" width="111px" height="92px" />
      <rect id="carnegie-mellon-create-lab-hummingbird-robotics-kit" x="519px" y="227px" width="84px" height="103px" />
      <rect id="deep-local-nike-chalkbot" x="123px" y="6px" width="67px" height="92px" />
      <rect id="carnegie-science-center-roboworld-activities" x="6px" y="153px" width="184px" height="68px" />
      <rect id="grow-a-generation-engineering-your-passion" x="196px" y="6px" width="97px" height="92px" />
      <rect id="carnegie-mellon-robotics-academy-robotc" x="609px" y="180px" width="134px" height="41px" />
      <rect id="carnegie-mellon-university--cookie-vs-creme---a-robotic-twist" x="196px" y="227px" width="185px" height="67px" />
      <rect id="pittsburgh-first-get-involved" x="609px" y="227px" width="134px" height="103px" />
      <rect id="synn-labs-music-video-with-rube-goldberg-" x="460px" y="6px" width="53px" height="92px" />
      <rect id="carnegie-mellon-robotics-academy-cs2n" x="196px" y="153px" width="185px" height="68px" />
      <rect id="walt-disney-animation-studios-big-hero-6" x="519px" y="56px" width="224px" height="42px" />
      <rect id="carnegie-mellon-robotics-academy-robots-virtual-world" x="519px" y="336px" width="84px" height="30px" />
      <rect id="girls-of-steel-robotics-the-girls-of-steel-robotics" x="387px" y="300px" width="126px" height="66px" />
      <rect id="carnegie-science-center-roboworld" x="123px" y="104px" width="67px" height="43px" />
      <rect id="greene-academy-ev3-lego-robotics" x="609px" y="336px" width="134px" height="30px" />
      <rect id="grow-a-generation-audacious-robotocists" x="196px" y="300px" width="86px" height="134px" />
      <rect id="super-awesome-sylvia-watercolorbot" x="387px" y="258px" width="126px" height="36px" />
      <rect id="carnegie-mellon-robotics-academy-expedition-atlantis-" x="519px" y="104px" width="224px" height="70px" />
      <rect id="lifelong-kindergarten-group-at-the-mit-media-lab-scratch" x="135px" y="227px" width="55px" height="207px" />
      <rect id="christopher-atkeson-build-baymax" x="519px" y="6px" width="224px" height="44px" />
      <rect id="sarah-heinz-house-join-sharp" x="387px" y="227px" width="126px" height="25px" />
      <rect id="id-tech-intro-to-programming-with-scratch-and-javascript" x="387px" y="180px" width="126px" height="41px" />
      <rect id="diy-make-a-rube-goldberg-machine" x="299px" y="6px" width="82px" height="92px" />
      <rect id="carnegie-mellon-university-school-of-computer-science-leap-at-cmu" x="519px" y="180px" width="84px" height="41px" />
      <rect id="carnegie-library-of-pittsburgh-the-labs-at-clp---main---robotics-workshop-with-girls-of-steel" x="288px" y="372px" width="315px" height="62px" />
      <rect id="wilkinsburg-public-library-unmask---bristle-bot-racers" x="387px" y="6px" width="67px" height="92px" />
      <rect id="carnegie-library-of-pittsburgh-weekly-workshop-at-clp---allegheny" x="6px" y="104px" width="111px" height="43px" />
      <rect id="greene-academy-advanced-robotics" x="288px" y="300px" width="93px" height="66px" />
      <rect id="carnegie-mellon-university-rumbleblocks-" x="196px" y="104px" width="185px" height="43px" />
      <rect id="id-tech-java-programming" x="67px" y="227px" width="62px" height="207px" />
      <rect id="digital-media-academy-online-fundamentals-of-programming" x="6px" y="227px" width="55px" height="207px" />
      <rect id="assemble-summer-dreamers" x="387px" y="104px" width="126px" height="70px" />
      <rect id="robocup-manuela-veloso---robocup-champion" x="609px" y="372px" width="134px" height="62px" />
    </svg>

    <svg id="storytelling" x="562" y="1539" xmlns="http://www.w3.org/2000/svg">
      <rect id="city-of-asylum-city-of-asylum-events" x="533px" y="327px" width="147px" height="46px" />
      <rect id="the-western-pa-writing-project-scholastic-writing-awards" x="6px" y="37px" width="126px" height="46px" />
      <rect id="the-creativity-hub-story-cubes" x="318px" y="316px" width="53px" height="133px" />
      <rect id="get-lit-get-lit-players" x="460px" y="256px" width="67px" height="65px" />
      <rect id="carnegie-mellon-university-department-of-english-the-martin-luther-king-junior-writing-awards" x="250px" y="92px" width="91px" height="131px" />
      <rect id="grow-a-generation-crafting-a-science-fiction-short-story" x="460px" y="6px" width="91px" height="80px" />
      <rect id="pittsburgh-public-schools-literary-arts-department-at-capa" x="6px" y="89px" width="126px" height="99px" />
      <rect id="the-western-pa-writing-project-young-writers-institutes" x="393px" y="140px" width="61px" height="83px" />
      <rect id="diy-write-a-choose-your-own-adventure" x="377px" y="316px" width="77px" height="133px" />
      <rect id="the-moth-the-moth-video" x="250px" y="229px" width="204px" height="37px" />
      <rect id="hear-me-hear-me-101-internship-program" x="533px" y="379px" width="147px" height="70px" />
      <rect id="the-carnegie-library-of-pittsburgh-teen-summer-reading" x="6px" y="194px" width="126px" height="57px" />
      <rect id="luminari-fantastic-fiction-writing---4-day-summer-camp-for-teens-" x="347px" y="140px" width="40px" height="83px" />
      <rect id="inkle-studios-80-days" x="250px" y="272px" width="204px" height="38px" />
      <rect id="grow-a-generation-the-writings-of-neil-degrasse-tyson-and-michio-kaku" x="460px" y="140px" width="220px" height="55px" />
      <rect id="studio-360-funny-ha-ha---the-high-school-humor-challenge" x="686px" y="160px" width="57px" height="193px" />
      <rect id="pittsburgh-poetry-collective-young-steel" x="194px" y="229px" width="50px" height="220px" />
      <rect id="carnegie-museums-of-art-and-natural-history-comics-and-cartoons" x="138px" y="6px" width="50px" height="217px" />
      <rect id="heinz-history-center-pittsburgh-history-detectives" x="194px" y="6px" width="50px" height="217px" />
      <rect id="the-creativity-hub-extraordinaires" x="6px" y="297px" width="126px" height="152px" />
      <rect id="alpha-science-fiction-fantasy-horror-workshop-for-young-writers-alpha-science-fiction-fantasy-horror-workshop-for-young-writers" x="557px" y="6px" width="123px" height="80px" />
      <rect id="scholastic-art-and-writing-awards-scholastic-art-and-writing-awards" x="686px" y="6px" width="57px" height="148px" />
      <rect id="neighborhood-learning-alliance-reading-warriors" x="460px" y="201px" width="220px" height="49px" />
      <rect id="hear-me-hear-me-stories" x="686px" y="359px" width="57px" height="90px" />
      <rect id="toonseum-create-your-own-comic-strip-" x="347px" y="6px" width="107px" height="80px" />
      <rect id="inkle-studios-inklewriter" x="460px" y="327px" width="67px" height="122px" />
      <rect id="the-creativity-hub-story-cubes-app" x="250px" y="316px" width="62px" height="133px" />
      <rect id="826-valencia-student-writing-gallery" x="347px" y="92px" width="107px" height="42px" />
      <rect id="the-carnegie-library-of-pittsburgh-the-labs-at-clp-allegheny---slb-radio-series" x="6px" y="257px" width="126px" height="34px" />
      <rect id="labs-at-carnegie-library-of-pittsburgh-the-labsy-awards" x="6px" y="6px" width="126px" height="25px" />
      <rect id="wilkinsburg-public-library-unmask---summer-reading-challenge" x="138px" y="229px" width="50px" height="220px" />
      <rect id="toonseum-summer-saturdays-superhero-workshop" x="250px" y="6px" width="91px" height="80px" />
      <rect id="figment-the-daily-fig" x="460px" y="92px" width="220px" height="42px" />
      <rect id="diy-tell-a-scary-story-" x="533px" y="256px" width="147px" height="65px" />
    </svg>

  </g>
</svg>
