<svg width="1269px" height="1269px" xmlns="http://www.w3.org/2000/svg">
  <g transform="translate(122.5 250.5) rotate(45 512.0 384.0)">
    <svg id="storytelling" x="60" y="60" xmlns="http://www.w3.org/2000/svg">
      <rect id="mcg-youth-and-arts-the-wide-world-of-photo" x="6px" y="6px" width="300px" height="66px" />
      <rect id="mcg-youth-and-arts-electric-avenue" x="312px" y="6px" width="125px" height="66px" />
      <rect id="pf-and-pca-filmmakers-youth-media-graphic-design" x="443px" y="6px" width="88px" height="295px" />
      <rect id="pf-and-pca-filmmakers-youth-media-cryptozoology" x="537px" y="6px" width="135px" height="83px" />
      <rect id="diy-org-reenact-a-scene" x="678px" y="6px" width="226px" height="83px" />
      <rect id="interview-magazine-andy-warhol-magazine-interview-" x="6px" y="78px" width="206px" height="97px" />
      <rect id="pf-and-pca-filmmakers-youth-media-handmade-filmmaking-at-pf" x="218px" y="78px" width="219px" height="97px" />
      <rect id="mcg-youth-and-arts-photography" x="537px" y="95px" width="98px" height="206px" />
      <rect id="vimeo-directing-101" x="641px" y="95px" width="263px" height="76px" />
      <rect id="carnegie-science-center-digital-video-smash-jam-workshop" x="641px" y="177px" width="263px" height="88px" />
      <rect id="labs-at-carnegie-library-of-pittsburgh-clp-teens-tumblr" x="6px" y="181px" width="206px" height="129px" />
      <rect id="pf-and-pca-filmmakers-youth-media-foundations-of-photography" x="218px" y="181px" width="88px" height="129px" />
      <rect id="pf-and-pca-filmmakers-youth-media-directors-workshop" x="312px" y="181px" width="125px" height="129px" />
      <rect id="wyep-radio-tour" x="641px" y="271px" width="168px" height="48px" />
      <rect id="diy-org-make-trick-photography-" x="815px" y="271px" width="89px" height="193px" />
      <rect id="pf-and-pca-filmmakers-youth-media-photography-at-pf" x="443px" y="307px" width="88px" height="341px" />
      <rect id="madmagz-make-your-own-magazine" x="537px" y="307px" width="98px" height="341px" />
      <rect id="diy-org-film-a-spoof-video" x="6px" y="316px" width="206px" height="89px" />
      <rect id="jenesis-magazine-online-youth-lifestyle-publication-based-in-pittsburgh" x="218px" y="316px" width="88px" height="89px" />
      <rect id="white-house-the-white-house-students-film-festival" x="312px" y="316px" width="125px" height="89px" />
      <rect id="diy-org-create-a-book-trailer" x="641px" y="325px" width="168px" height="147px" />
      <rect id="pf-and-pca-filmmakers-youth-media-foundations-of-filmmaking" x="6px" y="411px" width="206px" height="77px" />
      <rect id="labs-at-carnegie-library-of-pittsburgh-open-lab" x="218px" y="411px" width="219px" height="77px" />
      <rect id="teen-ink-teen-ink-video" x="815px" y="470px" width="89px" height="178px" />
      <rect id="diy-org-build-a-photo-studio" x="641px" y="478px" width="168px" height="170px" />
      <rect id="wyep-rock-radio-camp" x="6px" y="494px" width="61px" height="154px" />
      <rect id="starz-the-chair" x="73px" y="494px" width="44px" height="154px" />
      <rect id="the-criterion-collection-criterion-collection-top-10s" x="123px" y="494px" width="89px" height="154px" />
      <rect id="steeltown-entertainment-youth-and-media" x="218px" y="494px" width="219px" height="74px" />
      <rect id="carnegie-science-center-i5-video-competition" x="218px" y="574px" width="219px" height="74px" />
    </svg>

  </g>
</svg>
