<svg width="1269px" height="1269px" xmlns="http://www.w3.org/2000/svg">
  <g transform="translate(250.5 122.5) rotate(45 384.0 512.0)">
    <svg id="coding_gaming" x="20" y="20" xmlns="http://www.w3.org/2000/svg">
      <rect id="2014103B-38A8-EA6E-E203-6B2D-1F57744D505A" x="2px" y="165px" width="56px" height="55px" />
      <rect id="2082AF74-FC91-36C6-7DAC-AB55-6950AF333F16" x="27px" y="350px" width="56px" height="84px" />
      <rect id="A7AC13C7-2F47-E5E1-899C-FA29-44494BCAFBB0" x="210px" y="2px" width="56px" height="55px" />
      <rect id="02DD999B-FE17-78CD-CA91-D0C1-8ABCC323D6A3" x="326px" y="373px" width="48px" height="19px" />
      <rect id="F221CFA2-EA42-E5C7-FEE7-909E-353981605C6E" x="210px" y="232px" width="114px" height="44px" />
      <rect id="002596F7-BB89-8BE0-B252-4851-625C2B0D6051" x="210px" y="125px" width="114px" height="28px" />
      <rect id="602BA229-9BED-D16D-A31B-2F15-E0FD5634E7B2" x="376px" y="275px" width="53px" height="30px" />
      <rect id="4B45FE40-7ED7-AF3E-CACC-5A29-F544B2BDD1BE" x="135px" y="373px" width="130px" height="61px" />
      <rect id="45C497D8-A0DD-2C9D-846F-9E65-0C3E572C4BC4" x="210px" y="193px" width="114px" height="37px" />
      <rect id="5C3F7F86-F4DB-0A66-1610-C80C-575CE60CE47E" x="168px" y="278px" width="40px" height="25px" />
      <rect id="1DD8BA41-4906-E031-416C-8737-F13DA05F4461" x="326px" y="313px" width="48px" height="35px" />
      <rect id="D5A23AD5-1165-3E68-AB51-B6A9-E53F4C489AC1" x="85px" y="87px" width="48px" height="26px" />
      <rect id="B3F6B670-AD3B-101B-119D-B347-0E4A1C3F6960" x="135px" y="350px" width="73px" height="21px" />
      <rect id="32A83E64-702B-64F0-164A-9B24-E64493856F2E" x="85px" y="155px" width="123px" height="36px" />
      <rect id="5F11ABE8-90A9-34FC-FF10-EC29-DB198CDB0E3F" x="110px" y="350px" width="23px" height="84px" />
      <rect id="8EF8CD9E-CC3A-AE28-BE7C-87A5-C788312B9B90" x="2px" y="222px" width="56px" height="54px" />
      <rect id="27DFF49D-CA1E-B795-32A6-6CB4-82B134AF6BA5" x="85px" y="59px" width="48px" height="26px" />
      <rect id="6D1517AB-BACF-CFC5-9CC1-AECB-FBDA070A8628" x="326px" y="59px" width="103px" height="35px" />
      <rect id="5D80932B-ACB1-6B2B-1D63-A646-370F95B289E0" x="326px" y="96px" width="103px" height="27px" />
      <rect id="E9EBC1DF-D247-57E3-DBBC-0C7F-0126CFC1BA51" x="326px" y="193px" width="48px" height="37px" />
      <rect id="08A13932-DD91-2953-6A99-4676-0322E56CEAB1" x="376px" y="224px" width="53px" height="49px" />
      <rect id="6E521C36-5665-F1CB-E562-1C2B-0241F3DCBC74" x="376px" y="307px" width="53px" height="127px" />
      <rect id="BB537CF9-9EAE-EACB-8F63-07CE-390C82E65450" x="2px" y="350px" width="23px" height="84px" />
      <rect id="41C08359-5274-FD81-05A2-3EA2-26AA3F819079" x="60px" y="2px" width="23px" height="55px" />
      <rect id="B44F10EC-ABF4-EDB5-AE03-37A3-84145CF7A414" x="326px" y="350px" width="48px" height="21px" />
      <rect id="80945845-B620-A164-E4A0-213E-D1DD401FDF4F" x="267px" y="373px" width="57px" height="19px" />
      <rect id="78B58898-E483-B91C-825B-5967-34DE5709B556" x="2px" y="59px" width="56px" height="55px" />
      <rect id="7CE09B6D-42BF-956F-0530-12E8-5A0A0EFE761D" x="267px" y="350px" width="57px" height="21px" />
      <rect id="FFC6697E-AE0D-78E2-C1D2-568A-C70DF32B456E" x="2px" y="2px" width="56px" height="55px" />
      <rect id="49E8E894-F986-3B3D-3052-A481-BFB5836F3CB6" x="85px" y="2px" width="48px" height="55px" />
      <rect id="A973BE1C-9E7F-9017-2C4B-7E02-21D2DEE32153" x="326px" y="278px" width="48px" height="33px" />
      <rect id="2DE7EF08-667C-F134-DF24-C151-286C9BD00962" x="210px" y="313px" width="114px" height="35px" />
      <rect id="946A59F5-1E16-DBC6-961F-DDAB-BA1CECFE68BB" x="85px" y="193px" width="123px" height="37px" />
      <rect id="6F0CA518-75C4-290D-DD49-B7F7-21612BB93D62" x="60px" y="155px" width="23px" height="75px" />
      <rect id="437A442A-2830-2DF2-FE55-4D20-5EF82996AFDA" x="210px" y="350px" width="55px" height="21px" />
      <rect id="C270D0A2-CCBF-45C7-4DAA-9902-604B395F35F1" x="85px" y="278px" width="81px" height="25px" />
      <rect id="4F95F6BE-C4FF-A3A8-F518-B03A-3EA2831C970F" x="210px" y="155px" width="114px" height="36px" />
      <rect id="9926CEF4-7979-58A7-2CED-8AED-927C500B8E1A" x="376px" y="181px" width="53px" height="41px" />
      <rect id="CA28256D-871C-2236-9238-EA33-861118BE1D6B" x="326px" y="394px" width="48px" height="40px" />
      <rect id="A7F8AA15-52FC-7F65-A7BF-E7EA-E748E7604D1C" x="376px" y="155px" width="53px" height="24px" />
      <rect id="F014DAE9-2A6B-85F7-B65E-8906-52219DEF2281" x="135px" y="2px" width="73px" height="55px" />
      <rect id="D16F1AB2-C192-763D-D2E8-C264-C1A9E4ED3AF9" x="326px" y="125px" width="103px" height="28px" />
      <rect id="CFA60782-3EF7-42C1-82BC-B8D8-5DC8BCCDF53D" x="135px" y="59px" width="73px" height="26px" />
      <rect id="AE9F24EF-AEEB-6B9C-EF1E-190A-D411E08F77BF" x="326px" y="155px" width="48px" height="36px" />
      <rect id="FAF430DF-1CD5-4C07-3136-B03B-2CCC3FEDE9FC" x="60px" y="232px" width="23px" height="44px" />
      <rect id="DE973C22-9C13-8957-D41B-E63C-70A8175A33BB" x="268px" y="2px" width="56px" height="55px" />
      <rect id="7EC8992F-8AE3-E8F6-18F0-324D-2512E04F78BB" x="2px" y="278px" width="81px" height="25px" />
      <rect id="B88C52F8-3A37-DDDF-58A1-0559-623D46DA2113" x="326px" y="2px" width="23px" height="55px" />
      <rect id="A323A0E0-F3BC-1CB3-9430-6F10-12DC940A882A" x="85px" y="350px" width="23px" height="84px" />
      <rect id="EC8F1B8E-1974-55E0-CB2B-378C-F0DC93D98524" x="85px" y="115px" width="123px" height="38px" />
      <rect id="B9C2B971-1AC2-CA2B-A125-A5A3-8EE105922E48" x="2px" y="305px" width="81px" height="43px" />
      <rect id="EB8C8AF9-FE4C-277B-1996-9F22-545312B1AE10" x="85px" y="305px" width="123px" height="43px" />
      <rect id="31CAC38B-D607-1D02-133F-AEBB-2231866C24CB" x="351px" y="2px" width="78px" height="55px" />
      <rect id="43433634-3736-E1CF-46B0-C01C-B033171EB586" x="210px" y="96px" width="114px" height="27px" />
      <rect id="9305CE37-F9F8-E9A0-DDD1-9261-09674C89D2D5" x="135px" y="87px" width="73px" height="26px" />
      <rect id="0DB901A6-B650-65B7-FCCE-9962-7716D2338ED7" x="2px" y="116px" width="56px" height="47px" />
      <rect id="27D30783-CCED-B155-3ED2-EC4F-D0E337622022" x="85px" y="232px" width="123px" height="44px" />
      <rect id="5C3E1747-3AC8-531C-680C-571E-1E3871850B6B" x="267px" y="394px" width="57px" height="40px" />
      <rect id="18C0EF8D-E657-64A5-4585-EAA2-A958DB390DEB" x="326px" y="232px" width="48px" height="44px" />
      <rect id="06AAD7DA-182F-0C97-BAA2-7025-9B783A4A1D98" x="60px" y="59px" width="23px" height="94px" />
      <rect id="F45CBA0A-F0FE-F131-4176-19B4-82EFB7268B2B" x="210px" y="59px" width="114px" height="35px" />
      <rect id="34653356-C534-2C42-8567-0334-38B2D759A849" x="210px" y="278px" width="114px" height="33px" />
    </svg>

    <svg id="art_design" x="469" y="20" xmlns="http://www.w3.org/2000/svg">
      <rect id="4EEE9545-B251-E4F6-6E4A-8C9B-8301501B0003" x="101px" y="132px" width="25px" height="45px" />
      <rect id="19C44DE7-4449-C0E1-799C-9E49-BED4699FB34B" x="165px" y="111px" width="29px" height="59px" />
      <rect id="7C3782FF-7C08-065B-4F0F-968D-EC016A3EAD3E" x="128px" y="70px" width="35px" height="39px" />
      <rect id="F34A7B22-5D47-4220-BC66-CCF6-345D3585A0D6" x="49px" y="214px" width="50px" height="35px" />
      <rect id="9409B7B9-35BC-B053-369E-15DC-72FB9D8585C4" x="128px" y="198px" width="22px" height="53px" />
      <rect id="640086A6-7E15-B1C8-F6D3-AFC0-C79725062C70" x="101px" y="343px" width="49px" height="33px" />
      <rect id="9728DAA0-F84E-757F-1A42-53CE-E952247149D6" x="101px" y="276px" width="49px" height="24px" />
      <rect id="DF63E49C-8AE2-9169-B6B3-22FB-CECB4ED1B367" x="2px" y="343px" width="45px" height="33px" />
      <rect id="AD83BC10-C105-DAB2-61F5-607C-1A6436A2FA6A" x="2px" y="276px" width="45px" height="65px" />
      <rect id="57211139-774A-F908-3CF0-B715-8E87B3C015BB" x="86px" y="2px" width="40px" height="66px" />
      <rect id="5EBE5A35-7ED0-BAF7-6973-9CFC-8C06280A9149" x="240px" y="172px" width="39px" height="24px" />
      <rect id="EFFC7620-9061-05E4-F481-6DE1-F3A84438A2A9" x="165px" y="172px" width="73px" height="24px" />
      <rect id="102C06A0-77C8-0194-F912-3A40-8A3DC0219083" x="67px" y="132px" width="32px" height="45px" />
      <rect id="EB993ED5-56DC-CC4A-DEB9-F63A-F41DDE99CC96" x="2px" y="378px" width="45px" height="56px" />
      <rect id="B3F43975-E2A4-3702-46A8-66A5-7BF4FFB03C9E" x="2px" y="111px" width="45px" height="66px" />
      <rect id="44F77474-1952-8892-BD64-16D4-DC3DB060CA28" x="49px" y="111px" width="16px" height="66px" />
      <rect id="93AA14D5-6871-39FA-A614-66A6-FE82E442E14E" x="240px" y="142px" width="39px" height="28px" />
      <rect id="BE8C1779-7EAA-37F7-F7E1-6B55-0459BFE7CB04" x="101px" y="253px" width="49px" height="21px" />
      <rect id="3E1615FD-F73E-8637-6819-663D-6B712CB8DA50" x="185px" y="343px" width="25px" height="91px" />
      <rect id="5CDECEE2-9807-83A4-C251-525F-7D65BA092196" x="165px" y="2px" width="21px" height="66px" />
      <rect id="F663C387-1FCC-9D82-5109-5981-2453D434FB16" x="188px" y="2px" width="91px" height="29px" />
      <rect id="DC0F1703-2869-3B09-B72D-A4BE-FB4692C039A2" x="165px" y="70px" width="73px" height="39px" />
      <rect id="2151A8BE-1EF9-E68C-2627-6D27-E7962DDBE0EC" x="49px" y="251px" width="50px" height="23px" />
      <rect id="1C2FE773-D355-DCD6-32F3-0BA6-7B4E191A14F8" x="2px" y="70px" width="45px" height="39px" />
      <rect id="94E7D958-D444-5E06-D591-3652-ACC2D61172AE" x="152px" y="343px" width="31px" height="91px" />
      <rect id="8F26FD39-A157-FBDB-CA8F-14BA-17514DE567EF" x="152px" y="302px" width="31px" height="39px" />
      <rect id="A1DC7E23-BCEA-CE64-2943-294A-89176FB99864" x="49px" y="343px" width="50px" height="33px" />
      <rect id="9AB09C3B-68AF-6E59-39C1-C11B-9B8BFA613E2D" x="152px" y="276px" width="86px" height="24px" />
      <rect id="D250ADC5-FA08-F3B1-95A0-6685-25D9961D44E0" x="49px" y="179px" width="50px" height="33px" />
      <rect id="BDC6A683-BBC1-6B25-08B5-7A49-85993B9FAAD8" x="239px" y="368px" width="40px" height="66px" />
      <rect id="D165973D-0A00-93E7-45CB-C826-895EA282AEFB" x="101px" y="378px" width="49px" height="24px" />
      <rect id="D53B2B0B-E6D7-3408-EF2D-1A80-8571C29B5DC5" x="240px" y="276px" width="39px" height="24px" />
      <rect id="FC4E8D1A-2B87-2247-0734-4849-69F269B1892E" x="49px" y="378px" width="50px" height="56px" />
      <rect id="C4D04721-D1E4-9146-8CED-67D2-C9EF46A81C26" x="2px" y="214px" width="45px" height="60px" />
      <rect id="09738B96-C58D-91B1-FE61-3262-706CBC1C0A03" x="49px" y="276px" width="50px" height="65px" />
      <rect id="96534DD2-8AF0-4624-CACE-D86B-D008B308285E" x="240px" y="198px" width="39px" height="53px" />
      <rect id="D3CECF90-3781-2644-534E-5263-773D81F3A8DB" x="2px" y="179px" width="45px" height="33px" />
      <rect id="C71CE6B8-DA6D-373F-D557-2892-656694EF5CCD" x="188px" y="33px" width="50px" height="35px" />
      <rect id="92B3E85F-3911-DFC1-DA40-D3D8-38EDEC408E0A" x="49px" y="70px" width="77px" height="39px" />
      <rect id="0F9A499B-53E2-09B3-BA2D-723F-EFA05D5E7FA9" x="152px" y="253px" width="86px" height="21px" />
      <rect id="81A0CF9B-9F8E-3925-741E-F741-72D4319C5026" x="101px" y="404px" width="49px" height="30px" />
      <rect id="DEC981FA-08D8-DCFE-0CE2-2A37-B2926FB61F5D" x="239px" y="343px" width="40px" height="23px" />
      <rect id="01916023-6C45-F4E4-7D11-937C-D9E6DCF0A56C" x="240px" y="33px" width="39px" height="60px" />
      <rect id="579C9EE1-8FB1-C6A0-9ACA-71DF-1AED8EFD9FF1" x="240px" y="253px" width="39px" height="21px" />
      <rect id="02CB3FF3-BE1A-D45C-8941-82E1-348D6C6080CC" x="101px" y="302px" width="49px" height="39px" />
      <rect id="540C4D1C-F197-BCFB-B11E-4EFF-6FB6E7182FFC" x="185px" y="302px" width="94px" height="39px" />
      <rect id="F3B53020-5DC5-E048-F7CF-817D-131DCC4BA5E4" x="2px" y="2px" width="45px" height="66px" />
      <rect id="558CC435-9804-C756-F3D9-CF11-E05F22297D8B" x="152px" y="198px" width="86px" height="53px" />
      <rect id="C6A286D0-8697-78D7-16FA-114A-98C30236FA4B" x="67px" y="111px" width="59px" height="19px" />
      <rect id="76A5CD2E-182C-2CC6-040C-F448-76312F570444" x="128px" y="172px" width="35px" height="24px" />
      <rect id="9D3014DE-922F-8E1E-2FE9-7C4F-5995744FFAD0" x="212px" y="343px" width="25px" height="91px" />
      <rect id="44DF562A-24DA-EB00-174A-219F-135459CF346A" x="101px" y="179px" width="25px" height="72px" />
      <rect id="2ECB1A55-BC84-5E84-F335-A13A-94ED49334766" x="196px" y="111px" width="42px" height="59px" />
      <rect id="32B28019-89DA-5E5D-43E4-6B45-EDD322484D7A" x="128px" y="2px" width="35px" height="66px" />
      <rect id="B20E2F56-FB0C-0595-07F6-4F45-EBD3105E73B3" x="49px" y="2px" width="35px" height="66px" />
      <rect id="40369CBB-9A13-82D1-5A11-942B-5D2DD9152C70" x="128px" y="111px" width="35px" height="59px" />
      <rect id="6856153D-2D0C-624F-7ABB-4831-3FD0FCE89514" x="240px" y="95px" width="39px" height="45px" />
    </svg>

    <svg id="robotics" x="20" y="474" xmlns="http://www.w3.org/2000/svg">
      <rect id="0E8461E6-1142-B686-C166-5DF5-5F4272468334" x="97px" y="104px" width="120px" height="31px" />
      <rect id="90CBCC5A-A155-03B5-D31A-B670-C4394DAF8143" x="377px" y="49px" width="52px" height="51px" />
      <rect id="0601BC1A-015B-C01C-8229-75D5-AFBA803DA549" x="385px" y="132px" width="44px" height="64px" />
      <rect id="C21E96AA-34B4-07A4-720E-282E-B312CE8BC69B" x="264px" y="49px" width="28px" height="51px" />
      <rect id="6CC8CDDB-D5E8-D303-FC2A-8330-75FA680E1BBE" x="294px" y="49px" width="28px" height="51px" />
      <rect id="4B7E03D3-B1CC-6010-BF00-BC84-077F8E03D68D" x="39px" y="203px" width="56px" height="54px" />
      <rect id="23D0A36A-9931-454F-7A45-8F18-C2F6DDA746DB" x="219px" y="2px" width="43px" height="45px" />
      <rect id="1E2956DB-B659-4925-A668-BCBC-04BBDECB0439" x="174px" y="2px" width="43px" height="45px" />
      <rect id="625F4E0D-9DBA-ABDA-8ED9-8635-70D2A2E81D33" x="39px" y="2px" width="77px" height="45px" />
      <rect id="878CF676-3A6E-F4AC-4812-BF23-EA6441C87AD6" x="97px" y="49px" width="75px" height="53px" />
      <rect id="6FF8F9E9-98BD-13D0-CE4F-14A1-7B7B6EFE659F" x="39px" y="172px" width="56px" height="29px" />
      <rect id="3BB6B5A9-2A47-3D00-2360-F9BE-F3B9288CF694" x="97px" y="172px" width="120px" height="85px" />
      <rect id="D2B7CFB3-AA03-E230-0447-B4E5-65C13FDC4D67" x="359px" y="132px" width="24px" height="64px" />
      <rect id="604FA9FF-C15C-FEF0-5CF8-C1D4-C899524C1083" x="174px" y="49px" width="43px" height="53px" />
      <rect id="7BB16703-2D03-BFAA-1C02-5A2C-F2BF8A63E5AB" x="359px" y="198px" width="24px" height="59px" />
      <rect id="EB6EED8F-DB4B-DD63-E3B3-DB27-8801275463DF" x="324px" y="102px" width="105px" height="28px" />
      <rect id="E8BE4349-F56A-7BB2-11E1-9BFF-16408EA23CDB" x="39px" y="131px" width="56px" height="39px" />
      <rect id="B3AF5E4C-6857-9A37-A60D-B010-950FB5C61E44" x="264px" y="198px" width="93px" height="59px" />
      <rect id="E40E0660-3185-DF59-A0E6-CFDD-BACE5E3CE2E6" x="264px" y="132px" width="58px" height="64px" />
      <rect id="2FC94F5C-B840-6251-0391-1128-05576A2E413F" x="264px" y="2px" width="111px" height="45px" />
      <rect id="B938A8AB-EA69-90A5-6B02-47EB-50C6D42B0117" x="97px" y="137px" width="120px" height="33px" />
      <rect id="9F46FC49-EDD9-962A-9F02-89F1-EE56BF4AF89C" x="264px" y="102px" width="58px" height="28px" />
      <rect id="F14D9E02-FC92-123E-9BD8-33A8-338C899C8E3D" x="385px" y="198px" width="44px" height="59px" />
      <rect id="2F8C5FBB-232F-BBDC-5128-C691-8A272645DEDF" x="2px" y="2px" width="35px" height="127px" />
      <rect id="1A0DC7FC-846C-A10A-A0C2-E5DF-4C3BE3AF023B" x="219px" y="132px" width="43px" height="64px" />
      <rect id="884E9966-47AF-512C-0EAE-E26F-7CC12CFAD9DF" x="219px" y="49px" width="43px" height="81px" />
      <rect id="C8FB6373-4759-BA6A-4D61-ACBE-0F2A98D742C8" x="324px" y="132px" width="33px" height="64px" />
      <rect id="E90DE385-F47D-8265-DFC1-A9D6-78120E3B9958" x="377px" y="2px" width="52px" height="45px" />
      <rect id="A839AA06-A745-0231-3F45-D428-36D2851EE1ED" x="324px" y="49px" width="51px" height="51px" />
      <rect id="21DD011B-2F6B-3357-1D3B-29F5-E2D13F81E6C9" x="39px" y="49px" width="56px" height="80px" />
      <rect id="2B2A2403-C825-D7BE-5CFD-AE1A-4061AB35E3C3" x="118px" y="2px" width="54px" height="45px" />
      <rect id="7C62F928-E7A9-A6C9-DB7A-8F5F-2CB62F3B2B20" x="219px" y="198px" width="43px" height="59px" />
      <rect id="90F0EA45-B430-76B1-CB67-E68F-66E9D47331FC" x="2px" y="131px" width="35px" height="126px" />
    </svg>

    <svg id="food_gardening" x="469" y="474" xmlns="http://www.w3.org/2000/svg">
      <rect id="2E7F94C3-360C-EB19-E9B2-336D-5C8B80A80DAF" x="68px" y="331px" width="102px" height="64px" />
      <rect id="4BE6C5EA-AADC-337A-6257-C977-4041B310AD47" x="68px" y="296px" width="102px" height="33px" />
      <rect id="18058B38-E6ED-2A48-2A7C-6655-B06BBFE7FB9E" x="199px" y="397px" width="80px" height="57px" />
      <rect id="BFF4C2EF-C26D-DC88-E69C-8B69-3E5451B4EBD0" x="225px" y="2px" width="54px" height="74px" />
      <rect id="92C5AA2A-CE86-8934-E6D9-1C7A-25680CE8B9B0" x="2px" y="487px" width="64px" height="43px" />
      <rect id="C831BD2F-AF10-5C75-B522-8828-2126812BF13F" x="182px" y="134px" width="54px" height="37px" />
      <rect id="095739C8-D176-F8A5-3852-1BBF-FB0D44E2B6B5" x="68px" y="397px" width="102px" height="57px" />
      <rect id="E170B069-6FE0-31F0-4696-F37F-2D310C7234EA" x="2px" y="173px" width="39px" height="52px" />
      <rect id="D033D205-2AC8-7BB8-0312-3E63-DF3C445B44F4" x="2px" y="296px" width="64px" height="33px" />
      <rect id="39B10EC9-024D-0052-E3DC-B4DB-BACFB3F91F2B" x="110px" y="78px" width="70px" height="27px" />
      <rect id="67A83FD0-6DFA-72AA-184E-2360-7ECA74539025" x="110px" y="107px" width="70px" height="64px" />
      <rect id="50E41543-2CD5-880D-83A5-A6B9-BB54E9D3F2C9" x="199px" y="456px" width="80px" height="74px" />
      <rect id="2CE941B0-86CD-8EBE-129D-A0E5-E8154CA4954B" x="182px" y="78px" width="97px" height="27px" />
      <rect id="74105DEB-FE20-C4FC-F77D-F59C-074B40EA28B4" x="2px" y="331px" width="64px" height="64px" />
      <rect id="00D3C30B-9112-D3BD-3C34-79B3-E9A19191E118" x="238px" y="134px" width="41px" height="126px" />
      <rect id="5BF623FD-D5A6-7096-EF6E-6231-BAD682C9E8B0" x="43px" y="107px" width="65px" height="64px" />
      <rect id="F2902979-2BE7-F69D-A399-C03E-7CDFC5978567" x="182px" y="173px" width="54px" height="52px" />
      <rect id="27F54727-4E37-D404-4846-C456-0A120FDAC56E" x="108px" y="456px" width="62px" height="74px" />
      <rect id="AFCB9251-2280-4E0C-F39D-1C6F-058B00305213" x="68px" y="456px" width="18px" height="74px" />
      <rect id="C9A3DCD3-5493-4B84-C30C-7E83-BB00C1CA6174" x="238px" y="296px" width="41px" height="33px" />
      <rect id="9D901B26-1863-5659-24D0-43D0-BB1B8809C80F" x="172px" y="296px" width="64px" height="33px" />
      <rect id="D8DEAC4D-3EDE-E8DF-A403-63B7-8615107310DD" x="88px" y="456px" width="18px" height="74px" />
      <rect id="AA875147-9CC8-14DC-3CD5-2888-0F15A9C0B215" x="2px" y="37px" width="106px" height="33px" />
      <rect id="50F91CED-355B-62F7-5BF9-3CCB-416A9306BE97" x="110px" y="259px" width="60px" height="35px" />
      <rect id="00842264-D249-75CA-45B5-7881-5E58DBFD9D1B" x="172px" y="331px" width="107px" height="64px" />
      <rect id="8577FEEC-7FE2-A038-489A-5C98-C45AFD23B59F" x="172px" y="456px" width="25px" height="74px" />
      <rect id="3CC058F4-3063-2955-8100-9877-BC60C6F397A7" x="238px" y="262px" width="41px" height="32px" />
      <rect id="52712591-E010-562B-EE13-F5F3-2734A0FB79FE" x="2px" y="107px" width="39px" height="64px" />
      <rect id="159F67AF-7CCC-3C61-095E-B2A6-9674D61859FB" x="172px" y="397px" width="25px" height="57px" />
      <rect id="FEC3FBE2-375D-33B4-3A81-8064-5EBBF5974E71" x="172px" y="259px" width="64px" height="35px" />
      <rect id="2F62BEFE-D517-5064-BC60-ED62-BA4AB695162C" x="110px" y="227px" width="126px" height="30px" />
      <rect id="62558C4C-242D-88D6-B637-0E38-BEA4033E2CCC" x="110px" y="2px" width="70px" height="74px" />
      <rect id="993E3EF8-F7B1-9017-10DC-A01D-00861067AD57" x="2px" y="259px" width="106px" height="35px" />
      <rect id="B2769821-F55D-271B-4460-6D12-FB271C0764B7" x="43px" y="173px" width="65px" height="52px" />
      <rect id="61769794-464D-239E-9931-846E-CA1AB9DFBA8E" x="182px" y="2px" width="41px" height="74px" />
      <rect id="46219F17-EC27-D2CD-675E-AA42-78BAA6AE0CD3" x="2px" y="2px" width="106px" height="33px" />
      <rect id="578434B1-12F7-D39C-8914-4CC9-8872B014D521" x="110px" y="173px" width="70px" height="52px" />
      <rect id="840D4022-149D-0418-9877-C024-BC468278C107" x="2px" y="72px" width="106px" height="33px" />
      <rect id="1A318666-CFEB-414F-7784-1DA5-C1A9A740F7DB" x="182px" y="107px" width="97px" height="25px" />
      <rect id="F8361B0A-9D70-B023-BBDF-AD70-D4D244785A35" x="2px" y="227px" width="106px" height="30px" />
      <rect id="303FABC9-E47D-1FCE-476C-7991-9E33FDE1AC2E" x="2px" y="397px" width="64px" height="57px" />
      <rect id="C52353B1-3208-AD21-EFF5-3B7A-482C6C45AAFA" x="2px" y="456px" width="64px" height="29px" />
    </svg>

    <svg id="storytelling" x="20" y="751" xmlns="http://www.w3.org/2000/svg">
      <rect id="EA0B818C-6A40-C47D-AD1B-F3F0-35501A92C3C3" x="287px" y="2px" width="50px" height="36px" />
      <rect id="2ADE4E14-CE4A-2344-D116-59DB-CA945233640C" x="79px" y="2px" width="50px" height="36px" />
      <rect id="67A6F4C5-748D-C019-D9DC-489F-6635CBF7ECAD" x="2px" y="169px" width="75px" height="84px" />
      <rect id="F861E087-F5FC-3CED-25F6-430E-09519FA586AC" x="287px" y="78px" width="37px" height="49px" />
      <rect id="22827507-A002-1D98-AA38-B732-B59E090AFA5E" x="326px" y="194px" width="63px" height="59px" />
      <rect id="3EE335C5-B787-5E50-6F3C-3D1E-57533F90694F" x="2px" y="2px" width="75px" height="36px" />
      <rect id="22A189A1-D8A1-7373-2B7F-9BC3-B1E2F39D242C" x="326px" y="129px" width="63px" height="35px" />
      <rect id="7FD01030-AA92-5C97-1BFB-F506-856429795AD6" x="258px" y="166px" width="66px" height="26px" />
      <rect id="E2912BB4-3F6B-4135-F65A-EA92-C2235BA07847" x="391px" y="126px" width="38px" height="71px" />
      <rect id="98D19C7F-C5AB-6D1C-F9C9-CE2E-0ABCAE4A318D" x="287px" y="40px" width="102px" height="36px" />
      <rect id="38369CEB-D789-3944-31A4-ED0B-68D7DC8CCF92" x="121px" y="183px" width="86px" height="32px" />
      <rect id="C4972464-9115-86E9-D651-461A-2B2FC4B1E92D" x="79px" y="85px" width="40px" height="57px" />
      <rect id="909E8C3A-38E2-FB89-E23F-6D44-AB2956506DA5" x="79px" y="40px" width="86px" height="43px" />
      <rect id="D0DE20B6-D57C-40C4-AF34-D629-8F778C6B188D" x="131px" y="2px" width="76px" height="36px" />
      <rect id="2E54C335-8A4E-7462-FD4C-3D82-398227059731" x="167px" y="40px" width="40px" height="43px" />
      <rect id="3375FF39-E425-0ACC-BD4A-F6CE-18FB85E34727" x="391px" y="199px" width="38px" height="54px" />
      <rect id="E7346F65-EEB1-69FA-15EB-6B46-C685F104D535" x="391px" y="2px" width="38px" height="122px" />
      <rect id="0DA16C95-1516-1B6D-47F4-A859-258B11F4336B" x="326px" y="166px" width="63px" height="26px" />
      <rect id="F23C1C69-B32D-0945-3B2C-0C1D-6306AB03A0D9" x="121px" y="217px" width="21px" height="36px" />
      <rect id="5D6DCAF1-736C-BA9D-5B0A-E74D-410CF6F988A0" x="121px" y="85px" width="86px" height="57px" />
      <rect id="214E7DFC-23EB-8A9E-3083-1F1A-A11D5ED2CF7F" x="144px" y="217px" width="63px" height="36px" />
      <rect id="DA227299-2C51-EB34-98F6-7568-74B6EE5A1749" x="339px" y="2px" width="50px" height="36px" />
      <rect id="74CC78D6-5B13-C91F-574A-1603-74EBE3868DBC" x="2px" y="85px" width="75px" height="57px" />
      <rect id="57F079AA-143C-16EE-3288-B241-6EF843DF87F1" x="209px" y="2px" width="76px" height="36px" />
      <rect id="AD1DFDBA-4A28-7D38-82F3-CFDB-4A2666BB9E6C" x="209px" y="166px" width="47px" height="87px" />
      <rect id="13B197F0-4390-0D21-6DEB-DF35-73B9351D7F61" x="209px" y="40px" width="76px" height="23px" />
      <rect id="617F573B-6D8C-F072-9588-8351-2D73F62E72EE" x="209px" y="65px" width="76px" height="62px" />
      <rect id="C2FFD7D2-6A43-A880-089D-9343-92DE6A9DBE93" x="2px" y="40px" width="75px" height="43px" />
      <rect id="0F87C27F-63EA-9B79-07C6-4D74-DABE679A66E1" x="79px" y="144px" width="40px" height="109px" />
      <rect id="8246E764-0828-26A5-3597-D820-C660E88A2F8D" x="121px" y="144px" width="86px" height="37px" />
      <rect id="19073216-6E7E-CCDC-C2D1-5333-2C801887EEAB" x="258px" y="194px" width="66px" height="59px" />
      <rect id="3867E060-112C-8DAE-54E8-EE60-16FA28646066" x="326px" y="78px" width="63px" height="49px" />
      <rect id="64C86100-0A4F-FF72-EA69-E869-BC6E91ACFB0B" x="209px" y="129px" width="115px" height="35px" />
      <rect id="4CBAB9AF-1AD1-82D1-F765-3440-F445FDE50951" x="2px" y="144px" width="75px" height="23px" />
    </svg>

  </g>
</svg>
