<svg width="1450px" height="1450px" xmlns="http://www.w3.org/2000/svg">
  <g transform="translate(213.0 213.0) rotate(45 512.0 512.0)">
    <svg id="art-design" x="60" y="60" xmlns="http://www.w3.org/2000/svg">
      <rect id="diy-hack-a-t-shirt-" x="6px" y="6px" width="33px" height="88px" />
      <rect id="mcg-youth-and-arts-electric-avenue" x="45px" y="6px" width="32px" height="52px" />
      <rect id="pittsburgh-filmmaker-and-center-for-the-arts-anime" x="83px" y="6px" width="44px" height="52px" />
      <rect id="mcg-youth-and-arts-the-wide-world-of-photo" x="133px" y="6px" width="51px" height="52px" />
      <rect id="mcg-youth-and-arts-digital-expressions" x="190px" y="6px" width="51px" height="52px" />
      <rect id="diy-sketch-a-real-building-" x="247px" y="6px" width="57px" height="52px" />
      <rect id="carnegie-museums-of-art-and-natural-history-dream-house---sketch-to-structure" x="310px" y="6px" width="32px" height="52px" />
      <rect id="pittsburgh-filmmaker-and-center-for-the-arts-manipulating-metals" x="348px" y="6px" width="55px" height="52px" />
      <rect id="design-boom-design-boom" x="45px" y="64px" width="82px" height="30px" />
      <rect id="carnegie-museums-of-art-and-natural-history-sketchbook" x="133px" y="64px" width="108px" height="30px" />
      <rect id="pittsburgh-filmmaker-and-center-for-the-arts-high-fire-ceramics" x="6px" y="192px" width="72px" height="14px" />
      <rect id="carnegie-museums-of-art-and-natural-history-city-explorers---urban-designers" x="247px" y="64px" width="57px" height="11px" />
      <rect id="labs-at-carnegie-library-of-pittsburgh-the-labsy-awards" x="310px" y="64px" width="93px" height="23px" />
      <rect id="society-for-contemporary-craft-visit-scc-store" x="247px" y="81px" width="57px" height="13px" />
      <rect id="carnegie-museums-of-art-and-natural-history-you-are-here---pittsburgh-placemaking" x="310px" y="93px" width="24px" height="66px" />
      <rect id="the-andy-warhol-museum-vertical-silkscreen-printing-with-stefan-hoffmann" x="340px" y="93px" width="39px" height="66px" />
      <rect id="pittsburgh-filmmaker-and-center-for-the-arts-graphic-design" x="385px" y="93px" width="19px" height="110px" />
      <rect id="mcg-youth-and-arts-ceramics-sets" x="6px" y="100px" width="33px" height="40px" />
      <rect id="carnegie-museums-of-art-and-natural-history-experimental-drawing-and-painting" x="45px" y="100px" width="82px" height="40px" />
      <rect id="carnegie-museums-of-art--interact" x="385px" y="209px" width="18px" height="77px" />
      <rect id="mcg-youth-and-arts-print-draw-paint" x="156px" y="100px" width="41px" height="40px" />
      <rect id="pittsburgh-filmmaker-and-center-for-the-arts-drawing" x="203px" y="100px" width="38px" height="40px" />
      <rect id="moma--moma-teens-online" x="247px" y="100px" width="57px" height="40px" />
      <rect id="carnegie-museums-of-art-and-natural-history-fiber-art" x="6px" y="146px" width="33px" height="40px" />
      <rect id="carnegie-museums-of-art-and-natural-history-drawing-people" x="45px" y="146px" width="33px" height="40px" />
      <rect id="pittsburgh-filmmaker-and-center-for-the-arts-creature-design-and-mask-making" x="84px" y="146px" width="43px" height="40px" />
      <rect id="the-andy-warhol-museum-online-weeeknd-factory" x="133px" y="146px" width="17px" height="40px" />
      <rect id="deviant-art-deviantart" x="156px" y="146px" width="41px" height="40px" />
      <rect id="the-andy-warhol-museum-andy-warhol---pop-portraits-and-selfies" x="203px" y="146px" width="38px" height="40px" />
      <rect id="tech-shop-steam003---textile-printing-and-sewing-" x="272px" y="146px" width="32px" height="40px" />
      <rect id="pittsburgh-filmmaker-and-center-for-the-arts-raku" x="84px" y="212px" width="43px" height="74px" />
      <rect id="society-for-contemporary-craft-contemporary-craft-blog" x="247px" y="146px" width="19px" height="40px" />
      <rect id="labs-at-carnegie-library-of-pittsburgh-fashion-design-workshops" x="133px" y="192px" width="64px" height="14px" />
      <rect id="pittsburgh-filmmaker-and-center-for-the-arts-the-shop" x="310px" y="165px" width="69px" height="21px" />
      <rect id="pittsburgh-filmmaker-and-center-for-the-arts-stained-glass" x="84px" y="192px" width="43px" height="14px" />
      <rect id="tek-start-the-beauty-of-stem-makers-institute" x="272px" y="192px" width="32px" height="94px" />
      <rect id="labs-at-carnegie-library-of-pittsburgh-open-lab" x="310px" y="192px" width="69px" height="14px" />
      <rect id="open-ideo-adding-visual-goodness-to-your-ideas-" x="133px" y="100px" width="17px" height="40px" />
      <rect id="colossal-colossal" x="6px" y="212px" width="72px" height="74px" />
      <rect id="carnegie-museums-of-art-and-natural-history-youth-museum-institute---exhibit-design-lab" x="203px" y="192px" width="38px" height="94px" />
      <rect id="evan-mirapaul-la-hutte-royal" x="247px" y="192px" width="19px" height="94px" />
      <rect id="food-revolution-pittsburgh-cooking-club-at-harvest-and-create
" x="133px" y="212px" width="24px" height="74px" />
      <rect id="mattress-factory-summer-art-cooperative" x="163px" y="212px" width="34px" height="17px" />
      <rect id="the-andy-warhol-museum-youth-open-studio" x="310px" y="212px" width="39px" height="14px" />
      <rect id="mattress-factory-community-art-lab" x="355px" y="212px" width="24px" height="14px" />
      <rect id="mcg-youth-and-arts-pillows-galore" x="163px" y="235px" width="34px" height="51px" />
      <rect id="pittsburgh-center-for-creative-reuse-the-remaker-playshop---sew-mend-make" x="355px" y="232px" width="24px" height="54px" />
      <rect id="society-for-contemporary-craft-drop-in-studio" x="310px" y="232px" width="39px" height="54px" />
    </svg>

    <svg id="coding-gaming" x="523" y="60" xmlns="http://www.w3.org/2000/svg">
      <rect id="id-tech-game-programming-for-apple-ios-and-android-with-unity" x="6px" y="122px" width="48px" height="50px" />
      <rect id="diyorg-minecrafter" x="76px" y="6px" width="29px" height="22px" />
      <rect id="brain-pop-digital-etiquette" x="111px" y="6px" width="101px" height="22px" />
      <rect id="remake-learning-digital-learning-tools" x="218px" y="6px" width="41px" height="22px" />
      <rect id="codeorg-20-hour-intro-course" x="48px" y="206px" width="41px" height="43px" />
      <rect id="codecademy-make-an-interactive-website" x="122px" y="206px" width="90px" height="43px" />
      <rect id="stem-advanced-technologies-for-kids-video-game-design" x="6px" y="34px" width="64px" height="22px" />
      <rect id="id-tech-intro-to-programming-with-scratch-and-javascript" x="218px" y="206px" width="50px" height="43px" />
      <rect id="codecademy-python" x="111px" y="34px" width="20px" height="32px" />
      <rect id="girl-develop-it-introduction-to-web-concepts" x="137px" y="34px" width="75px" height="32px" />
      <rect id="schell-games-gamesprout" x="218px" y="34px" width="73px" height="32px" />
      <rect id="lifelong-kindergarten-group-at-the-mit-media-lab-scratch" x="297px" y="34px" width="45px" height="53px" />
      <rect id="carnegie-science-center-click---spy-school" x="297px" y="93px" width="76px" height="26px" />
      <rect id="diyorg-set-up-a-virtual-machine-with-ubuntu-" x="379px" y="39px" width="62px" height="48px" />
      <rect id="p2pu-webmaking-101" x="76px" y="72px" width="55px" height="26px" />
      <rect id="codeorg-make-a-flappy-game" x="137px" y="72px" width="25px" height="26px" />
      <rect id="diyorg-design-a-body-game" x="168px" y="72px" width="44px" height="47px" />
      <rect id="neighborhood-learning-alliance-tech-warriors-training" x="218px" y="72px" width="19px" height="47px" />
      <rect id="grow-a-generation-mobile-app-development" x="243px" y="72px" width="48px" height="47px" />
      <rect id="webmaker-training-html-basics" x="348px" y="6px" width="93px" height="27px" />
      <rect id="girl-develop-it-html-intro" x="379px" y="93px" width="62px" height="26px" />
      <rect id="e-line-media-gamestar-mechanic" x="360px" y="248px" width="17px" height="38px" />
      <rect id="girl-develop-it-introduction-to-git-and-github" x="274px" y="125px" width="99px" height="26px" />
      <rect id="assemble-make-it" x="60px" y="104px" width="71px" height="20px" />
      <rect id="webmaker-tools-appmaker" x="137px" y="104px" width="25px" height="20px" />
      <rect id="mozilla-webmaker-x-ray-goggles" x="383px" y="189px" width="23px" height="53px" />
      <rect id="diyorg-gather-website-inspiration" x="218px" y="125px" width="19px" height="48px" />
      <rect id="carnegie-mellon-university-school-of-computer-science-leap-at-cmu" x="383px" y="248px" width="58px" height="38px" />
      <rect id="global-game-jam-2015-global-game-jam-games" x="6px" y="6px" width="64px" height="22px" />
      <rect id="id-tech-mobile-game-design-for-iphone-and-android" x="379px" y="125px" width="62px" height="26px" />
      <rect id="appshed-academy" x="348px" y="39px" width="25px" height="48px" />
      <rect id="institute-of-play-through-the-arcade" x="95px" y="130px" width="36px" height="42px" />
      <rect id="cs2n-rumbleblocks" x="137px" y="130px" width="25px" height="42px" />
      <rect id="brain-pop-digital-etiquette-quiz" x="274px" y="157px" width="80px" height="26px" />
      <rect id="microsoft-virtual-academy-hour-of-code-event-training" x="360px" y="157px" width="81px" height="26px" />
      <rect id="women-at-scs-school-of-computer-science---carnegie-mellon-university-creative-tech-nights" x="6px" y="62px" width="64px" height="36px" />
      <rect id="mozilla-webmaker-make-a-meme" x="95px" y="178px" width="67px" height="22px" />
      <rect id="diyorg-make-a-board-game" x="60px" y="130px" width="29px" height="42px" />
      <rect id="school-of-open-get-to-know-the-hackasaurus-xray-goggles" x="168px" y="179px" width="44px" height="21px" />
      <rect id="institute-of-play-gamekit-challenge-pack---the-basics" x="6px" y="178px" width="83px" height="22px" />
      <rect id="webmaker-training-building-on-the-web" x="274px" y="189px" width="18px" height="53px" />
      <rect id="codecademy-make-a-website" x="27px" y="206px" width="15px" height="43px" />
      <rect id="girl-develop-it-intermediate-html-and-css" x="360px" y="189px" width="17px" height="53px" />
      <rect id="tumblr-theme-garden" x="168px" y="125px" width="44px" height="48px" />
      <rect id="diyorg-make-a-pen-and-paper-game" x="6px" y="206px" width="15px" height="43px" />
      <rect id="tumblr-how-to-create-a-custom-html-theme" x="298px" y="189px" width="56px" height="53px" />
      <rect id="id-tech-java-programming" x="412px" y="189px" width="29px" height="53px" />
      <rect id="computer-science-education-week-thinkersmith-unplugged-hour-of-code-activity" x="95px" y="206px" width="21px" height="43px" />
      <rect id="made-w-code-watch-the-film" x="265px" y="6px" width="77px" height="22px" />
      <rect id="w3-schools-html5-tutorial" x="76px" y="34px" width="29px" height="32px" />
      <rect id="codeorg-code-combat" x="274px" y="248px" width="18px" height="38px" />
      <rect id="gamesalad-game-salad" x="298px" y="248px" width="14px" height="38px" />
      <rect id="webmaker-tools-thimble" x="318px" y="248px" width="36px" height="38px" />
      <rect id="girl-develop-it-web-accessibility" x="6px" y="104px" width="48px" height="12px" />
      <rect id="id-tech-adventures-in-minecraft-game-design" x="243px" y="125px" width="25px" height="48px" />
      <rect id="instructables-create-tumblr-account" x="6px" y="255px" width="15px" height="31px" />
      <rect id="codeorg-studio-activities" x="27px" y="255px" width="62px" height="31px" />
      <rect id="stem-advanced-technologies-for-kids-mobile-app-design" x="95px" y="255px" width="117px" height="31px" />
      <rect id="digital-media-academy-online-fundamentals-of-programming" x="218px" y="255px" width="18px" height="31px" />
      <rect id="the-jerome-bettis-bus-stops-here-foundation-the-cyber-bus-computer-engineering-program" x="242px" y="255px" width="26px" height="31px" />
      <rect id="carnegie-science-center--click---spy-mission" x="218px" y="179px" width="50px" height="21px" />
    </svg>

    <svg id="storytelling" x="60" y="406" xmlns="http://www.w3.org/2000/svg">
      <rect id="get-lit-get-lit-players" x="6px" y="6px" width="51px" height="34px" />
      <rect id="grow-a-generation-the-writings-of-neil-degrasse-tyson-and-michio-kaku" x="63px" y="6px" width="71px" height="34px" />
      <rect id="diy-tell-a-scary-story-" x="140px" y="6px" width="23px" height="34px" />
      <rect id="toonseum-create-your-own-comic-strip-" x="169px" y="6px" width="90px" height="34px" />
      <rect id="826-valencia-student-writing-gallery" x="265px" y="6px" width="52px" height="34px" />
      <rect id="studio-360-funny-ha-ha---the-high-school-humor-challenge" x="323px" y="6px" width="80px" height="34px" />
      <rect id="the-moth-the-moth-video" x="6px" y="46px" width="51px" height="28px" />
      <rect id="the-western-pa-writing-project-scholastic-writing-awards" x="63px" y="46px" width="71px" height="28px" />
      <rect id="the-creativity-hub-story-cubes" x="140px" y="46px" width="40px" height="28px" />
      <rect id="labs-at-carnegie-library-of-pittsburgh-the-labsy-awards" x="186px" y="46px" width="73px" height="28px" />
      <rect id="luminari-fantastic-fiction-writing---4-day-summer-camp-for-teens-" x="381px" y="102px" width="22px" height="96px" />
      <rect id="wilkinsburg-public-library-unmask---summer-reading-challenge" x="6px" y="80px" width="51px" height="42px" />
      <rect id="neighborhood-learning-alliance-reading-warriors" x="63px" y="80px" width="71px" height="24px" />
      <rect id="hear-me-hear-me-stories" x="140px" y="80px" width="40px" height="24px" />
      <rect id="toonseum-summer-saturdays-superhero-workshop" x="186px" y="80px" width="73px" height="24px" />
      <rect id="the-western-pa-writing-project-young-writers-institutes" x="265px" y="80px" width="47px" height="24px" />
      <rect id="carnegie-museums-of-art-and-natural-history-comics-and-cartoons" x="318px" y="80px" width="57px" height="24px" />
      <rect id="the-carnegie-library-of-pittsburgh-the-labs-at-clp-allegheny---slb-radio-series" x="381px" y="46px" width="22px" height="50px" />
      <rect id="alpha-science-fiction-fantasy-horror-workshop-for-young-writers-alpha-science-fiction-fantasy-horror-workshop-for-young-writers" x="63px" y="110px" width="71px" height="26px" />
      <rect id="scholastic-art-and-writing-awards-scholastic-art-and-writing-awards" x="140px" y="110px" width="40px" height="26px" />
      <rect id="inkle-studios-inklewriter" x="186px" y="110px" width="73px" height="26px" />
      <rect id="carnegie-mellon-university-department-of-english-the-martin-luther-king-junior-writing-awards" x="6px" y="128px" width="51px" height="17px" />
      <rect id="the-carnegie-library-of-pittsburgh-teen-summer-reading" x="265px" y="110px" width="47px" height="26px" />
      <rect id="grow-a-generation-crafting-a-science-fiction-short-story" x="318px" y="110px" width="57px" height="26px" />
      <rect id="the-creativity-hub-extraordinaires" x="265px" y="46px" width="110px" height="28px" />
      <rect id="inkle-studios-80-days" x="91px" y="142px" width="43px" height="56px" />
      <rect id="diy-write-a-choose-your-own-adventure" x="63px" y="142px" width="22px" height="56px" />
      <rect id="hear-me-hear-me-101-internship-program" x="140px" y="142px" width="40px" height="56px" />
      <rect id="heinz-history-center-pittsburgh-history-detectives" x="186px" y="142px" width="73px" height="27px" />
      <rect id="the-creativity-hub-story-cubes-app" x="265px" y="142px" width="47px" height="27px" />
      <rect id="figment-the-daily-fig" x="318px" y="142px" width="57px" height="27px" />
      <rect id="city-of-asylum-city-of-asylum-events" x="6px" y="151px" width="51px" height="47px" />
      <rect id="pittsburgh-public-schools-literary-arts-department-at-capa" x="186px" y="175px" width="73px" height="23px" />
      <rect id="pittsburgh-poetry-collective-young-steel" x="265px" y="175px" width="110px" height="23px" />
    </svg>

    <svg id="food-gardening" x="523" y="406" xmlns="http://www.w3.org/2000/svg">
      <rect id="saint-paul-episcopal-church-mission-trip" x="6px" y="6px" width="38px" height="49px" />
      <rect id="take-part-place-at-the-table" x="193px" y="6px" width="33px" height="49px" />
      <rect id="diy-diy-gardener" x="72px" y="6px" width="49px" height="49px" />
      <rect id="phipps-conservatory-homegrown-hero-badge-resources-" x="127px" y="6px" width="44px" height="49px" />
      <rect id="food-revolution-day-recipes" x="321px" y="98px" width="93px" height="24px" />
      <rect id="webmd-and-whitehouse-webmd-town-hall" x="50px" y="6px" width="16px" height="49px" />
      <rect id="fox-master-chef-jr" x="232px" y="6px" width="44px" height="49px" />
      <rect id="food-n-me-smash-your-food" x="282px" y="6px" width="33px" height="49px" />
      <rect id="pa-summer-food-service-program-summer-food-service-" x="321px" y="6px" width="33px" height="49px" />
      <rect id="wilkinsburg-public-library-unmask-super-snacks" x="360px" y="6px" width="10px" height="49px" />
      <rect id="phipps-conservatory-phipps-cafe" x="376px" y="6px" width="38px" height="49px" />
      <rect id="food-revolution-pittsburgh-cooking-club-at-summer-dreamers" x="420px" y="6px" width="23px" height="100px" />
      <rect id="food-n-me-various-activities" x="6px" y="61px" width="60px" height="31px" />
      <rect id="food-revolution-pittsburgh-cooking-club" x="72px" y="61px" width="19px" height="31px" />
      <rect id="carnegie-library-of-pittsburgh-cooking-for-teens-" x="97px" y="61px" width="24px" height="31px" />
      <rect id="foraging-pittsburgh-wild-food-walks" x="127px" y="61px" width="44px" height="31px" />
      <rect id="fit-webmd-fit-webmd-handbook" x="177px" y="61px" width="49px" height="31px" />
      <rect id="usda-choose-my-plate-teen-boys" x="232px" y="61px" width="83px" height="31px" />
      <rect id="usda-choose-my-plate-teen-girls" x="321px" y="61px" width="33px" height="31px" />
      <rect id="winter-root-wild-edibles-app" x="360px" y="61px" width="54px" height="31px" />
      <rect id="local-harvest-local-farmers-markets" x="358px" y="154px" width="22px" height="16px" />
      <rect id="eat-local-challenge-10-reasons-to-eat-local-food" x="72px" y="98px" width="99px" height="24px" />
      <rect id="slow-foods-youth-network-slow-food-youth-network-eat-the-future-you-want" x="177px" y="98px" width="49px" height="24px" />
      <rect id="the-white-house-lets-move-kids" x="232px" y="98px" width="83px" height="24px" />
      <rect id="fda-read-the-label-youth-outreach-campaign-" x="177px" y="6px" width="10px" height="49px" />
      <rect id="grow-pittsburgh-start-a-garden" x="420px" y="112px" width="21px" height="86px" />
      <rect id="cooking-with-rockstars-cooking-with-rockstars" x="6px" y="122px" width="18px" height="76px" />
      <rect id="saint-paul-episcopal-church-saint-francis-garden" x="30px" y="122px" width="36px" height="26px" />
      <rect id="slow-foods-origins-of-taste" x="72px" y="128px" width="72px" height="20px" />
      <rect id="falling-fruit-mapping-the-urban-harvest" x="150px" y="128px" width="21px" height="20px" />
      <rect id="food-revolution-pittsburgh-cooking-club-at-harvest-and-create
" x="177px" y="128px" width="49px" height="20px" />
      <rect id="no-kid-hungry-no-kid-hungry-summer-" x="232px" y="128px" width="83px" height="20px" />
      <rect id="center-for-disease--control-bam-body-and-mind" x="321px" y="128px" width="93px" height="20px" />
      <rect id="sam-stern-light-meals-and-snacks" x="30px" y="154px" width="114px" height="44px" />
      <rect id="wild-purveyors-tour-of-store" x="150px" y="154px" width="21px" height="44px" />
      <rect id="fit-webmd-fit-webmd-teen" x="177px" y="154px" width="49px" height="44px" />
      <rect id="healcrest-farm-farm-fresh-icepops" x="232px" y="154px" width="83px" height="44px" />
      <rect id="teen-observer-alice-waters-article" x="321px" y="154px" width="31px" height="44px" />
      <rect id="food-revolution-pittsburgh-cooking-demos" x="6px" y="98px" width="60px" height="18px" />
      <rect id="phipps-conservatory-homegrown-challenges" x="386px" y="154px" width="28px" height="16px" />
      <rect id="phipps-conservatory-12-month-gardening-tips" x="358px" y="176px" width="56px" height="22px" />
    </svg>

    <svg id="robotics" x="60" y="664" xmlns="http://www.w3.org/2000/svg">
      <rect id="carnegie-science-center-roboworld" x="151px" y="242px" width="58px" height="17px" />
      <rect id="carnegie-mellon-robotics-academy-cs2n" x="56px" y="6px" width="27px" height="90px" />
      <rect id="girls-of-steel-robotics-the-girls-of-steel-robotics" x="89px" y="6px" width="38px" height="90px" />
      <rect id="super-awesome-sylvia-watercolorbot" x="330px" y="53px" width="73px" height="43px" />
      <rect id="carnegie-mellon-robotics-academy-robots-virtual-world" x="188px" y="6px" width="21px" height="90px" />
      <rect id="robocup-manuela-veloso---robocup-champion" x="215px" y="6px" width="38px" height="90px" />
      <rect id="greene-academy-ev3-lego-robotics" x="259px" y="6px" width="38px" height="90px" />
      <rect id="carnegie-mellon-robotics-academy-expedition-atlantis-" x="303px" y="6px" width="21px" height="90px" />
      <rect id="walt-disney-animation-studios-big-hero-6" x="330px" y="6px" width="73px" height="41px" />
      <rect id="lifelong-kindergarten-group-at-the-mit-media-lab-scratch" x="133px" y="6px" width="49px" height="90px" />
      <rect id="carnegie-mellon-university--cookie-vs-creme---a-robotic-twist" x="6px" y="102px" width="77px" height="32px" />
      <rect id="pittsburgh-first-get-involved" x="89px" y="102px" width="120px" height="32px" />
      <rect id="carnegie-science-center-chain-reaction-contraption-contest" x="215px" y="102px" width="109px" height="32px" />
      <rect id="diy-make-a-rube-goldberg-machine" x="262px" y="242px" width="62px" height="58px" />
      <rect id="greene-academy-advanced-robotics" x="128px" y="199px" width="81px" height="37px" />
      <rect id="carnegie-mellon-create-lab-hummingbird-robotics-kit" x="89px" y="140px" width="68px" height="53px" />
      <rect id="carnegie-library-of-pittsburgh-weekly-workshop-at-clp---allegheny" x="163px" y="140px" width="46px" height="53px" />
      <rect id="grow-a-generation-audacious-robotocists" x="215px" y="140px" width="109px" height="53px" />
      <rect id="christopher-atkeson-build-baymax" x="330px" y="171px" width="73px" height="22px" />
      <rect id="carnegie-science-center-roboworld-activities" x="6px" y="199px" width="25px" height="101px" />
      <rect id="sarah-heinz-house-join-sharp" x="37px" y="199px" width="46px" height="37px" />
      <rect id="assemble-summer-dreamers" x="89px" y="199px" width="33px" height="37px" />
      <rect id="wilkinsburg-public-library-unmask---bristle-bot-racers" x="6px" y="140px" width="77px" height="53px" />
      <rect id="synn-labs-music-video-with-rube-goldberg-" x="215px" y="199px" width="109px" height="37px" />
      <rect id="id-tech-java-programming" x="330px" y="199px" width="73px" height="37px" />
      <rect id="deep-local-nike-chalkbot" x="37px" y="242px" width="85px" height="58px" />
      <rect id="carnegie-mellon-university-rumbleblocks-" x="128px" y="242px" width="17px" height="58px" />
      <rect id="id-tech-intro-to-programming-with-scratch-and-javascript" x="6px" y="6px" width="44px" height="90px" />
      <rect id="carnegie-mellon-robotics-academy-robotc" x="215px" y="242px" width="41px" height="58px" />
      <rect id="carnegie-mellon-university-school-of-computer-science-leap-at-cmu" x="330px" y="102px" width="73px" height="63px" />
      <rect id="carnegie-library-of-pittsburgh-the-labs-at-clp---main---robotics-workshop-with-girls-of-steel" x="330px" y="242px" width="73px" height="58px" />
      <rect id="digital-media-academy-online-fundamentals-of-programming" x="151px" y="265px" width="22px" height="35px" />
      <rect id="grow-a-generation-engineering-your-passion" x="179px" y="265px" width="30px" height="35px" />
    </svg>

    <svg id="mediamaking" x="523" y="664" xmlns="http://www.w3.org/2000/svg">
      <rect id="mcg-youth-and-arts-the-wide-world-of-photo" x="6px" y="6px" width="42px" height="39px" />
      <rect id="mcg-youth-and-arts-electric-avenue" x="54px" y="6px" width="49px" height="39px" />
      <rect id="pf-and-pca-filmmakers-youth-media-graphic-design" x="109px" y="6px" width="49px" height="39px" />
      <rect id="pf-and-pca-filmmakers-youth-media-cryptozoology" x="164px" y="6px" width="22px" height="49px" />
      <rect id="diy-org-reenact-a-scene" x="6px" y="51px" width="42px" height="46px" />
      <rect id="pf-and-pca-filmmakers-youth-media-handmade-filmmaking-at-pf" x="54px" y="51px" width="12px" height="46px" />
      <rect id="mcg-youth-and-arts-photography" x="72px" y="51px" width="31px" height="46px" />
      <rect id="vimeo-directing-101" x="109px" y="51px" width="49px" height="17px" />
      <rect id="labs-at-carnegie-library-of-pittsburgh-clp-teens-tumblr" x="164px" y="61px" width="22px" height="73px" />
      <rect id="pf-and-pca-filmmakers-youth-media-foundations-of-photography" x="109px" y="74px" width="49px" height="23px" />
      <rect id="pf-and-pca-filmmakers-youth-media-directors-workshop" x="6px" y="103px" width="42px" height="13px" />
      <rect id="wyep-radio-tour" x="54px" y="103px" width="49px" height="13px" />
      <rect id="diy-org-make-trick-photography-" x="109px" y="103px" width="49px" height="13px" />
      <rect id="pf-and-pca-filmmakers-youth-media-photography-at-pf" x="6px" y="122px" width="42px" height="27px" />
      <rect id="white-house-the-white-house--students-film-festival" x="54px" y="122px" width="49px" height="27px" />
      <rect id="madmagz-make-your-own-magazine" x="109px" y="122px" width="49px" height="27px" />
      <rect id="diy-org-film-a-spoof-video" x="164px" y="140px" width="22px" height="67px" />
      <rect id="jenesis-magazine-online-youth-lifestyle-publication-based-in-pittsburgh" x="6px" y="155px" width="42px" height="36px" />
      <rect id="diy-org-create-a-book-trailer" x="54px" y="155px" width="49px" height="36px" />
      <rect id="pf-and-pca-filmmakers-youth-media-foundations-of-filmmaking" x="109px" y="155px" width="49px" height="36px" />
      <rect id="labs-at-carnegie-library-of-pittsburgh-open-lab" x="6px" y="197px" width="42px" height="46px" />
      <rect id="teen-ink-teen-ink-video" x="54px" y="197px" width="49px" height="46px" />
      <rect id="diy-org-build-a-photo-studio" x="109px" y="197px" width="49px" height="46px" />
      <rect id="wyep-rock-radio-camp" x="164px" y="213px" width="22px" height="30px" />
      <rect id="starz-the-chair" x="6px" y="249px" width="42px" height="14px" />
      <rect id="the-criterion-collection-criterion-collection-top-10s" x="54px" y="249px" width="49px" height="14px" />
      <rect id="interview-magazine-andy-warhol-magazine--interview-" x="109px" y="249px" width="49px" height="14px" />
      <rect id="steeltown-entertainment-youth-and-media" x="164px" y="249px" width="22px" height="14px" />
      <rect id="carnegie-science-center-digital-video-smash-jam-two-day-workshop" x="6px" y="269px" width="97px" height="31px" />
      <rect id="carnegie-science-center-i5-video-competition" x="109px" y="269px" width="77px" height="31px" />
    </svg>

    <svg id="building-making" x="769" y="664" xmlns="http://www.w3.org/2000/svg">
      <rect id="childrens-museum-of-pittsburgh-makeshop" x="6px" y="6px" width="64px" height="20px" />
      <rect id="assemble-unblurred" x="76px" y="6px" width="54px" height="20px" />
      <rect id="assemble-m3---materials-media-and-me" x="136px" y="6px" width="59px" height="34px" />
      <rect id="diy-sketch-a-real-building-" x="6px" y="32px" width="64px" height="23px" />
      <rect id="maker-media-make-magazine" x="76px" y="32px" width="54px" height="23px" />
      <rect id="millvale-community-library-maker-thursdays" x="136px" y="46px" width="59px" height="34px" />
      <rect id="assemble-learning-parties" x="6px" y="61px" width="64px" height="23px" />
      <rect id="assemble-youth-maker-night" x="76px" y="61px" width="54px" height="23px" />
      <rect id="childrens-museum-of-pittsburgh-the-makeshop-show" x="136px" y="86px" width="59px" height="14px" />
      <rect id="maker-faire--visit-maker-faire-pittsburgh" x="6px" y="90px" width="64px" height="31px" />
      <rect id="built-by-kids-activities" x="76px" y="90px" width="54px" height="31px" />
      <rect id="diy-lego-master" x="136px" y="106px" width="59px" height="15px" />
      <rect id="assemble-teens-as-teachers" x="6px" y="127px" width="32px" height="15px" />
      <rect id="diy-minecrafter" x="44px" y="127px" width="70px" height="15px" />
      <rect id="diy-make-a-rube-goldberg-machine-" x="120px" y="127px" width="75px" height="15px" />
      <rect id="pbs-kids-pbs-design-squad---build" x="6px" y="148px" width="32px" height="65px" />
      <rect id="tech-shop-visit-tech-shop" x="44px" y="148px" width="70px" height="29px" />
      <rect id="northern-tier-regional-library-cube-head-superheroes" x="120px" y="148px" width="75px" height="29px" />
      <rect id="lego-lego-sets" x="44px" y="183px" width="70px" height="30px" />
      <rect id="slamacow-minecraft-leaking-into-the-real-world---minecraft-animation" x="120px" y="183px" width="28px" height="30px" />
      <rect id="carnegie-science-center-fab-lab" x="154px" y="183px" width="14px" height="30px" />
      <rect id="instructables-build-something" x="174px" y="183px" width="21px" height="30px" />
      <rect id="hack-pittsburgh-visit-hackpittsburgh" x="6px" y="219px" width="32px" height="81px" />
      <rect id="super-awesome-sylvia-show-super-awesome-sylvia---episodes" x="44px" y="219px" width="41px" height="10px" />
      <rect id="pbs-kids-pbs-design-squad---watch" x="91px" y="219px" width="23px" height="10px" />
      <rect id="gtech-strategies-412-build" x="120px" y="219px" width="28px" height="10px" />
      <rect id="assemble-saturday-crafternoons-" x="154px" y="219px" width="41px" height="10px" />
      <rect id="assemble-assemble-afterschool" x="44px" y="235px" width="41px" height="65px" />
      <rect id="ted-talks-life-lessons-through-tinkering" x="91px" y="235px" width="23px" height="65px" />
      <rect id="pittsburgh-center-for-creative-reuse-the-remaker-playshop---sew-mend-make" x="120px" y="235px" width="28px" height="65px" />
      <rect id="society-for-contemporary-craft-drop-in-studio" x="154px" y="235px" width="41px" height="65px" />
    </svg>

  </g>
</svg>
