<svg width="2898px" height="2898px" xmlns="http://www.w3.org/2000/svg">
  <g transform="translate(425.0 425.0) rotate(45 1024.0 1024.0)">
    <svg id="art-design" x="60" y="60" xmlns="http://www.w3.org/2000/svg">
      <rect id="diy-hack-a-t-shirt-" x="6px" y="6px" width="35px" height="135px" />
      <rect id="mcg-youth-and-arts-electric-avenue" x="47px" y="6px" width="117px" height="135px" />
      <rect id="pittsburgh-filmmaker-and-center-for-the-arts-anime" x="170px" y="6px" width="90px" height="135px" />
      <rect id="mcg-youth-and-arts-the-wide-world-of-photo" x="266px" y="6px" width="117px" height="135px" />
      <rect id="mcg-youth-and-arts-digital-expressions" x="389px" y="6px" width="48px" height="135px" />
      <rect id="diy-sketch-a-real-building-" x="443px" y="6px" width="62px" height="135px" />
      <rect id="carnegie-museums-of-art-and-natural-history-dream-house---sketch-to-structure" x="511px" y="6px" width="62px" height="135px" />
      <rect id="pittsburgh-filmmaker-and-center-for-the-arts-manipulating-metals" x="579px" y="6px" width="48px" height="135px" />
      <rect id="design-boom-design-boom" x="633px" y="6px" width="48px" height="135px" />
      <rect id="carnegie-museums-of-art-and-natural-history-sketchbook" x="687px" y="6px" width="238px" height="57px" />
      <rect id="pittsburgh-filmmaker-and-center-for-the-arts-high-fire-ceramics" x="252px" y="372px" width="84px" height="94px" />
      <rect id="carnegie-museums-of-art-and-natural-history-city-explorers---urban-designers" x="687px" y="69px" width="168px" height="72px" />
      <rect id="labs-at-carnegie-library-of-pittsburgh-the-labsy-awards" x="861px" y="69px" width="64px" height="72px" />
      <rect id="society-for-contemporary-craft-visit-scc-store" x="6px" y="147px" width="158px" height="53px" />
      <rect id="carnegie-museums-of-art-and-natural-history-you-are-here---pittsburgh-placemaking" x="170px" y="147px" width="90px" height="95px" />
      <rect id="the-andy-warhol-museum-vertical-silkscreen-printing-with-stefan-hoffmann" x="266px" y="147px" width="70px" height="95px" />
      <rect id="pittsburgh-filmmaker-and-center-for-the-arts-graphic-design" x="342px" y="147px" width="163px" height="95px" />
      <rect id="mcg-youth-and-arts-ceramics-sets" x="511px" y="147px" width="116px" height="95px" />
      <rect id="carnegie-museums-of-art-and-natural-history-experimental-drawing-and-painting" x="633px" y="147px" width="109px" height="95px" />
      <rect id="carnegie-museums-of-art--interact" x="92px" y="472px" width="154px" height="160px" />
      <rect id="mcg-youth-and-arts-print-draw-paint" x="6px" y="206px" width="158px" height="99px" />
      <rect id="pittsburgh-filmmaker-and-center-for-the-arts-drawing" x="170px" y="248px" width="166px" height="57px" />
      <rect id="moma--moma-teens-online" x="342px" y="248px" width="163px" height="57px" />
      <rect id="carnegie-museums-of-art-and-natural-history-fiber-art" x="511px" y="248px" width="231px" height="57px" />
      <rect id="carnegie-museums-of-art-and-natural-history-drawing-people" x="748px" y="248px" width="177px" height="57px" />
      <rect id="pittsburgh-filmmaker-and-center-for-the-arts-creature-design-and-mask-making" x="6px" y="311px" width="158px" height="55px" />
      <rect id="the-andy-warhol-museum-online-weeeknd-factory" x="170px" y="311px" width="166px" height="55px" />
      <rect id="deviant-art-deviantart" x="342px" y="311px" width="163px" height="55px" />
      <rect id="the-andy-warhol-museum-andy-warhol---pop-portraits-and-selfies" x="511px" y="311px" width="231px" height="55px" />
      <rect id="tech-shop-steam003---textile-printing-and-sewing-" x="6px" y="372px" width="158px" height="94px" />
      <rect id="pittsburgh-filmmaker-and-center-for-the-arts-raku" x="342px" y="472px" width="163px" height="160px" />
      <rect id="society-for-contemporary-craft-contemporary-craft-blog" x="748px" y="311px" width="177px" height="55px" />
      <rect id="labs-at-carnegie-library-of-pittsburgh-fashion-design-workshops" x="511px" y="372px" width="76px" height="94px" />
      <rect id="pittsburgh-filmmaker-and-center-for-the-arts-the-shop" x="170px" y="372px" width="76px" height="94px" />
      <rect id="pittsburgh-filmmaker-and-center-for-the-arts-stained-glass" x="342px" y="372px" width="163px" height="94px" />
      <rect id="tek-start-the-beauty-of-stem-makers-institute" x="748px" y="372px" width="177px" height="94px" />
      <rect id="labs-at-carnegie-library-of-pittsburgh-open-lab" x="6px" y="472px" width="80px" height="160px" />
      <rect id="open-ideo-adding-visual-goodness-to-your-ideas-" x="748px" y="147px" width="177px" height="95px" />
      <rect id="colossal-colossal" x="252px" y="472px" width="84px" height="160px" />
      <rect id="carnegie-museums-of-art-and-natural-history-youth-museum-institute---exhibit-design-lab" x="593px" y="372px" width="76px" height="94px" />
      <rect id="evan-mirapaul-la-hutte-royal" x="675px" y="372px" width="67px" height="94px" />
      <rect id="mattress-factory-summer-art-cooperative" x="511px" y="472px" width="76px" height="160px" />
      <rect id="the-andy-warhol-museum-youth-open-studio" x="593px" y="472px" width="76px" height="160px" />
      <rect id="mattress-factory-community-art-lab" x="675px" y="472px" width="67px" height="160px" />
      <rect id="food-revolution-pittsburgh-cooking-club-at-harvest-and-create" x="748px" y="472px" width="177px" height="58px" />
      <rect id="mcg-youth-and-arts-pillows-galore" x="787px" y="573px" width="138px" height="59px" />
      <rect id="pittsburgh-center-for-creative-reuse-the-remaker-playshop---sew-mend-make" x="787px" y="536px" width="138px" height="31px" />
      <rect id="society-for-contemporary-craft-drop-in-studio" x="748px" y="536px" width="33px" height="96px" />
    </svg>

    <svg id="coding-gaming" x="1045" y="60" xmlns="http://www.w3.org/2000/svg">
      <rect id="id-tech-game-programming-for-apple-ios-and-android-with-unity" x="447px" y="210px" width="177px" height="62px" />
      <rect id="diyorg-minecrafter" x="82px" y="6px" width="146px" height="96px" />
      <rect id="brain-pop-digital-etiquette" x="234px" y="6px" width="70px" height="96px" />
      <rect id="remake-learning-digital-learning-tools" x="310px" y="6px" width="131px" height="96px" />
      <rect id="codeorg-20-hour-intro-course" x="630px" y="435px" width="101px" height="34px" />
      <rect id="codecademy-make-an-interactive-website" x="106px" y="449px" width="142px" height="28px" />
      <rect id="stem-advanced-technologies-for-kids-video-game-design" x="630px" y="6px" width="101px" height="96px" />
      <rect id="id-tech-intro-to-programming-with-scratch-and-javascript" x="254px" y="449px" width="50px" height="183px" />
      <rect id="codecademy-python" x="844px" y="6px" width="55px" height="96px" />
      <rect id="girl-develop-it-introduction-to-web-concepts" x="905px" y="6px" width="38px" height="96px" />
      <rect id="schell-games-gamesprout" x="6px" y="108px" width="70px" height="55px" />
      <rect id="lifelong-kindergarten-group-at-the-mit-media-lab-scratch" x="82px" y="108px" width="96px" height="55px" />
      <rect id="carnegie-science-center-click---spy-school" x="6px" y="169px" width="172px" height="55px" />
      <rect id="diyorg-set-up-a-virtual-machine-with-ubuntu-" x="310px" y="108px" width="131px" height="73px" />
      <rect id="p2pu-webmaking-101" x="523px" y="108px" width="101px" height="96px" />
      <rect id="codeorg-make-a-flappy-game" x="630px" y="108px" width="101px" height="67px" />
      <rect id="diyorg-design-a-body-game" x="737px" y="108px" width="101px" height="67px" />
      <rect id="neighborhood-learning-alliance-tech-warriors-training" x="844px" y="108px" width="99px" height="112px" />
      <rect id="grow-a-generation-mobile-app-development" x="184px" y="145px" width="120px" height="31px" />
      <rect id="webmaker-training-html-basics" x="523px" y="6px" width="101px" height="96px" />
      <rect id="girl-develop-it-html-intro" x="630px" y="181px" width="101px" height="110px" />
      <rect id="e-line-media-gamestar-mechanic" x="106px" y="483px" width="48px" height="149px" />
      <rect id="girl-develop-it-introduction-to-git-and-github" x="737px" y="239px" width="101px" height="52px" />
      <rect id="assemble-make-it" x="184px" y="182px" width="120px" height="42px" />
      <rect id="webmaker-tools-appmaker" x="310px" y="187px" width="131px" height="62px" />
      <rect id="mozilla-webmaker-x-ray-goggles" x="737px" y="430px" width="101px" height="202px" />
      <rect id="diyorg-gather-website-inspiration" x="6px" y="230px" width="94px" height="71px" />
      <rect id="carnegie-mellon-university-school-of-computer-science-leap-at-cmu" x="160px" y="483px" width="88px" height="48px" />
      <rect id="global-game-jam-2015-global-game-jam-games" x="6px" y="6px" width="70px" height="96px" />
      <rect id="id-tech-mobile-game-design-for-iphone-and-android" x="310px" y="255px" width="131px" height="46px" />
      <rect id="appshed-academy" x="184px" y="108px" width="120px" height="31px" />
      <rect id="institute-of-play-through-the-arcade" x="630px" y="297px" width="101px" height="44px" />
      <rect id="cs2n-rumbleblocks" x="737px" y="297px" width="101px" height="127px" />
      <rect id="brain-pop-digital-etiquette-quiz" x="6px" y="307px" width="94px" height="136px" />
      <rect id="microsoft-virtual-academy-hour-of-code-event-training" x="106px" y="307px" width="198px" height="71px" />
      <rect id="women-at-scs-school-of-computer-science---carnegie-mellon-university-creative-tech-nights" x="447px" y="108px" width="70px" height="96px" />
      <rect id="mozilla-webmaker-make-a-meme" x="371px" y="307px" width="70px" height="71px" />
      <rect id="diyorg-make-a-board-game" x="447px" y="278px" width="177px" height="63px" />
      <rect id="school-of-open-get-to-know-the-hackasaurus-xray-goggles" x="447px" y="347px" width="177px" height="82px" />
      <rect id="institute-of-play-gamekit-challenge-pack---the-basics" x="310px" y="307px" width="55px" height="71px" />
      <rect id="webmaker-training-building-on-the-web" x="844px" y="359px" width="99px" height="65px" />
      <rect id="codecademy-make-a-website" x="505px" y="435px" width="119px" height="34px" />
      <rect id="girl-develop-it-intermediate-html-and-css" x="310px" y="384px" width="131px" height="59px" />
      <rect id="tumblr-theme-garden" x="844px" y="226px" width="99px" height="127px" />
      <rect id="diyorg-make-a-pen-and-paper-game" x="447px" y="435px" width="52px" height="197px" />
      <rect id="tumblr-how-to-create-a-custom-html-theme" x="106px" y="384px" width="198px" height="59px" />
      <rect id="id-tech-java-programming" x="844px" y="430px" width="99px" height="58px" />
      <rect id="computer-science-education-week-thinkersmith-unplugged-hour-of-code-activity" x="6px" y="449px" width="94px" height="183px" />
      <rect id="made-w-code-watch-the-film" x="447px" y="6px" width="70px" height="96px" />
      <rect id="w3-schools-html5-tutorial" x="737px" y="6px" width="101px" height="96px" />
      <rect id="codeorg-code-combat" x="310px" y="449px" width="131px" height="72px" />
      <rect id="gamesalad-game-salad" x="505px" y="475px" width="119px" height="79px" />
      <rect id="webmaker-tools-thimble" x="630px" y="475px" width="101px" height="79px" />
      <rect id="girl-develop-it-web-accessibility" x="737px" y="181px" width="101px" height="52px" />
      <rect id="id-tech-adventures-in-minecraft-game-design" x="106px" y="230px" width="198px" height="71px" />
      <rect id="instructables-create-tumblr-account" x="844px" y="494px" width="99px" height="138px" />
      <rect id="codeorg-studio-activities" x="310px" y="527px" width="131px" height="105px" />
      <rect id="stem-advanced-technologies-for-kids-mobile-app-design" x="160px" y="537px" width="88px" height="95px" />
      <rect id="digital-media-academy-online-fundamentals-of-programming" x="505px" y="560px" width="119px" height="72px" />
      <rect id="the-jerome-bettis-bus-stops-here-foundation-the-cyber-bus-computer-engineering-program" x="630px" y="560px" width="101px" height="72px" />
      <rect id="carnegie-science-center--click---spy-mission" x="630px" y="347px" width="101px" height="82px" />
    </svg>

    <svg id="storytelling" x="60" y="752" xmlns="http://www.w3.org/2000/svg">
      <rect id="get-lit-get-lit-players" x="6px" y="6px" width="184px" height="65px" />
      <rect id="grow-a-generation-the-writings-of-neil-degrasse-tyson-and-michio-kaku" x="196px" y="6px" width="211px" height="65px" />
      <rect id="diy-tell-a-scary-story-" x="413px" y="6px" width="157px" height="65px" />
      <rect id="toonseum-create-your-own-comic-strip-" x="576px" y="6px" width="130px" height="65px" />
      <rect id="826-valencia-student-writing-gallery" x="712px" y="6px" width="130px" height="65px" />
      <rect id="studio-360-funny-ha-ha---the-high-school-humor-challenge" x="848px" y="6px" width="77px" height="203px" />
      <rect id="the-moth-the-moth-video" x="6px" y="77px" width="184px" height="85px" />
      <rect id="the-western-pa-writing-project-scholastic-writing-awards" x="196px" y="77px" width="211px" height="65px" />
      <rect id="the-creativity-hub-story-cubes" x="413px" y="77px" width="157px" height="65px" />
      <rect id="labs-at-carnegie-library-of-pittsburgh-the-labsy-awards" x="576px" y="77px" width="130px" height="65px" />
      <rect id="luminari-fantastic-fiction-writing---4-day-summer-camp-for-teens-" x="72px" y="222px" width="118px" height="128px" />
      <rect id="wilkinsburg-public-library-unmask---summer-reading-challenge" x="413px" y="148px" width="157px" height="86px" />
      <rect id="neighborhood-learning-alliance-reading-warriors" x="576px" y="148px" width="130px" height="86px" />
      <rect id="hear-me-hear-me-stories" x="712px" y="148px" width="130px" height="86px" />
      <rect id="toonseum-summer-saturdays-superhero-workshop" x="6px" y="168px" width="184px" height="48px" />
      <rect id="the-western-pa-writing-project-young-writers-institutes" x="848px" y="215px" width="77px" height="94px" />
      <rect id="carnegie-museums-of-art-and-natural-history-comics-and-cartoons" x="6px" y="222px" width="60px" height="244px" />
      <rect id="the-carnegie-library-of-pittsburgh-the-labs-at-clp-allegheny---slb-radio-series" x="196px" y="148px" width="211px" height="86px" />
      <rect id="alpha-science-fiction-fantasy-horror-workshop-for-young-writers-alpha-science-fiction-fantasy-horror-workshop-for-young-writers" x="196px" y="240px" width="119px" height="110px" />
      <rect id="scholastic-art-and-writing-awards-scholastic-art-and-writing-awards" x="321px" y="240px" width="86px" height="110px" />
      <rect id="inkle-studios-inklewriter" x="413px" y="240px" width="157px" height="110px" />
      <rect id="carnegie-mellon-university-department-of-english-the-martin-luther-king-junior-writing-awards" x="848px" y="315px" width="77px" height="35px" />
      <rect id="the-carnegie-library-of-pittsburgh-teen-summer-reading" x="576px" y="240px" width="130px" height="110px" />
      <rect id="grow-a-generation-crafting-a-science-fiction-short-story" x="712px" y="240px" width="130px" height="110px" />
      <rect id="the-creativity-hub-extraordinaires" x="712px" y="77px" width="130px" height="65px" />
      <rect id="inkle-studios-80-days" x="196px" y="356px" width="119px" height="40px" />
      <rect id="diy-write-a-choose-your-own-adventure" x="72px" y="356px" width="118px" height="110px" />
      <rect id="hear-me-hear-me-101-internship-program" x="321px" y="356px" width="86px" height="40px" />
      <rect id="heinz-history-center-pittsburgh-history-detectives" x="413px" y="356px" width="157px" height="110px" />
      <rect id="the-creativity-hub-story-cubes-app" x="576px" y="356px" width="130px" height="110px" />
      <rect id="figment-the-daily-fig" x="712px" y="356px" width="130px" height="110px" />
      <rect id="city-of-asylum-city-of-asylum-events" x="848px" y="356px" width="77px" height="110px" />
      <rect id="pittsburgh-public-schools-literary-arts-department-at-capa" x="196px" y="402px" width="119px" height="64px" />
      <rect id="pittsburgh-poetry-collective-young-steel" x="321px" y="402px" width="86px" height="64px" />
    </svg>

    <svg id="food-gardening" x="1045" y="752" xmlns="http://www.w3.org/2000/svg">
      <rect id="saint-paul-episcopal-church-mission-trip" x="6px" y="6px" width="96px" height="38px" />
      <rect id="take-part-place-at-the-table" x="496px" y="6px" width="36px" height="137px" />
      <rect id="diy-diy-gardener" x="213px" y="6px" width="99px" height="137px" />
      <rect id="phipps-conservatory-homegrown-hero-badge-resources-" x="318px" y="6px" width="99px" height="137px" />
      <rect id="food-revolution-day-recipes" x="108px" y="198px" width="99px" height="68px" />
      <rect id="webmd-and-whitehouse-webmd-town-hall" x="108px" y="6px" width="99px" height="137px" />
      <rect id="fox-master-chef-jr" x="538px" y="6px" width="68px" height="137px" />
      <rect id="food-n-me-smash-your-food" x="612px" y="6px" width="68px" height="137px" />
      <rect id="pa-summer-food-service-program-summer-food-service-" x="686px" y="6px" width="99px" height="137px" />
      <rect id="wilkinsburg-public-library-unmask-super-snacks" x="791px" y="6px" width="36px" height="137px" />
      <rect id="phipps-conservatory-phipps-cafe" x="833px" y="6px" width="110px" height="46px" />
      <rect id="food-revolution-pittsburgh-cooking-club-at-summer-dreamers" x="6px" y="50px" width="96px" height="142px" />
      <rect id="food-n-me-various-activities" x="833px" y="58px" width="110px" height="85px" />
      <rect id="food-revolution-pittsburgh-cooking-club" x="108px" y="149px" width="99px" height="43px" />
      <rect id="carnegie-library-of-pittsburgh-cooking-for-teens-" x="213px" y="149px" width="99px" height="140px" />
      <rect id="foraging-pittsburgh-wild-food-walks" x="318px" y="149px" width="99px" height="140px" />
      <rect id="fit-webmd-fit-webmd-handbook" x="423px" y="149px" width="67px" height="140px" />
      <rect id="usda-choose-my-plate-teen-boys" x="496px" y="149px" width="36px" height="140px" />
      <rect id="usda-choose-my-plate-teen-girls" x="538px" y="149px" width="68px" height="140px" />
      <rect id="food-revolution-pittsburgh-cooking-demos" x="496px" y="352px" width="36px" height="114px" />
      <rect id="winter-root-wild-edibles-app" x="612px" y="149px" width="68px" height="140px" />
      <rect id="food-revolution-pittsburgh-cooking-club-at-harvest-and-create" x="6px" y="198px" width="96px" height="68px" />
      <rect id="eat-local-challenge-10-reasons-to-eat-local-food" x="791px" y="149px" width="36px" height="140px" />
      <rect id="slow-foods-youth-network-slow-food-youth-network-eat-the-future-you-want" x="833px" y="149px" width="110px" height="140px" />
      <rect id="the-white-house-lets-move-kids" x="791px" y="376px" width="152px" height="90px" />
      <rect id="fda-read-the-label-youth-outreach-campaign-" x="423px" y="6px" width="67px" height="137px" />
      <rect id="grow-pittsburgh-start-a-garden" x="6px" y="272px" width="96px" height="194px" />
      <rect id="cooking-with-rockstars-cooking-with-rockstars" x="108px" y="272px" width="99px" height="194px" />
      <rect id="saint-paul-episcopal-church-saint-francis-garden" x="213px" y="295px" width="99px" height="171px" />
      <rect id="slow-foods-origins-of-taste" x="318px" y="295px" width="41px" height="171px" />
      <rect id="falling-fruit-mapping-the-urban-harvest" x="365px" y="295px" width="52px" height="171px" />
      <rect id="no-kid-hungry-no-kid-hungry-summer-" x="423px" y="295px" width="67px" height="51px" />
      <rect id="center-for-disease--control-bam-body-and-mind" x="496px" y="295px" width="36px" height="51px" />
      <rect id="sam-stern-light-meals-and-snacks" x="538px" y="295px" width="68px" height="171px" />
      <rect id="wild-purveyors-tour-of-store" x="612px" y="295px" width="68px" height="75px" />
      <rect id="fit-webmd-fit-webmd-teen" x="686px" y="295px" width="99px" height="75px" />
      <rect id="healcrest-farm-farm-fresh-icepops" x="791px" y="295px" width="152px" height="75px" />
      <rect id="teen-observer-alice-waters-article" x="423px" y="352px" width="67px" height="114px" />
      <rect id="local-harvest-local-farmers-markets" x="686px" y="149px" width="99px" height="140px" />
      <rect id="phipps-conservatory-homegrown-challenges" x="612px" y="376px" width="68px" height="90px" />
      <rect id="phipps-conservatory-12-month-gardening-tips" x="686px" y="376px" width="99px" height="90px" />
    </svg>

    <svg id="robotics" x="60" y="1278" xmlns="http://www.w3.org/2000/svg">
      <rect id="carnegie-science-center-roboworld" x="161px" y="508px" width="93px" height="202px" />
      <rect id="carnegie-mellon-robotics-academy-cs2n" x="262px" y="6px" width="122px" height="70px" />
      <rect id="girls-of-steel-robotics-the-girls-of-steel-robotics" x="390px" y="6px" width="293px" height="70px" />
      <rect id="super-awesome-sylvia-watercolorbot" x="777px" y="113px" width="148px" height="104px" />
      <rect id="carnegie-mellon-robotics-academy-robots-virtual-world" x="6px" y="82px" width="248px" height="58px" />
      <rect id="robocup-manuela-veloso---robocup-champion" x="260px" y="82px" width="124px" height="219px" />
      <rect id="greene-academy-ev3-lego-robotics" x="390px" y="82px" width="109px" height="219px" />
      <rect id="carnegie-mellon-robotics-academy-expedition-atlantis-" x="505px" y="82px" width="178px" height="135px" />
      <rect id="walt-disney-animation-studios-big-hero-6" x="689px" y="113px" width="82px" height="104px" />
      <rect id="lifelong-kindergarten-group-at-the-mit-media-lab-scratch" x="689px" y="6px" width="236px" height="101px" />
      <rect id="carnegie-mellon-university--cookie-vs-creme---a-robotic-twist" x="6px" y="146px" width="248px" height="58px" />
      <rect id="pittsburgh-first-get-involved" x="6px" y="210px" width="248px" height="58px" />
      <rect id="carnegie-science-center-chain-reaction-contraption-contest" x="505px" y="223px" width="178px" height="47px" />
      <rect id="diy-make-a-rube-goldberg-machine" x="505px" y="543px" width="178px" height="167px" />
      <rect id="greene-academy-advanced-robotics" x="260px" y="407px" width="124px" height="303px" />
      <rect id="carnegie-mellon-create-lab-hummingbird-robotics-kit" x="6px" y="274px" width="248px" height="70px" />
      <rect id="carnegie-library-of-pittsburgh-weekly-workshop-at-clp---allegheny" x="505px" y="276px" width="178px" height="82px" />
      <rect id="grow-a-generation-audacious-robotocists" x="260px" y="307px" width="124px" height="94px" />
      <rect id="christopher-atkeson-build-baymax" x="390px" y="307px" width="109px" height="94px" />
      <rect id="carnegie-science-center-roboworld-activities" x="6px" y="350px" width="248px" height="71px" />
      <rect id="sarah-heinz-house-join-sharp" x="505px" y="364px" width="178px" height="173px" />
      <rect id="assemble-summer-dreamers" x="689px" y="371px" width="236px" height="166px" />
      <rect id="wilkinsburg-public-library-unmask---bristle-bot-racers" x="777px" y="223px" width="148px" height="142px" />
      <rect id="synn-labs-music-video-with-rube-goldberg-" x="390px" y="407px" width="109px" height="96px" />
      <rect id="id-tech-java-programming" x="6px" y="427px" width="248px" height="75px" />
      <rect id="deep-local-nike-chalkbot" x="6px" y="508px" width="79px" height="202px" />
      <rect id="carnegie-mellon-university-rumbleblocks-" x="91px" y="508px" width="64px" height="202px" />
      <rect id="id-tech-intro-to-programming-with-scratch-and-javascript" x="6px" y="6px" width="250px" height="70px" />
      <rect id="carnegie-mellon-robotics-academy-robotc" x="390px" y="509px" width="109px" height="201px" />
      <rect id="carnegie-mellon-university-school-of-computer-science-leap-at-cmu" x="689px" y="223px" width="82px" height="142px" />
      <rect id="carnegie-library-of-pittsburgh-the-labs-at-clp---main---robotics-workshop-with-girls-of-steel" x="689px" y="543px" width="58px" height="167px" />
      <rect id="digital-media-academy-online-fundamentals-of-programming" x="753px" y="543px" width="172px" height="41px" />
      <rect id="grow-a-generation-engineering-your-passion" x="753px" y="590px" width="172px" height="120px" />
    </svg>

    <svg id="mediamaking" x="1045" y="1278" xmlns="http://www.w3.org/2000/svg">
      <rect id="mcg-youth-and-arts-the-wide-world-of-photo" x="6px" y="6px" width="84px" height="146px" />
      <rect id="mcg-youth-and-arts-electric-avenue" x="96px" y="6px" width="34px" height="146px" />
      <rect id="pf-and-pca-filmmakers-youth-media-graphic-design" x="136px" y="6px" width="74px" height="146px" />
      <rect id="pf-and-pca-filmmakers-youth-media-cryptozoology" x="216px" y="6px" width="79px" height="48px" />
      <rect id="diy-org-reenact-a-scene" x="301px" y="6px" width="132px" height="93px" />
      <rect id="pf-and-pca-filmmakers-youth-media-handmade-filmmaking-at-pf" x="216px" y="60px" width="79px" height="92px" />
      <rect id="mcg-youth-and-arts-photography" x="301px" y="105px" width="132px" height="94px" />
      <rect id="vimeo-directing-101" x="6px" y="158px" width="84px" height="113px" />
      <rect id="labs-at-carnegie-library-of-pittsburgh-clp-teens-tumblr" x="96px" y="158px" width="114px" height="113px" />
      <rect id="pf-and-pca-filmmakers-youth-media-foundations-of-photography" x="216px" y="158px" width="79px" height="113px" />
      <rect id="pf-and-pca-filmmakers-youth-media-directors-workshop" x="301px" y="205px" width="58px" height="66px" />
      <rect id="wyep-radio-tour" x="365px" y="205px" width="68px" height="161px" />
      <rect id="diy-org-make-trick-photography-" x="6px" y="277px" width="84px" height="62px" />
      <rect id="pf-and-pca-filmmakers-youth-media-photography-at-pf" x="96px" y="277px" width="263px" height="62px" />
      <rect id="white-house-the-white-house--students-film-festival" x="6px" y="345px" width="84px" height="78px" />
      <rect id="madmagz-make-your-own-magazine" x="96px" y="345px" width="103px" height="78px" />
      <rect id="diy-org-film-a-spoof-video" x="205px" y="345px" width="154px" height="78px" />
      <rect id="jenesis-magazine-online-youth-lifestyle-publication-based-in-pittsburgh" x="365px" y="372px" width="68px" height="51px" />
      <rect id="diy-org-create-a-book-trailer" x="6px" y="429px" width="193px" height="47px" />
      <rect id="pf-and-pca-filmmakers-youth-media-foundations-of-filmmaking" x="205px" y="429px" width="80px" height="47px" />
      <rect id="labs-at-carnegie-library-of-pittsburgh-open-lab" x="291px" y="429px" width="142px" height="47px" />
      <rect id="teen-ink-teen-ink-video" x="6px" y="482px" width="64px" height="228px" />
      <rect id="diy-org-build-a-photo-studio" x="76px" y="482px" width="123px" height="32px" />
      <rect id="wyep-rock-radio-camp" x="205px" y="482px" width="80px" height="228px" />
      <rect id="starz-the-chair" x="291px" y="482px" width="142px" height="74px" />
      <rect id="the-criterion-collection-criterion-collection-top-10s" x="76px" y="520px" width="62px" height="190px" />
      <rect id="interview-magazine-andy-warhol-magazine--interview-" x="144px" y="520px" width="55px" height="93px" />
      <rect id="steeltown-entertainment-youth-and-media" x="291px" y="562px" width="43px" height="148px" />
      <rect id="carnegie-science-center-digital-video-smash-jam-two-day-workshop" x="340px" y="562px" width="93px" height="148px" />
      <rect id="carnegie-science-center-i5-video-competition" x="144px" y="619px" width="55px" height="91px" />
    </svg>

    <svg id="building-making" x="1538" y="1278" xmlns="http://www.w3.org/2000/svg">
      <rect id="childrens-museum-of-pittsburgh-makeshop" x="6px" y="6px" width="32px" height="120px" />
      <rect id="assemble-unblurred" x="44px" y="6px" width="121px" height="120px" />
      <rect id="assemble-m3---materials-media-and-me" x="171px" y="6px" width="83px" height="120px" />
      <rect id="diy-sketch-a-real-building-" x="260px" y="6px" width="70px" height="120px" />
      <rect id="maker-media-make-magazine" x="336px" y="6px" width="114px" height="34px" />
      <rect id="millvale-community-library-maker-thursdays" x="336px" y="46px" width="114px" height="80px" />
      <rect id="assemble-learning-parties" x="6px" y="132px" width="159px" height="91px" />
      <rect id="assemble-youth-maker-night" x="171px" y="132px" width="159px" height="91px" />
      <rect id="childrens-museum-of-pittsburgh-the-makeshop-show" x="336px" y="132px" width="114px" height="91px" />
      <rect id="maker-faire--visit-maker-faire-pittsburgh" x="6px" y="229px" width="159px" height="42px" />
      <rect id="built-by-kids-activities" x="171px" y="229px" width="159px" height="42px" />
      <rect id="diy-lego-master" x="336px" y="229px" width="114px" height="88px" />
      <rect id="assemble-teens-as-teachers" x="6px" y="277px" width="159px" height="43px" />
      <rect id="diy-minecrafter" x="171px" y="277px" width="159px" height="43px" />
      <rect id="diy-make-a-rube-goldberg-machine-" x="336px" y="323px" width="114px" height="88px" />
      <rect id="pbs-kids-pbs-design-squad---build" x="6px" y="326px" width="159px" height="52px" />
      <rect id="tech-shop-visit-tech-shop" x="171px" y="326px" width="159px" height="52px" />
      <rect id="northern-tier-regional-library-cube-head-superheroes" x="6px" y="384px" width="159px" height="42px" />
      <rect id="lego-lego-sets" x="171px" y="384px" width="159px" height="42px" />
      <rect id="slamacow-minecraft-leaking-into-the-real-world---minecraft-animation" x="336px" y="417px" width="114px" height="107px" />
      <rect id="carnegie-science-center-fab-lab" x="6px" y="432px" width="159px" height="45px" />
      <rect id="instructables-build-something" x="171px" y="432px" width="159px" height="45px" />
      <rect id="hack-pittsburgh-visit-hackpittsburgh" x="6px" y="483px" width="159px" height="57px" />
      <rect id="super-awesome-sylvia-show-super-awesome-sylvia---episodes" x="171px" y="483px" width="159px" height="57px" />
      <rect id="pbs-kids-pbs-design-squad---watch" x="336px" y="530px" width="114px" height="180px" />
      <rect id="gtech-strategies-412-build" x="6px" y="546px" width="60px" height="164px" />
      <rect id="assemble-saturday-crafternoons-" x="72px" y="546px" width="93px" height="42px" />
      <rect id="assemble-assemble-afterschool" x="171px" y="546px" width="159px" height="42px" />
      <rect id="ted-talks-life-lessons-through-tinkering" x="72px" y="594px" width="93px" height="116px" />
      <rect id="pittsburgh-center-for-creative-reuse-the-remaker-playshop---sew-mend-make" x="171px" y="594px" width="54px" height="116px" />
      <rect id="society-for-contemporary-craft-drop-in-studio" x="231px" y="594px" width="99px" height="116px" />
    </svg>

  </g>
</svg>
