<svg width="2898px" height="2898px" xmlns="http://www.w3.org/2000/svg">
  <g transform="translate(425.0 425.0) rotate(45 1024.0 1024.0)">
    <svg id="robotics" x="60" y="60" xmlns="http://www.w3.org/2000/svg">
      <rect id="carnegie-mellon-robotics-academy-cs2n" x="6px" y="6px" width="36px" height="124px" />
      <rect id="girls-of-steel-robotics-the-girls-of-steel-robotics" x="538px" y="136px" width="134px" height="77px" />
      <rect id="digital-media-academy-online-fundamentals-of-programming" x="678px" y="136px" width="173px" height="77px" />
      <rect id="lifelong-kindergarten-group-at-the-mit-media-lab-scratch" x="104px" y="6px" width="50px" height="124px" />
      <rect id="carnegie-mellon-university-rumbleblocks-" x="456px" y="308px" width="76px" height="142px" />
      <rect id="greene-academy-ev3-lego-robotics" x="160px" y="219px" width="204px" height="83px" />
      <rect id="wilkinsburg-public-library-unmask---bristle-bot-racers" x="160px" y="136px" width="204px" height="77px" />
      <rect id="carnegie-mellon-university-school-of-computer-science-leap-at-cmu" x="370px" y="6px" width="78px" height="124px" />
      <rect id="super-awesome-sylvia-watercolorbot" x="48px" y="6px" width="50px" height="124px" />
      <rect id="carnegie-science-center-roboworld-activities" x="622px" y="6px" width="50px" height="124px" />
      <rect id="carnegie-library-of-pittsburgh-the-labs-at-clp---main---robotics-workshop-with-girls-of-steel" x="241px" y="308px" width="123px" height="142px" />
      <rect id="synn-labs-music-video-with-rube-goldberg-" x="678px" y="263px" width="173px" height="39px" />
      <rect id="deep-local-nike-chalkbot" x="748px" y="6px" width="103px" height="124px" />
      <rect id="grow-a-generation-engineering-your-passion" x="538px" y="308px" width="134px" height="142px" />
      <rect id="sarah-heinz-house-join-sharp" x="678px" y="6px" width="64px" height="124px" />
      <rect id="sarah-heinz-house-join-sharp" x="370px" y="219px" width="162px" height="38px" />
      <rect id="robocup-manuela-veloso---robocup-champion" x="6px" y="136px" width="148px" height="77px" />
      <rect id="id-tech-intro-to-programming-with-scratch-and-javascript" x="370px" y="308px" width="80px" height="142px" />
      <rect id="carnegie-science-center-roboworld" x="76px" y="219px" width="78px" height="83px" />
      <rect id="diy-make-a-rube-goldberg-machine" x="678px" y="308px" width="53px" height="142px" />
      <rect id="carnegie-mellon-robotics-academy-robotc" x="258px" y="6px" width="106px" height="124px" />
      <rect id="grow-a-generation-engineering-your-passion" x="6px" y="219px" width="64px" height="231px" />
      <rect id="carnegie-mellon-robotics-academy-robots-virtual-world" x="160px" y="308px" width="75px" height="142px" />
      <rect id="carnegie-mellon-robotics-academy-expedition-atlantis-" x="454px" y="6px" width="78px" height="124px" />
      <rect id="grow-a-generation-audacious-robotocists" x="76px" y="308px" width="78px" height="142px" />
      <rect id="super-awesome-sylvia-watercolorbot" x="538px" y="219px" width="134px" height="38px" />
      <rect id="greene-academy-advanced-robotics" x="538px" y="6px" width="78px" height="124px" />
      <rect id="carnegie-mellon-create-lab-hummingbird-robotics-kit" x="538px" y="263px" width="134px" height="39px" />
      <rect id="pittsburgh-first-get-involved" x="160px" y="6px" width="92px" height="124px" />
      <rect id="carnegie-mellon-university--cookie-vs-creme---a-robotic-twist" x="370px" y="263px" width="162px" height="39px" />
      <rect id="carnegie-mellon-robotics-academy-robotc" x="678px" y="219px" width="173px" height="38px" />
      <rect id="id-tech-java-programming" x="370px" y="136px" width="162px" height="77px" />
      <rect id="carnegie-science-center-chain-reaction-contraption-contest" x="737px" y="308px" width="114px" height="142px" />
    </svg>

    <svg id="food-gardening" x="971" y="60" xmlns="http://www.w3.org/2000/svg">
      <rect id="grow-pittsburgh-start-a-garden" x="773px" y="147px" width="244px" height="54px" />
      <rect id="phipps-conservatory-12-month-gardening-tips" x="188px" y="6px" width="33px" height="135px" />
      <rect id="phipps-conservatory-homegrown-hero-badge-resources-" x="227px" y="6px" width="33px" height="135px" />
      <rect id="no-kid-hungry-no-kid-hungry-summer-" x="370px" y="6px" width="59px" height="135px" />
      <rect id="food-n-me-smash-your-food" x="435px" y="6px" width="98px" height="135px" />
      <rect id="food-revolution-pittsburgh-cooking-club" x="617px" y="147px" width="150px" height="54px" />
      <rect id="slow-foods-origins-of-taste" x="539px" y="6px" width="72px" height="135px" />
      <rect id="food-n-me-various-activities" x="6px" y="268px" width="128px" height="37px" />
      <rect id="wild-purveyors-tour-of-store" x="6px" y="207px" width="176px" height="55px" />
      <rect id="saint-paul-episcopal-church-mission-trip" x="408px" y="345px" width="48px" height="134px" />
      <rect id="wilkinsburg-public-library-unmask-super-snacks" x="241px" y="268px" width="94px" height="71px" />
      <rect id="cooking-with-rockstars-cooking-with-rockstars" x="6px" y="311px" width="128px" height="34px" />
      <rect id="local-harvest-local-farmers-markets" x="773px" y="6px" width="112px" height="135px" />
      <rect id="diy-diy-gardener" x="891px" y="6px" width="126px" height="135px" />
      <rect id="food-n-me-various-activities" x="848px" y="404px" width="169px" height="75px" />
      <rect id="foraging-pittsburgh-wild-food-walks" x="6px" y="147px" width="176px" height="54px" />
      <rect id="carnegie-library-of-pittsburgh-cooking-for-teens-" x="341px" y="207px" width="88px" height="55px" />
      <rect id="fox-master-chef-jr" x="6px" y="388px" width="128px" height="91px" />
      <rect id="winter-root-wild-edibles-app" x="241px" y="345px" width="94px" height="134px" />
      <rect id="healcrest-farm-farm-fresh-icepops" x="6px" y="6px" width="111px" height="135px" />
      <rect id="phipps-conservatory-phipps-cafe" x="123px" y="6px" width="59px" height="135px" />
      <rect id="saint-paul-episcopal-church-saint-francis-garden" x="529px" y="345px" width="82px" height="134px" />
      <rect id="eat-local-challenge-10-reasons-to-eat-local-food" x="266px" y="6px" width="98px" height="135px" />
      <rect id="falling-fruit-mapping-the-urban-harvest" x="773px" y="268px" width="244px" height="71px" />
      <rect id="winter-root-wild-edibles-app" x="188px" y="207px" width="147px" height="55px" />
      <rect id="food-revolution-pittsburgh-cooking-club-at-harvest-and-create" x="773px" y="345px" width="244px" height="53px" />
      <rect id="phipps-conservatory-phipps-cafe" x="617px" y="6px" width="33px" height="135px" />
      <rect id="sam-stern-light-meals-and-snacks" x="656px" y="6px" width="111px" height="135px" />
      <rect id="webmd-and-whitehouse-webmd-town-hall" x="773px" y="404px" width="69px" height="75px" />
      <rect id="food-revolution-pittsburgh-cooking-demos" x="341px" y="268px" width="270px" height="71px" />
      <rect id="saint-paul-episcopal-church-mission-trip" x="462px" y="345px" width="61px" height="134px" />
      <rect id="food-n-me-smash-your-food" x="435px" y="207px" width="176px" height="55px" />
      <rect id="food-revolution-pittsburgh-cooking-club-at-summer-dreamers" x="617px" y="345px" width="150px" height="134px" />
      <rect id="teen-observer-alice-waters-article" x="617px" y="207px" width="150px" height="55px" />
      <rect id="slow-foods-youth-network-slow-food-youth-network-eat-the-future-you-want" x="773px" y="207px" width="244px" height="55px" />
      <rect id="falling-fruit-mapping-the-urban-harvest" x="6px" y="351px" width="128px" height="31px" />
      <rect id="take-part-place-at-the-table" x="188px" y="147px" width="241px" height="54px" />
      <rect id="food-revolution-day-recipes" x="341px" y="345px" width="61px" height="134px" />
      <rect id="phipps-conservatory-homegrown-challenges" x="140px" y="268px" width="42px" height="211px" />
      <rect id="food-n-me-various-activities" x="617px" y="268px" width="150px" height="71px" />
      <rect id="pa-summer-food-service-program-summer-food-service-" x="188px" y="268px" width="47px" height="211px" />
    </svg>

    <svg id="coding-gaming" x="60" y="570" xmlns="http://www.w3.org/2000/svg">
      <rect id="girl-develop-it-introduction-to-git-and-github" x="6px" y="6px" width="32px" height="138px" />
      <rect id="institute-of-play-gamekit-challenge-pack---the-basics" x="348px" y="6px" width="57px" height="138px" />
      <rect id="cs2n-rumbleblocks" x="166px" y="597px" width="75px" height="236px" />
      <rect id="grow-a-generation-mobile-app-development" x="411px" y="6px" width="121px" height="138px" />
      <rect id="mozilla-webmaker-make-a-meme" x="247px" y="397px" width="95px" height="67px" />
      <rect id="global-game-jam-2015-global-game-jam-games" x="247px" y="597px" width="127px" height="82px" />
      <rect id="codeorg-code-combat" x="716px" y="6px" width="135px" height="33px" />
      <rect id="made-w-code-watch-the-film" x="716px" y="45px" width="64px" height="99px" />
      <rect id="grow-a-generation-mobile-app-development" x="158px" y="270px" width="83px" height="67px" />
      <rect id="codecademy-python" x="380px" y="685px" width="152px" height="61px" />
      <rect id="diyorg-design-a-body-game" x="6px" y="535px" width="181px" height="56px" />
      <rect id="neighborhood-learning-alliance-tech-warriors-training" x="411px" y="150px" width="121px" height="82px" />
      <rect id="institute-of-play-gamekit-challenge-pack---the-basics" x="538px" y="150px" width="172px" height="82px" />
      <rect id="appshed-academy" x="716px" y="518px" width="135px" height="80px" />
      <rect id="carnegie-mellon-university-school-of-computer-science-leap-at-cmu" x="348px" y="150px" width="57px" height="82px" />
      <rect id="remake-learning-digital-learning-tools" x="44px" y="6px" width="108px" height="138px" />
      <rect id="id-tech-adventures-in-minecraft-game-design" x="716px" y="389px" width="135px" height="47px" />
      <rect id="carnegie-science-center-click---spy-school" x="348px" y="356px" width="184px" height="35px" />
      <rect id="schell-games-gamesprout" x="247px" y="343px" width="95px" height="48px" />
      <rect id="id-tech-java-programming" x="6px" y="397px" width="235px" height="67px" />
      <rect id="webmaker-tools-appmaker" x="538px" y="6px" width="83px" height="138px" />
      <rect id="id-tech-intro-to-programming-with-scratch-and-javascript" x="786px" y="45px" width="65px" height="123px" />
      <rect id="e-line-media-gamestar-mechanic" x="538px" y="238px" width="73px" height="112px" />
      <rect id="the-jerome-bettis-bus-stops-here-foundation-the-cyber-bus-computer-engineering-program" x="538px" y="442px" width="172px" height="70px" />
      <rect id="diyorg-make-a-pen-and-paper-game" x="716px" y="442px" width="135px" height="70px" />
      <rect id="diyorg-make-a-board-game" x="627px" y="6px" width="83px" height="138px" />
      <rect id="e-line-media-gamestar-mechanic" x="6px" y="470px" width="235px" height="59px" />
      <rect id="diyorg-minecrafter" x="538px" y="518px" width="172px" height="80px" />
      <rect id="id-tech-mobile-game-design-for-iphone-and-android" x="285px" y="6px" width="57px" height="138px" />
      <rect id="brain-pop-digital-etiquette-quiz" x="617px" y="238px" width="41px" height="112px" />
      <rect id="institute-of-play-through-the-arcade" x="6px" y="270px" width="146px" height="67px" />
      <rect id="codeorg-make-a-flappy-game" x="6px" y="633px" width="154px" height="200px" />
      <rect id="microsoft-virtual-academy-hour-of-code-event-training" x="380px" y="785px" width="152px" height="48px" />
      <rect id="codeorg-20-hour-intro-course" x="380px" y="597px" width="152px" height="82px" />
      <rect id="tumblr-how-to-create-a-custom-html-theme" x="538px" y="356px" width="172px" height="80px" />
      <rect id="carnegie-science-center--click---spy-mission" x="538px" y="604px" width="172px" height="75px" />
      <rect id="carnegie-science-center--click---spy-mission" x="247px" y="270px" width="95px" height="67px" />
      <rect id="schell-games-gamesprout" x="411px" y="238px" width="57px" height="112px" />
      <rect id="institute-of-play-through-the-arcade" x="348px" y="397px" width="184px" height="67px" />
      <rect id="lifelong-kindergarten-group-at-the-mit-media-lab-scratch" x="538px" y="685px" width="172px" height="148px" />
      <rect id="computer-science-education-week-thinkersmith-unplugged-hour-of-code-activity" x="247px" y="150px" width="95px" height="114px" />
      <rect id="stem-advanced-technologies-for-kids-mobile-app-design" x="158px" y="6px" width="83px" height="138px" />
      <rect id="diyorg-design-a-body-game" x="247px" y="470px" width="285px" height="59px" />
      <rect id="codeorg-studio-activities" x="247px" y="752px" width="127px" height="27px" />
      <rect id="carnegie-mellon-university-school-of-computer-science-leap-at-cmu" x="786px" y="174px" width="65px" height="209px" />
      <rect id="girl-develop-it-introduction-to-web-concepts" x="716px" y="150px" width="64px" height="233px" />
      <rect id="id-tech-game-programming-for-apple-ios-and-android-with-unity" x="193px" y="535px" width="48px" height="56px" />
      <rect id="digital-media-academy-online-fundamentals-of-programming" x="380px" y="752px" width="152px" height="27px" />
      <rect id="women-at-scs-school-of-computer-science---carnegie-mellon-university-creative-tech-nights" x="247px" y="6px" width="32px" height="138px" />
      <rect id="carnegie-science-center-click---spy-school" x="247px" y="785px" width="127px" height="48px" />
      <rect id="diyorg-set-up-a-virtual-machine-with-ubuntu-" x="247px" y="535px" width="285px" height="56px" />
      <rect id="codeorg-make-a-flappy-game" x="6px" y="343px" width="235px" height="48px" />
      <rect id="remake-learning-digital-learning-tools" x="6px" y="597px" width="154px" height="30px" />
      <rect id="school-of-open-get-to-know-the-hackasaurus-xray-goggles" x="716px" y="604px" width="135px" height="75px" />
      <rect id="brain-pop-digital-etiquette" x="247px" y="685px" width="127px" height="61px" />
      <rect id="global-game-jam-2015-global-game-jam-games" x="716px" y="685px" width="135px" height="148px" />
      <rect id="diyorg-make-a-board-game" x="6px" y="150px" width="146px" height="114px" />
      <rect id="stem-advanced-technologies-for-kids-video-game-design" x="474px" y="238px" width="58px" height="112px" />
      <rect id="gamesalad-game-salad" x="158px" y="150px" width="83px" height="114px" />
      <rect id="id-tech-intro-to-programming-with-scratch-and-javascript" x="664px" y="238px" width="46px" height="112px" />
      <rect id="cs2n-rumbleblocks" x="348px" y="238px" width="57px" height="112px" />
    </svg>

    <svg id="art-design" x="971" y="599" xmlns="http://www.w3.org/2000/svg">
      <rect id="mcg-youth-and-arts-pillows-galore" x="380px" y="199px" width="98px" height="86px" />
      <rect id="diy-sketch-a-real-building-" x="339px" y="63px" width="37px" height="79px" />
      <rect id="pittsburgh-filmmaker-and-center-for-the-arts-manipulating-metals" x="67px" y="671px" width="106px" height="133px" />
      <rect id="pittsburgh-filmmaker-and-center-for-the-arts-high-fire-ceramics" x="266px" y="63px" width="67px" height="79px" />
      <rect id="colossal-colossal" x="116px" y="398px" width="57px" height="52px" />
      <rect id="carnegie-museums-of-art-and-natural-history-sketchbook" x="266px" y="398px" width="108px" height="52px" />
      <rect id="tek-start-the-beauty-of-stem-makers-institute" x="266px" y="199px" width="67px" height="86px" />
      <rect id="carnegie-museums-of-art--interact" x="6px" y="236px" width="104px" height="51px" />
      <rect id="society-for-contemporary-craft-contemporary-craft-blog" x="116px" y="236px" width="57px" height="156px" />
      <rect id="carnegie-museums-of-art-and-natural-history-drawing-people" x="6px" y="384px" width="104px" height="66px" />
      <rect id="mattress-factory-summer-art-cooperative" x="179px" y="6px" width="81px" height="136px" />
      <rect id="carnegie-museums-of-art-and-natural-history-dream-house---sketch-to-structure" x="6px" y="6px" width="81px" height="136px" />
      <rect id="carnegie-museums-of-art-and-natural-history-city-explorers---urban-designers" x="380px" y="291px" width="98px" height="38px" />
      <rect id="society-for-contemporary-craft-visit-scc-store" x="116px" y="191px" width="57px" height="39px" />
      <rect id="design-boom-design-boom" x="179px" y="671px" width="43px" height="133px" />
      <rect id="pittsburgh-filmmaker-and-center-for-the-arts-drawing" x="339px" y="199px" width="35px" height="86px" />
      <rect id="mattress-factory-community-art-lab" x="266px" y="291px" width="108px" height="38px" />
      <rect id="labs-at-carnegie-library-of-pittsburgh-the-labsy-awards" x="306px" y="671px" width="73px" height="133px" />
      <rect id="the-andy-warhol-museum-youth-open-studio" x="179px" y="398px" width="81px" height="52px" />
      <rect id="mcg-youth-and-arts-ceramics-sets" x="6px" y="496px" width="167px" height="33px" />
      <rect id="tech-shop-steam003---textile-printing-and-sewing-" x="6px" y="535px" width="167px" height="57px" />
      <rect id="pittsburgh-filmmaker-and-center-for-the-arts-creature-design-and-mask-making" x="382px" y="63px" width="96px" height="79px" />
      <rect id="deviant-art-deviantart" x="6px" y="148px" width="167px" height="37px" />
      <rect id="labs-at-carnegie-library-of-pittsburgh-fashion-design-workshops" x="179px" y="291px" width="81px" height="101px" />
      <rect id="pittsburgh-filmmaker-and-center-for-the-arts-raku" x="266px" y="6px" width="212px" height="51px" />
      <rect id="pittsburgh-filmmaker-and-center-for-the-arts-stained-glass" x="339px" y="148px" width="139px" height="45px" />
      <rect id="mcg-youth-and-arts-the-wide-world-of-photo" x="179px" y="568px" width="81px" height="24px" />
      <rect id="the-andy-warhol-museum-vertical-silkscreen-printing-with-stefan-hoffmann" x="6px" y="293px" width="104px" height="85px" />
      <rect id="mcg-youth-and-arts-electric-avenue" x="93px" y="6px" width="37px" height="136px" />
      <rect id="carnegie-museums-of-art-and-natural-history-you-are-here---pittsburgh-placemaking" x="179px" y="148px" width="81px" height="137px" />
      <rect id="diy-sketch-a-real-building-" x="228px" y="671px" width="43px" height="133px" />
      <rect id="pittsburgh-filmmaker-and-center-for-the-arts-the-shop" x="266px" y="148px" width="67px" height="45px" />
      <rect id="mcg-youth-and-arts-electric-avenue" x="277px" y="671px" width="23px" height="133px" />
      <rect id="evan-mirapaul-la-hutte-royal" x="179px" y="456px" width="81px" height="106px" />
      <rect id="mcg-youth-and-arts-print-draw-paint" x="266px" y="456px" width="108px" height="106px" />
      <rect id="the-andy-warhol-museum-andy-warhol---pop-portraits-and-selfies" x="385px" y="671px" width="93px" height="133px" />
      <rect id="pittsburgh-center-for-creative-reuse-the-remaker-playshop---sew-mend-make" x="6px" y="598px" width="167px" height="67px" />
      <rect id="pittsburgh-filmmaker-and-center-for-the-arts-anime" x="380px" y="568px" width="98px" height="24px" />
      <rect id="moma--moma-teens-online" x="266px" y="568px" width="108px" height="24px" />
      <rect id="food-revolution-pittsburgh-cooking-club-at-harvest-and-create" x="136px" y="6px" width="37px" height="136px" />
      <rect id="carnegie-museums-of-art-and-natural-history-fiber-art" x="179px" y="598px" width="299px" height="67px" />
      <rect id="diy-hack-a-t-shirt-" x="6px" y="671px" width="55px" height="133px" />
      <rect id="mattress-factory-summer-art-cooperative" x="266px" y="335px" width="108px" height="57px" />
      <rect id="mcg-youth-and-arts-digital-expressions" x="380px" y="335px" width="98px" height="57px" />
      <rect id="society-for-contemporary-craft-drop-in-studio" x="380px" y="456px" width="98px" height="106px" />
      <rect id="pittsburgh-filmmaker-and-center-for-the-arts-graphic-design" x="380px" y="398px" width="98px" height="52px" />
      <rect id="carnegie-museums-of-art-and-natural-history-experimental-drawing-and-painting" x="6px" y="456px" width="167px" height="34px" />
      <rect id="carnegie-museums-of-art--interact" x="6px" y="191px" width="104px" height="39px" />
    </svg>

    <svg id="storytelling" x="1509" y="599" xmlns="http://www.w3.org/2000/svg">
      <rect id="labs-at-carnegie-library-of-pittsburgh-the-labsy-awards" x="79px" y="191px" width="113px" height="63px" />
      <rect id="hear-me-hear-me-stories" x="198px" y="191px" width="130px" height="105px" />
      <rect id="pittsburgh-public-schools-literary-arts-department-at-capa" x="6px" y="329px" width="87px" height="48px" />
      <rect id="neighborhood-learning-alliance-reading-warriors" x="6px" y="583px" width="81px" height="221px" />
      <rect id="pittsburgh-public-schools-literary-arts-department-at-capa" x="93px" y="583px" width="99px" height="221px" />
      <rect id="the-carnegie-library-of-pittsburgh-teen-summer-reading" x="334px" y="644px" width="145px" height="56px" />
      <rect id="diy-tell-a-scary-story-" x="6px" y="452px" width="186px" height="72px" />
      <rect id="hear-me-hear-me-101-internship-program" x="334px" y="302px" width="145px" height="49px" />
      <rect id="the-creativity-hub-story-cubes-app" x="334px" y="39px" width="145px" height="106px" />
      <rect id="pittsburgh-poetry-collective-young-steel" x="6px" y="530px" width="186px" height="47px" />
      <rect id="city-of-asylum-city-of-asylum-events" x="334px" y="151px" width="145px" height="34px" />
      <rect id="the-carnegie-library-of-pittsburgh-the-labs-at-clp-allegheny---slb-radio-series" x="334px" y="548px" width="145px" height="29px" />
      <rect id="labs-at-carnegie-library-of-pittsburgh-the-labsy-awards" x="79px" y="6px" width="58px" height="179px" />
      <rect id="the-creativity-hub-extraordinaires" x="264px" y="706px" width="64px" height="98px" />
      <rect id="pittsburgh-poetry-collective-young-steel" x="198px" y="302px" width="130px" height="117px" />
      <rect id="the-carnegie-library-of-pittsburgh-the-labs-at-clp-allegheny---slb-radio-series" x="198px" y="6px" width="85px" height="179px" />
      <rect id="inkle-studios-inklewriter" x="198px" y="425px" width="130px" height="117px" />
      <rect id="wilkinsburg-public-library-unmask---summer-reading-challenge" x="198px" y="548px" width="130px" height="29px" />
      <rect id="hear-me-hear-me-stories" x="334px" y="6px" width="145px" height="27px" />
      <rect id="labs-at-carnegie-library-of-pittsburgh-the-labsy-awards" x="334px" y="191px" width="145px" height="105px" />
      <rect id="toonseum-summer-saturdays-superhero-workshop" x="6px" y="260px" width="186px" height="63px" />
      <rect id="hear-me-hear-me-101-internship-program" x="143px" y="6px" width="49px" height="179px" />
      <rect id="the-creativity-hub-story-cubes" x="99px" y="329px" width="93px" height="48px" />
      <rect id="inkle-studios-inklewriter" x="6px" y="191px" width="67px" height="63px" />
      <rect id="826-valencia-student-writing-gallery" x="6px" y="6px" width="67px" height="179px" />
      <rect id="inkle-studios-80-days" x="334px" y="706px" width="145px" height="98px" />
      <rect id="the-moth-the-moth-video" x="289px" y="6px" width="39px" height="179px" />
      <rect id="heinz-history-center-pittsburgh-history-detectives" x="334px" y="357px" width="145px" height="62px" />
      <rect id="carnegie-museums-of-art-and-natural-history-comics-and-cartoons" x="6px" y="383px" width="186px" height="63px" />
      <rect id="heinz-history-center-pittsburgh-history-detectives" x="198px" y="583px" width="130px" height="117px" />
      <rect id="toonseum-create-your-own-comic-strip-" x="334px" y="469px" width="145px" height="73px" />
      <rect id="get-lit-get-lit-players" x="334px" y="425px" width="145px" height="38px" />
      <rect id="diy-write-a-choose-your-own-adventure" x="198px" y="706px" width="60px" height="98px" />
      <rect id="scholastic-art-and-writing-awards-scholastic-art-and-writing-awards" x="334px" y="583px" width="145px" height="55px" />
    </svg>

    <svg id="mediamaking" x="60" y="1463" xmlns="http://www.w3.org/2000/svg">
      <rect id="diy-org-reenact-a-scene" x="651px" y="6px" width="200px" height="44px" />
      <rect id="mcg-youth-and-arts-the-wide-world-of-photo" x="306px" y="206px" width="84px" height="319px" />
      <rect id="labs-at-carnegie-library-of-pittsburgh-open-lab" x="396px" y="206px" width="159px" height="104px" />
      <rect id="wyep-radio-tour" x="561px" y="206px" width="122px" height="104px" />
      <rect id="mcg-youth-and-arts-the-wide-world-of-photo" x="689px" y="316px" width="162px" height="62px" />
      <rect id="wyep-rock-radio-camp" x="306px" y="6px" width="84px" height="132px" />
      <rect id="pf-and-pca-filmmakers-youth-media-directors-workshop" x="6px" y="268px" width="155px" height="31px" />
      <rect id="diy-org-make-trick-photography-" x="456px" y="6px" width="99px" height="132px" />
      <rect id="steeltown-entertainment-youth-and-media" x="85px" y="305px" width="76px" height="116px" />
      <rect id="starz-the-chair" x="651px" y="56px" width="200px" height="82px" />
      <rect id="mcg-youth-and-arts-photography" x="6px" y="144px" width="294px" height="56px" />
      <rect id="mcg-youth-and-arts-electric-avenue" x="306px" y="144px" width="84px" height="56px" />
      <rect id="vimeo-directing-101" x="6px" y="6px" width="144px" height="132px" />
      <rect id="pf-and-pca-filmmakers-youth-media-cryptozoology" x="561px" y="144px" width="290px" height="56px" />
      <rect id="diy-org-create-a-book-trailer" x="396px" y="384px" width="100px" height="141px" />
      <rect id="carnegie-science-center-digital-video-smash-jam-two-day-workshop" x="227px" y="369px" width="73px" height="156px" />
      <rect id="pf-and-pca-filmmakers-youth-media-graphic-design" x="595px" y="384px" width="88px" height="141px" />
      <rect id="wyep-rock-radio-camp" x="396px" y="6px" width="54px" height="132px" />
      <rect id="white-house-the-white-house--students-film-festival" x="156px" y="6px" width="144px" height="132px" />
      <rect id="white-house-the-white-house--students-film-festival" x="689px" y="206px" width="162px" height="104px" />
      <rect id="pf-and-pca-filmmakers-youth-media-handmade-filmmaking-at-pf" x="689px" y="384px" width="162px" height="141px" />
      <rect id="carnegie-science-center-i5-video-competition" x="167px" y="268px" width="54px" height="257px" />
      <rect id="pf-and-pca-filmmakers-youth-media-foundations-of-photography" x="227px" y="268px" width="73px" height="95px" />
      <rect id="pf-and-pca-filmmakers-youth-media-photography-at-pf" x="6px" y="305px" width="73px" height="220px" />
      <rect id="diy-org-make-trick-photography-" x="85px" y="427px" width="76px" height="98px" />
      <rect id="diy-org-film-a-spoof-video" x="396px" y="316px" width="287px" height="62px" />
      <rect id="pf-and-pca-filmmakers-youth-media-foundations-of-filmmaking" x="396px" y="144px" width="159px" height="56px" />
      <rect id="diy-org-build-a-photo-studio" x="6px" y="206px" width="294px" height="56px" />
      <rect id="teen-ink-teen-ink-video" x="502px" y="384px" width="87px" height="141px" />
      <rect id="the-criterion-collection-criterion-collection-top-10s" x="561px" y="6px" width="84px" height="132px" />
    </svg>

    <svg id="building-making" x="971" y="1463" xmlns="http://www.w3.org/2000/svg">
      <rect id="instructables-build-something" x="485px" y="87px" width="218px" height="39px" />
      <rect id="pittsburgh-center-for-creative-reuse-the-remaker-playshop---sew-mend-make" x="261px" y="87px" width="218px" height="129px" />
      <rect id="hack-pittsburgh-visit-hackpittsburgh" x="783px" y="189px" width="70px" height="127px" />
      <rect id="assemble-learning-parties" x="859px" y="189px" width="158px" height="40px" />
      <rect id="assemble-teens-as-teachers" x="318px" y="355px" width="161px" height="170px" />
      <rect id="assemble-youth-maker-night" x="485px" y="355px" width="89px" height="170px" />
      <rect id="diy-minecrafter" x="101px" y="87px" width="154px" height="129px" />
      <rect id="diy-sketch-a-real-building-" x="261px" y="222px" width="218px" height="61px" />
      <rect id="pbs-kids-pbs-design-squad---watch" x="101px" y="222px" width="154px" height="127px" />
      <rect id="slamacow-minecraft-leaking-into-the-real-world---minecraft-animation" x="485px" y="222px" width="218px" height="61px" />
      <rect id="super-awesome-sylvia-show-super-awesome-sylvia---episodes" x="859px" y="235px" width="158px" height="81px" />
      <rect id="tech-shop-visit-tech-shop" x="485px" y="132px" width="218px" height="84px" />
      <rect id="diy-lego-master" x="485px" y="289px" width="218px" height="60px" />
      <rect id="hack-pittsburgh-visit-hackpittsburgh" x="261px" y="6px" width="218px" height="75px" />
      <rect id="carnegie-science-center-fab-lab" x="580px" y="355px" width="123px" height="170px" />
      <rect id="society-for-contemporary-craft-drop-in-studio" x="859px" y="396px" width="158px" height="129px" />
      <rect id="gtech-strategies-412-build" x="6px" y="87px" width="89px" height="129px" />
      <rect id="millvale-community-library-maker-thursdays" x="709px" y="87px" width="144px" height="96px" />
      <rect id="maker-faire--visit-maker-faire-pittsburgh" x="859px" y="87px" width="158px" height="96px" />
      <rect id="childrens-museum-of-pittsburgh-makeshop" x="709px" y="6px" width="308px" height="75px" />
      <rect id="assemble-unblurred" x="101px" y="6px" width="154px" height="75px" />
      <rect id="maker-media-make-magazine" x="709px" y="189px" width="68px" height="336px" />
      <rect id="childrens-museum-of-pittsburgh-the-makeshop-show" x="485px" y="6px" width="218px" height="75px" />
      <rect id="northern-tier-regional-library-cube-head-superheroes" x="261px" y="355px" width="51px" height="170px" />
      <rect id="northern-tier-regional-library-cube-head-superheroes" x="6px" y="222px" width="89px" height="127px" />
      <rect id="assemble-assemble-afterschool" x="261px" y="289px" width="218px" height="60px" />
      <rect id="pbs-kids-pbs-design-squad---build" x="859px" y="322px" width="158px" height="68px" />
      <rect id="assemble-saturday-crafternoons-" x="6px" y="355px" width="89px" height="170px" />
      <rect id="pbs-kids-pbs-design-squad---watch" x="101px" y="355px" width="154px" height="170px" />
      <rect id="assemble-m3---materials-media-and-me" x="6px" y="6px" width="89px" height="75px" />
      <rect id="built-by-kids-activities" x="783px" y="322px" width="70px" height="203px" />
    </svg>

  </g>
</svg>
