<svg width="1812px" height="1812px" xmlns="http://www.w3.org/2000/svg">
  <g transform="translate(266.0 266.0) rotate(45 640.0 640.0)">
    <svg id="robotics" x="60" y="60" xmlns="http://www.w3.org/2000/svg">
      <rect id="110FA5F5-F975-BF03-CB99-BFEE-A8F13B078129" x="6px" y="6px" width="58px" height="43px" />
      <rect id="FAB3EE2B-08F1-8101-09C0-087D-8F26ACFD944F" x="70px" y="6px" width="58px" height="43px" />
      <rect id="14012858-FF3F-6A2F-AD08-47DB-1B4911F1EFD1" x="134px" y="6px" width="97px" height="43px" />
      <rect id="59539AE3-D674-FDF1-F2A1-C2C4-A4DAE846DA79" x="237px" y="6px" width="32px" height="43px" />
      <rect id="43DBE3E3-CD47-E534-E0A6-E1CA-F73E514B2660" x="275px" y="6px" width="99px" height="43px" />
      <rect id="43AEADF2-BC17-757A-EB4C-C16B-CABD1417FE36" x="6px" y="55px" width="58px" height="23px" />
      <rect id="E940D5CB-2ACE-6A4F-C508-660A-315BDFBA2B57" x="70px" y="55px" width="58px" height="63px" />
      <rect id="56E19F33-2654-11AE-8200-6CBB-038458DA8C29" x="6px" y="267px" width="150px" height="64px" />
      <rect id="504519C4-04BE-A6C0-1896-B296-8035950D193C" x="237px" y="55px" width="137px" height="30px" />
      <rect id="64644B91-DC75-A3D5-FA2D-39C2-A9127C623C16" x="6px" y="84px" width="58px" height="33px" />
      <rect id="6EE9C17C-D29F-264C-B987-AD8E-103CF8A7BB49" x="134px" y="91px" width="97px" height="27px" />
      <rect id="97187D23-D4DC-8AE5-3B4E-8F63-CB6863AA9CF3" x="237px" y="91px" width="70px" height="27px" />
      <rect id="92914D9D-C3E3-16BF-0898-F3EF-D3E4E5382514" x="313px" y="91px" width="61px" height="27px" />
      <rect id="CBBA1196-F8AC-9AA7-F915-757C-A9C92F186534" x="204px" y="124px" width="103px" height="32px" />
      <rect id="88227A21-03DE-0814-ED42-773F-B3FF7567F403" x="70px" y="124px" width="128px" height="32px" />
      <rect id="03389F0F-C5E3-BA62-288F-F327-C88E2FAFA948" x="6px" y="123px" width="58px" height="33px" />
      <rect id="B25D247A-43D9-C0C3-BC23-A46D-F288578A69F7" x="162px" y="242px" width="36px" height="19px" />
      <rect id="86F70AB1-3A76-CF5F-0ACE-979A-B46DED893C38" x="6px" y="162px" width="58px" height="99px" />
      <rect id="F6C16814-B896-CA89-76BA-4922-ABAAB3967E24" x="70px" y="162px" width="86px" height="16px" />
      <rect id="1B766F4E-B449-D4AD-C6FC-310C-303624C02485" x="162px" y="162px" width="36px" height="74px" />
      <rect id="140407C5-2F81-F997-7393-0687-2437563534A9" x="204px" y="162px" width="36px" height="74px" />
      <rect id="D7D64FB3-83E9-0033-FDD3-4F0B-A933CEFBE218" x="246px" y="162px" width="19px" height="74px" />
      <rect id="787BF993-B7A8-56F6-59BC-1360-11EC923504D3" x="271px" y="162px" width="36px" height="74px" />
      <rect id="017D2F58-3555-75E6-7213-478E-45230CFBE0E8" x="313px" y="162px" width="61px" height="74px" />
      <rect id="4DF6B1D3-F964-29C2-CF6D-AC77-5282A4B08176" x="70px" y="184px" width="86px" height="77px" />
      <rect id="C0819F3E-2305-EDF0-FEE1-A8D4-D340C4BACA16" x="313px" y="124px" width="61px" height="32px" />
      <rect id="60011333-6486-5D95-54EE-9126-BC4E99D739EC" x="271px" y="242px" width="36px" height="19px" />
      <rect id="846D3CBE-0ABE-3705-136E-1730-E0F24C25C9F9" x="204px" y="242px" width="61px" height="19px" />
      <rect id="71BF4FC8-71CD-5CB3-9612-4378-5BDA731F48C9" x="313px" y="242px" width="61px" height="19px" />
      <rect id="59485D65-E05D-F403-F74A-D774-FD84C42E9256" x="134px" y="55px" width="97px" height="30px" />
      <rect id="C33F0A88-67A1-F30F-D069-F1EB-EDF80B2155DD" x="162px" y="267px" width="103px" height="64px" />
      <rect id="3225EB53-7B9C-11D3-E015-E95E-046E81D00C50" x="271px" y="267px" width="36px" height="64px" />
      <rect id="CA9624B0-4AAC-32D8-9A2D-A242-2C6726F96D38" x="313px" y="267px" width="61px" height="64px" />
    </svg>

    <svg id="storytelling" x="494" y="60" xmlns="http://www.w3.org/2000/svg">
      <rect id="9263A99C-2661-1948-2509-E0EF-873FB0A4028C" x="6px" y="6px" width="72px" height="17px" />
      <rect id="453C236E-4AD7-6938-2221-5BA4-24F9FC223FA8" x="133px" y="203px" width="43px" height="73px" />
      <rect id="884DCEF7-3AB2-A63C-50CE-BFC5-3D13E110F287" x="84px" y="6px" width="43px" height="55px" />
      <rect id="7C7E1EED-2F16-3037-4FD9-A027-35548E79F3CA" x="133px" y="6px" width="93px" height="55px" />
      <rect id="68034B54-9B38-DE93-27E3-8594-66E14B2C2797" x="232px" y="67px" width="33px" height="93px" />
      <rect id="4570E609-B160-2479-C472-411B-84A1B7B609EF" x="6px" y="258px" width="72px" height="73px" />
      <rect id="584BEDA6-56AE-B40F-E0A0-A200-DEE58ED55C47" x="271px" y="6px" width="43px" height="55px" />
      <rect id="70D31455-7550-9612-F315-D0DC-3EAD8CDE4C98" x="320px" y="6px" width="67px" height="68px" />
      <rect id="2CDD07E1-6BE5-1B07-ACFE-F730-3D5144BD32FF" x="6px" y="29px" width="72px" height="64px" />
      <rect id="83D8B09B-1527-004F-7B54-72BB-9B219D8E9303" x="84px" y="67px" width="43px" height="93px" />
      <rect id="135F921F-089F-C491-4AE0-D985-05F15B97CC57" x="133px" y="282px" width="132px" height="49px" />
      <rect id="9F66109A-59CE-F82E-2BA1-CBA4-B81274FDFEC4" x="182px" y="67px" width="44px" height="93px" />
      <rect id="8AA5FF44-6923-3CA8-8121-162F-2B36DFA6060A" x="344px" y="282px" width="43px" height="49px" />
      <rect id="C0B46B65-9F4F-71DF-6A93-34A3-E51CAC6F6242" x="271px" y="67px" width="43px" height="93px" />
      <rect id="B0C904E7-4BF0-D709-E5C3-72B3-7CC7F5A695F1" x="320px" y="80px" width="67px" height="80px" />
      <rect id="574FC3BB-3244-BB46-3B0A-FDC0-16CB39D491AC" x="6px" y="99px" width="72px" height="48px" />
      <rect id="B8C4ABA1-D5A7-9066-7FAA-345D-0E71A999B4EC" x="6px" y="153px" width="72px" height="17px" />
      <rect id="AE52B596-2368-032F-9444-CF14-CABDEE2F246A" x="84px" y="166px" width="43px" height="31px" />
      <rect id="88CE3D6A-F411-64FD-2EEF-F200-1A628027F2BF" x="133px" y="166px" width="43px" height="31px" />
      <rect id="4D0E9EBC-2B0F-BFFD-0EFF-92E2-6FA183404D1A" x="182px" y="166px" width="44px" height="31px" />
      <rect id="6B802BAA-2014-33F3-E4A8-84FB-3095CEA9E27B" x="271px" y="203px" width="29px" height="73px" />
      <rect id="C8A847FE-3C93-0DC2-F0EB-05D4-E682397EA23C" x="271px" y="166px" width="116px" height="31px" />
      <rect id="DA4F6D22-8104-CFAA-D7E5-1517-6EE222446D6C" x="6px" y="176px" width="72px" height="52px" />
      <rect id="EEBF5442-A9AE-C7ED-DBB9-9BCE-3D846B96FC39" x="84px" y="203px" width="43px" height="128px" />
      <rect id="5A9C38AC-CBF5-2D56-5675-46C5-3608B5EA475E" x="232px" y="6px" width="33px" height="55px" />
      <rect id="BAB95AE0-FDB5-9E97-EED7-EC02-22FD8FF6BAEE" x="182px" y="203px" width="44px" height="73px" />
      <rect id="ABAAC5D6-DC2B-AB39-6AAA-2B92-9FCECB826637" x="232px" y="203px" width="33px" height="73px" />
      <rect id="CFA9AD34-7AEF-7865-7C3D-E4EF-AE9A46EF4EA7" x="232px" y="166px" width="33px" height="31px" />
      <rect id="D3837EFA-238B-5A0E-4711-3C04-6A6A46C84009" x="306px" y="203px" width="81px" height="17px" />
      <rect id="1F3F9E78-1DB8-8E6B-DB84-7176-43BE96367D4D" x="6px" y="234px" width="72px" height="18px" />
      <rect id="DA64EDCC-11D5-3C71-A886-315E-0C42C960A237" x="306px" y="226px" width="81px" height="50px" />
      <rect id="877ACC20-0ADF-DEAC-399B-2904-FA2FAD8C6750" x="133px" y="67px" width="43px" height="93px" />
      <rect id="697D4469-B3EB-7F70-455F-C400-524188F0F858" x="271px" y="282px" width="29px" height="49px" />
      <rect id="86DEAC48-4CE0-7D3A-5BD0-32DF-F7FA928BB2A7" x="306px" y="282px" width="32px" height="49px" />
    </svg>

    <svg id="building_making" x="941" y="60" xmlns="http://www.w3.org/2000/svg">
      <rect id="CDC4571E-2CB5-9B33-8940-15E8-4EB3135F96BF" x="6px" y="6px" width="35px" height="98px" />
      <rect id="0A89A336-D3A3-3E31-EA54-CF04-3FDD4D926EB1" x="72px" y="6px" width="77px" height="51px" />
      <rect id="9EC14555-FFA1-913C-83F4-2E80-6E07F7EF9FFE" x="155px" y="6px" width="124px" height="30px" />
      <rect id="64F3852A-4211-9BA3-17C9-6DE0-6239E284045A" x="155px" y="42px" width="124px" height="27px" />
      <rect id="0133DD35-B458-686B-9F7E-0126-2C98E04AA19A" x="47px" y="63px" width="102px" height="41px" />
      <rect id="7C0C1433-E487-DF61-7F8D-7AA7-8AD6C60ADE75" x="155px" y="178px" width="30px" height="72px" />
      <rect id="865343E5-BD13-7E21-0F01-F381-EABF172FF289" x="155px" y="75px" width="124px" height="29px" />
      <rect id="9748EF1C-6BE6-31DC-E173-414B-FECD2823EDB1" x="6px" y="110px" width="35px" height="28px" />
      <rect id="57ABC800-6FF8-CBF0-B809-8DA3-051BAA3291A5" x="47px" y="110px" width="102px" height="28px" />
      <rect id="1A5A8448-7BA4-26BF-DB5A-8F3E-5372CB3C1B6F" x="155px" y="110px" width="124px" height="28px" />
      <rect id="4482EBAE-ACE9-1D9F-D9F7-2E28-1B1F45D203CF" x="6px" y="144px" width="35px" height="106px" />
      <rect id="4BF3BEAB-B155-2418-F8CA-623D-660E43D85CDB" x="47px" y="144px" width="102px" height="28px" />
      <rect id="944D7667-EE00-A66E-9A2C-ABAD-7F33F4242237" x="155px" y="144px" width="124px" height="28px" />
      <rect id="BE44B3E4-3644-D79D-6E94-D9E4-DDA2EC131CD5" x="47px" y="178px" width="35px" height="72px" />
      <rect id="05EA5A0E-436B-1385-59C8-ABF0-B12041DAF3E9" x="88px" y="178px" width="17px" height="72px" />
      <rect id="B8AE0119-7F0A-7566-5374-A4DA-C2BFFB828FE5" x="111px" y="178px" width="38px" height="72px" />
      <rect id="9A07381D-D3E7-1E13-506E-85B0-EDF93855A4E3" x="47px" y="6px" width="19px" height="51px" />
      <rect id="BA99EF4D-58AF-E753-339D-2F5A-083095CAAD10" x="191px" y="178px" width="54px" height="17px" />
      <rect id="572E3B3B-2305-84D2-D713-8A60-90D80D2C199E" x="251px" y="178px" width="28px" height="17px" />
      <rect id="4AD49440-CA48-B244-1AAD-C942-056821AE2281" x="191px" y="201px" width="88px" height="49px" />
      <rect id="3EB06779-0877-96F3-9708-72C1-6C8C1F72C1D7" x="6px" y="256px" width="35px" height="75px" />
      <rect id="C0EE8B00-F698-18BB-CB32-99C6-35B8D32C0043" x="47px" y="256px" width="58px" height="15px" />
      <rect id="D1B0F3E9-B956-9F4E-055F-80A7-3456CCAB030F" x="111px" y="256px" width="74px" height="15px" />
      <rect id="14390CC1-49C8-BF45-4AFB-2295-90AE056ED8E8" x="191px" y="256px" width="88px" height="19px" />
      <rect id="B5D82197-6FFC-1D4A-5570-A11E-C0233DD2C339" x="47px" y="277px" width="58px" height="16px" />
      <rect id="5414A4CA-5187-EADD-7E9B-3FE2-547010838F64" x="111px" y="277px" width="74px" height="16px" />
      <rect id="01E63C9C-CD22-520E-FE87-2212-4411B551EC3B" x="191px" y="281px" width="88px" height="50px" />
      <rect id="590ABC6E-4A01-A334-3585-9B70-252CF7B765E5" x="47px" y="299px" width="58px" height="32px" />
      <rect id="0B2C5AED-17C5-B177-D380-575B-BCEBB93ECEF7" x="111px" y="299px" width="20px" height="32px" />
      <rect id="962A7700-B6D5-0A8C-A9F8-18DD-716092C456CD" x="137px" y="299px" width="48px" height="13px" />
      <rect id="A5284916-67EB-54AF-DA35-CB17-EB5DCE8744A7" x="137px" y="318px" width="48px" height="13px" />
    </svg>

    <svg id="art_design" x="60" y="451" xmlns="http://www.w3.org/2000/svg">
      <rect id="E4D088FB-6814-078D-1EC5-0DF8-C5CD4EE28A70" x="6px" y="6px" width="104px" height="47px" />
      <rect id="59C73F3C-6B52-0370-1C8B-93F7-BBAC64A3185B" x="116px" y="6px" width="118px" height="47px" />
      <rect id="DEE8D708-9C7E-BEF9-ECD5-63D0-9B05D02D8431" x="6px" y="242px" width="104px" height="33px" />
      <rect id="A45E054A-009B-F418-8B92-DA0B-7C71DC1EE6E4" x="240px" y="42px" width="134px" height="41px" />
      <rect id="23B434F7-D26A-7050-E313-0E5D-44E0DFB38D72" x="240px" y="496px" width="134px" height="53px" />
      <rect id="8CBA9FBE-D1E8-C93E-6632-003C-10B1F4B70A5A" x="103px" y="318px" width="131px" height="46px" />
      <rect id="6C870198-439C-EADB-E1B6-2F8C-13E1AFD769B0" x="163px" y="59px" width="71px" height="40px" />
      <rect id="A4F05B97-BF92-B10F-2E0D-AD80-8CD30B8A29F9" x="240px" y="89px" width="134px" height="41px" />
      <rect id="2587AB69-92DB-6BBF-F012-107A-CDB03B7DFA5F" x="6px" y="105px" width="104px" height="53px" />
      <rect id="A721365C-6629-412F-3463-438E-AF2C2479F018" x="116px" y="105px" width="118px" height="53px" />
      <rect id="F28D3C96-7B32-9199-4B4F-B8C3-417CAB9C9070" x="240px" y="136px" width="134px" height="40px" />
      <rect id="B72B66C6-A966-8388-5F35-6366-D86BE252971F" x="6px" y="164px" width="104px" height="33px" />
      <rect id="1FF2982A-589C-61B6-8987-758B-43AF025740C3" x="183px" y="594px" width="51px" height="67px" />
      <rect id="45740830-801D-AD3D-B8A3-646D-3BE9E67BF091" x="270px" y="712px" width="53px" height="57px" />
      <rect id="EDA864AC-3946-DD69-9FC1-507E-8991DF04501F" x="240px" y="182px" width="134px" height="46px" />
      <rect id="1C3D4258-68F2-C44D-D002-948C-B257D1C62085" x="6px" y="203px" width="104px" height="33px" />
      <rect id="A1E26312-44AA-AB7D-F21B-2331-B27BED009CA6" x="116px" y="203px" width="50px" height="33px" />
      <rect id="004C3CB8-FA14-E2AD-0F0B-0F04-A479FA410C77" x="172px" y="203px" width="62px" height="33px" />
      <rect id="FBFD3CB2-2715-1056-FBC5-289E-62739E898262" x="240px" y="234px" width="134px" height="35px" />
      <rect id="FFCBD9D1-ACE2-1D64-096B-4182-CA3349836304" x="116px" y="242px" width="118px" height="33px" />
      <rect id="58B6E214-FF65-8E1F-6DCF-0244-B5AD0B6006FC" x="240px" y="275px" width="134px" height="40px" />
      <rect id="0DB014D3-3F3A-6E46-2CE3-C82C-D7EBE58495CB" x="6px" y="370px" width="67px" height="23px" />
      <rect id="7A0C9577-2D6A-BAE9-1342-8B32-ED3065090938" x="6px" y="281px" width="91px" height="16px" />
      <rect id="691AB01F-FA1A-EF05-3F7E-E5D2-BB72C4EA89DB" x="103px" y="281px" width="131px" height="31px" />
      <rect id="44031549-9205-ACC6-DBFD-F799-851DE2887EA0" x="6px" y="303px" width="91px" height="61px" />
      <rect id="DC8B0FF2-8C77-1B9A-9AAB-E1EF-20B1DA64DEF7" x="116px" y="59px" width="41px" height="40px" />
      <rect id="B996DC1D-1A3B-1E77-B1A0-547E-12988A425D19" x="240px" y="321px" width="134px" height="43px" />
      <rect id="8CDCBFA9-BEF8-7269-5CAE-D731-B4A92F878B4C" x="240px" y="6px" width="134px" height="30px" />
      <rect id="39D095CA-F906-2973-41E8-0B05-750D4ACA5366" x="79px" y="370px" width="18px" height="83px" />
      <rect id="192A8F42-352E-B893-8CBE-E715-D473071E7744" x="103px" y="370px" width="74px" height="83px" />
      <rect id="D3FB8C00-B6CC-B63C-B18C-9D9E-1571B3FD7885" x="183px" y="370px" width="51px" height="83px" />
      <rect id="568AD45A-7971-3CEF-080D-53C0-A48DB6811189" x="287px" y="370px" width="87px" height="32px" />
      <rect id="B3572DCD-66D8-CE8D-99AC-8CCF-7493323E7A1F" x="6px" y="399px" width="67px" height="52px" />
      <rect id="F107DB72-83E3-71D4-D8E0-8142-24881F18E595" x="287px" y="408px" width="87px" height="45px" />
      <rect id="29F96A54-B3DA-DBFA-4AC2-92BB-1F38639D683E" x="6px" y="457px" width="67px" height="92px" />
      <rect id="CF1898B1-1F9C-C393-BE24-4F4C-96ABBEC85391" x="79px" y="459px" width="18px" height="90px" />
      <rect id="F09020AC-E423-34F4-1A99-BBE4-BBB3BA47C170" x="103px" y="459px" width="74px" height="90px" />
      <rect id="95FDA569-AD81-A285-3BA2-C892-BDEEBC0E1D0B" x="183px" y="459px" width="51px" height="31px" />
      <rect id="2B693371-2B6F-D1EF-9D47-0465-AAF8F7C28B5A" x="240px" y="459px" width="134px" height="31px" />
      <rect id="F5D1DB8C-50D0-8284-3972-594A-852D4145FEE0" x="183px" y="496px" width="51px" height="53px" />
      <rect id="A5CC3B8E-8F43-4405-F92C-898A-0C14BA89AFFD" x="6px" y="59px" width="104px" height="40px" />
      <rect id="856FD1A9-1968-DFDA-B08A-5B81-107A99E28C83" x="6px" y="555px" width="67px" height="33px" />
      <rect id="15B79097-E0C3-E66C-CC54-9AC9-B6837AA527ED" x="79px" y="555px" width="98px" height="33px" />
      <rect id="6DF355F0-7A0F-5CC6-FD23-0EF1-7533FF019EFE" x="183px" y="555px" width="51px" height="33px" />
      <rect id="205B214C-E34A-E660-0355-A59C-69415E1CDD57" x="240px" y="555px" width="134px" height="33px" />
      <rect id="D7FF0A39-564D-59D9-12DC-04B3-9417BC0CE188" x="6px" y="594px" width="67px" height="67px" />
      <rect id="1FB57676-4985-B4E2-907A-A05B-024ED7485C22" x="79px" y="594px" width="98px" height="67px" />
      <rect id="4BEF3556-5AC2-2E63-2242-8AD5-DB2F0AC83AE1" x="116px" y="164px" width="118px" height="33px" />
      <rect id="DC098140-E9A8-69BD-16BE-F392-B31D91520E96" x="240px" y="594px" width="134px" height="67px" />
      <rect id="535F4574-7E05-62FC-E2E2-8AF4-B64594E59CAD" x="6px" y="667px" width="67px" height="102px" />
      <rect id="A6570696-9B1D-55B9-8BF9-08A3-7328959D4482" x="79px" y="667px" width="29px" height="102px" />
      <rect id="3CF69C02-4E7F-6DC1-B719-6F75-D29B62C53C45" x="114px" y="667px" width="63px" height="102px" />
      <rect id="E31CC508-FD7A-D1D3-ACEF-69F6-FE71E09800F9" x="183px" y="667px" width="51px" height="102px" />
      <rect id="894862D1-D664-DA75-6E56-5931-B84636742A46" x="240px" y="667px" width="24px" height="102px" />
      <rect id="7F261325-C8BF-8F64-303D-2812-DB377F770073" x="270px" y="667px" width="53px" height="39px" />
      <rect id="BB3FBEA8-608B-18BA-B531-072A-C2217B148668" x="329px" y="667px" width="45px" height="102px" />
      <rect id="CE88121A-72D3-CF32-4FE0-2D97-45CDFDCE7F9A" x="240px" y="370px" width="41px" height="83px" />
    </svg>

    <svg id="coding_gaming" x="494" y="451" xmlns="http://www.w3.org/2000/svg">
      <rect id="7F2F40AB-CB0D-07C4-F442-AF04-51E88A4B7082" x="6px" y="6px" width="60px" height="41px" />
      <rect id="D3AAE8C4-7A95-DF59-C48B-D01D-42AF0D884225" x="72px" y="6px" width="159px" height="41px" />
      <rect id="247A566A-2F8B-2DA5-EA53-C4B3-5FC41A9E1845" x="309px" y="457px" width="48px" height="37px" />
      <rect id="366A12C4-E8CB-2653-07B9-6827-9B469BAE925E" x="6px" y="53px" width="60px" height="88px" />
      <rect id="D3211B77-C62D-35A1-B3E2-675D-D464C4668B0A" x="72px" y="53px" width="27px" height="88px" />
      <rect id="77F9EDF5-2BDA-C1A4-1D71-DC98-7D8D4F7AF2E1" x="105px" y="53px" width="18px" height="88px" />
      <rect id="4487ECE6-DE9B-D21B-A6F5-0CE7-996302E28486" x="129px" y="53px" width="102px" height="37px" />
      <rect id="2A943855-133B-1E48-DBE8-83C8-8DA3094266F3" x="237px" y="53px" width="120px" height="37px" />
      <rect id="AD5BAB51-E646-3231-540D-DEA6-E02C7B6FC9BC" x="363px" y="53px" width="24px" height="71px" />
      <rect id="41F07F1A-50F5-2048-2473-D172-3FD57E49D68C" x="129px" y="96px" width="102px" height="30px" />
      <rect id="007DD57F-011A-A577-D9A4-E059-621436565343" x="237px" y="96px" width="120px" height="30px" />
      <rect id="942CDB2C-39CC-2566-F50F-573B-BD26506CBF02" x="363px" y="130px" width="26px" height="140px" />
      <rect id="9890F272-80DE-A543-EC87-F734-0F7962DBF8B2" x="129px" y="132px" width="102px" height="66px" />
      <rect id="5ABFFCFD-A51B-AE06-9F79-21A1-580C8D3A1045" x="237px" y="132px" width="48px" height="66px" />
      <rect id="89163821-BF64-3811-AC6D-E11A-30D5A5A37081" x="291px" y="132px" width="66px" height="66px" />
      <rect id="DC776F08-A900-6E1C-7852-DBE8-CE6DE8F60D08" x="6px" y="147px" width="117px" height="51px" />
      <rect id="DC8410B1-E626-F745-8CCE-68B1-00B6ED866E02" x="6px" y="204px" width="117px" height="57px" />
      <rect id="BFACA1F8-C842-1793-9169-55A4-570DAB72C47E" x="129px" y="204px" width="102px" height="57px" />
      <rect id="48492C88-00EE-8138-8B25-4226-E71643DC8A23" x="237px" y="500px" width="66px" height="25px" />
      <rect id="BED55958-7D2A-B1E7-D67D-F98B-C772E79644C9" x="291px" y="204px" width="66px" height="57px" />
      <rect id="22F43550-F315-A97D-9BCF-BFF0-6853DA14CE0F" x="6px" y="267px" width="117px" height="44px" />
      <rect id="49377DAF-D503-FE4E-CAE4-8726-665DD6C1813D" x="363px" y="276px" width="24px" height="98px" />
      <rect id="25DEC450-A7CF-120F-30A1-4DCC-8B080549DA99" x="237px" y="267px" width="48px" height="44px" />
      <rect id="77EC1E22-7F0A-C217-4411-32FD-A0AE5083E7EA" x="309px" y="500px" width="48px" height="121px" />
      <rect id="979F9A71-46F0-7981-1761-BC67-6DD3487751C3" x="175px" y="267px" width="56px" height="44px" />
      <rect id="F13A1247-1AD1-C948-1232-9B43-239E361D0AA8" x="6px" y="317px" width="117px" height="51px" />
      <rect id="CE683CA3-C05F-C8A7-903D-E4CE-A2A363BA1487" x="129px" y="317px" width="40px" height="51px" />
      <rect id="D49738D8-40A6-F491-3CC4-8DF8-FD21EA2BCABA" x="175px" y="317px" width="56px" height="51px" />
      <rect id="9EF03C12-4C09-B7B7-1CB9-961A-EB4AD965952B" x="237px" y="317px" width="120px" height="51px" />
      <rect id="11642027-39A7-C491-AA16-6343-6FEA07D6CE12" x="6px" y="374px" width="117px" height="38px" />
      <rect id="92B6994B-89B8-EC92-E60E-17B0-2CEF7D0ED19E" x="129px" y="374px" width="102px" height="38px" />
      <rect id="D0FFE9BA-C42C-D7F6-0F42-095C-F9297DEB8954" x="237px" y="374px" width="120px" height="38px" />
      <rect id="C15852CB-E10E-BF26-6C11-B199-F7BEAE426F15" x="363px" y="380px" width="25px" height="144px" />
      <rect id="03236BD4-B834-6FF7-78A5-5BE2-07A11B73C5BD" x="6px" y="418px" width="106px" height="21px" />
      <rect id="9EE0FE91-8E28-ECD0-FE5A-B47F-4415F43874A8" x="118px" y="418px" width="113px" height="33px" />
      <rect id="4E3456BA-0F36-8168-8CA3-13BB-CC4ADAD0B814" x="237px" y="418px" width="120px" height="33px" />
      <rect id="42459B74-F211-9816-A642-5BAD-335ED6638F69" x="6px" y="445px" width="106px" height="49px" />
      <rect id="9E5597AE-539E-80A8-6ADD-055F-3D7B04B5A3CC" x="118px" y="457px" width="66px" height="37px" />
      <rect id="EF276B51-503B-7576-01F1-5FFA-3D88792500BD" x="190px" y="457px" width="41px" height="37px" />
      <rect id="B31B9416-4283-067D-3851-3E26-1F07B8F4FC2D" x="237px" y="457px" width="66px" height="37px" />
      <rect id="D66AF615-3046-0381-F744-5461-F58991401BC7" x="237px" y="6px" width="150px" height="41px" />
      <rect id="48A7AF5F-3DDA-66CE-DAF0-95BC-17D9F768ECDA" x="6px" y="500px" width="106px" height="63px" />
      <rect id="2CF9A842-F56E-AA83-B027-4AA1-88614D60A126" x="118px" y="500px" width="113px" height="63px" />
      <rect id="2A348E92-9A41-F068-A622-48DB-85856408D992" x="237px" y="204px" width="48px" height="57px" />
      <rect id="8139E02E-13BB-9C12-4A21-647C-ADDFACFEFC79" x="291px" y="267px" width="66px" height="44px" />
      <rect id="2AED1B86-E0D2-E22F-DE10-D4B8-7246AF247290" x="363px" y="530px" width="24px" height="91px" />
      <rect id="7BCD0341-9F87-879D-EF24-F168-6536920F9E94" x="129px" y="267px" width="40px" height="44px" />
      <rect id="85030D3A-36B0-2032-C674-D2D9-D0B5630387C2" x="118px" y="569px" width="36px" height="54px" />
      <rect id="E9A68636-DFF1-DC2E-B839-B2FD-CEF696E248B3" x="6px" y="569px" width="106px" height="54px" />
      <rect id="02DBADEA-9688-ADE5-491A-C372-71660D6845CC" x="160px" y="569px" width="71px" height="26px" />
      <rect id="D5627EBA-EC85-8B15-E248-FA83-8653D0CAC47E" x="237px" y="569px" width="66px" height="26px" />
      <rect id="40001E6B-B130-5A86-4F52-3243-306E505D149E" x="160px" y="601px" width="71px" height="168px" />
      <rect id="5B2D7ED8-EEAC-7C44-0E79-0E43-01CC52087ED5" x="237px" y="601px" width="66px" height="69px" />
      <rect id="3DD9AE6A-0C28-05B1-00A0-0D9B-A3BB1B3127D2" x="309px" y="627px" width="78px" height="43px" />
      <rect id="F34B70E9-E5D4-8A45-9BEA-B2EE-6430D3646A72" x="6px" y="691px" width="39px" height="78px" />
      <rect id="8F7DD488-5516-2DF8-9AA5-7FFC-8E42102C588D" x="6px" y="629px" width="106px" height="56px" />
      <rect id="51FA1139-0E94-E5D4-C032-2CA8-6D91E1593A09" x="118px" y="629px" width="36px" height="140px" />
      <rect id="CCC7A3FA-05B5-5678-CBCD-68B1-A97E0F137F68" x="237px" y="676px" width="66px" height="93px" />
      <rect id="E4A7BEE5-7E80-1193-A85C-2E54-8D0ED93FB8B0" x="309px" y="676px" width="78px" height="31px" />
      <rect id="15998D3D-042B-F166-7E9D-F88D-822390621DA7" x="237px" y="531px" width="66px" height="32px" />
      <rect id="4BDD6083-9368-9D05-D17C-08C8-FF6D329FE9C4" x="51px" y="691px" width="61px" height="78px" />
      <rect id="10679D90-E958-8801-DB72-3964-5C0E88F0D209" x="309px" y="713px" width="78px" height="56px" />
    </svg>

    <svg id="food_gardening" x="941" y="451" xmlns="http://www.w3.org/2000/svg">
      <rect id="08BC07CF-C78C-166F-9C4F-3A6F-AFC0CEB5388C" x="6px" y="6px" width="46px" height="25px" />
      <rect id="C409F0E1-AE33-A727-4A13-B7FC-7487F395AB12" x="58px" y="6px" width="61px" height="54px" />
      <rect id="52ABA537-BE21-3205-3C42-AB81-745FAE56FECB" x="125px" y="6px" width="61px" height="54px" />
      <rect id="BC6C8F79-8E5E-5EBA-F46F-CF46-599A007A9CB5" x="192px" y="6px" width="61px" height="54px" />
      <rect id="D8275D38-9690-1C27-BA7D-BDEA-1DD0ABDBBAB1" x="259px" y="6px" width="22px" height="125px" />
      <rect id="0AC6167C-E416-A83A-AA82-2E30-DFF3008D2076" x="6px" y="37px" width="46px" height="56px" />
      <rect id="45C10B0E-AE42-1834-D578-8709-1808D976003B" x="58px" y="66px" width="61px" height="27px" />
      <rect id="BADE7D19-8C4A-FC78-3CB5-223E-3454E3B0483B" x="125px" y="66px" width="61px" height="55px" />
      <rect id="596DCB5E-DC36-43D9-842D-18FD-1F4B75B8DEBB" x="192px" y="66px" width="61px" height="55px" />
      <rect id="EA0CFE77-44F2-CC04-4B71-EF93-ED7D1ACFD92B" x="6px" y="99px" width="46px" height="40px" />
      <rect id="5A56B113-41B8-2695-B44D-113B-95E8284D164F" x="58px" y="99px" width="38px" height="40px" />
      <rect id="528D0F57-F0D9-32C9-AEB0-DB75-EBA3EBFFBE69" x="102px" y="99px" width="17px" height="82px" />
      <rect id="E6A4B4A6-CACA-D9BF-8846-519E-38633CB5CFD2" x="125px" y="127px" width="61px" height="54px" />
      <rect id="C77F8BC4-A42B-D600-7BC1-862F-547D0C5FF8C8" x="192px" y="145px" width="32px" height="36px" />
      <rect id="CD9D0CC8-F606-B157-063A-8AA6-F9691DD3423A" x="259px" y="137px" width="21px" height="99px" />
      <rect id="FA95B040-E384-7632-E026-BA23-38A36838C258" x="6px" y="145px" width="90px" height="23px" />
      <rect id="C892944A-35BE-60E6-7265-51B8-D23008CA8E1D" x="192px" y="127px" width="61px" height="12px" />
      <rect id="C1018102-B554-45CD-30E7-8695-358CFA20B3DB" x="230px" y="145px" width="23px" height="106px" />
      <rect id="1DBD5126-DACE-8F5C-18C7-FDD4-CC984D1CFB1C" x="102px" y="187px" width="17px" height="82px" />
      <rect id="00BDC8FA-63FA-992D-5DC2-3F3E-954DA16CEF7A" x="125px" y="187px" width="61px" height="12px" />
      <rect id="BFBD2EC6-18C0-5941-33CD-069A-813346DF3E3A" x="192px" y="187px" width="32px" height="12px" />
      <rect id="1103B84D-4965-49B7-7CF4-42CE-147BDE1284AD" x="125px" y="205px" width="61px" height="30px" />
      <rect id="9875BB5B-7FF1-6084-5AED-6DFF-9748AE623C79" x="192px" y="205px" width="32px" height="30px" />
      <rect id="B4F558DE-D01C-825F-1724-FDCB-574DEFB8CBCB" x="6px" y="208px" width="90px" height="24px" />
      <rect id="9019A57A-8E02-0140-683F-CA11-D6397E0BC2EE" x="6px" y="238px" width="90px" height="29px" />
      <rect id="DD2E9888-45F6-0210-BC89-01C5-05DC8DBED70A" x="125px" y="241px" width="99px" height="28px" />
      <rect id="8CCA8096-B573-DAAE-2D65-E8B4-47DE599CABAE" x="259px" y="242px" width="20px" height="90px" />
      <rect id="CD714D9F-E144-6AA4-2F1C-8B19-E9AA25642D74" x="230px" y="257px" width="23px" height="95px" />
      <rect id="A21513EE-E27E-6427-9FB4-3896-626609264BB4" x="6px" y="273px" width="90px" height="29px" />
      <rect id="DF8E107C-5E41-11C0-CEFF-3895-F5C235ABD48B" x="102px" y="275px" width="122px" height="27px" />
      <rect id="B5420985-85AA-E9A7-4F1D-DFC5-E85A42C01902" x="6px" y="308px" width="70px" height="21px" />
      <rect id="8EA4BD35-6CA7-31BA-322F-B372-ECF559218DEA" x="82px" y="308px" width="49px" height="61px" />
      <rect id="97C07559-C46C-485A-2F3E-6C52-4F06F7391C32" x="82px" y="375px" width="49px" height="48px" />
      <rect id="93722152-EA54-DAA6-D61C-58AB-097055AC0D51" x="137px" y="308px" width="43px" height="61px" />
      <rect id="B0222B8B-63CC-BB3A-36EF-8283-1393BD2078F1" x="186px" y="308px" width="38px" height="61px" />
      <rect id="8FEE636F-F28B-78E4-34F7-B08A-38E2EA8D2B7F" x="6px" y="335px" width="70px" height="35px" />
      <rect id="459E57A4-5549-BD32-73C4-5A6B-D362B52AC1B9" x="259px" y="338px" width="20px" height="85px" />
      <rect id="10C1991E-B113-87EC-8A65-93D7-E8C54543175F" x="230px" y="358px" width="23px" height="11px" />
      <rect id="CCABA381-6F68-F24F-3BA0-456A-6DA57DC35F21" x="6px" y="174px" width="90px" height="28px" />
      <rect id="514E2E34-B598-A8E6-4DB0-D414-5F5EC5110AB3" x="137px" y="375px" width="87px" height="48px" />
      <rect id="033D21CF-F864-A6CD-E749-E8F5-33604130AA8E" x="230px" y="375px" width="23px" height="48px" />
      <rect id="B706D725-CEE1-AE6D-E57E-89B0-FBAB06400A54" x="6px" y="376px" width="70px" height="47px" />
    </svg>

    <svg id="mediamaking" x="941" y="934" xmlns="http://www.w3.org/2000/svg">
      <rect id="84790961-38E6-34D0-BE02-EAB5-72990B688E74" x="6px" y="6px" width="58px" height="18px" />
      <rect id="D8D70E11-C0DD-8BDA-D393-1E74-E552F81DFD22" x="6px" y="78px" width="58px" height="55px" />
      <rect id="569C480E-2A6F-22BC-D09C-2934-23FA56B8A1CC" x="133px" y="6px" width="25px" height="56px" />
      <rect id="152C34CB-53C4-5187-245E-69B4-166DB78D2F6F" x="164px" y="6px" width="38px" height="56px" />
      <rect id="73A9E1E9-C969-A5D4-9188-2056-F2F4CA30C2F2" x="208px" y="6px" width="25px" height="56px" />
      <rect id="567B6551-9F6B-D812-34E1-B458-77DC1EFA9FCB" x="239px" y="6px" width="40px" height="79px" />
      <rect id="74360C40-5877-CDBF-FD5E-8F21-D2EFF5466C18" x="6px" y="30px" width="58px" height="12px" />
      <rect id="69B5440A-5A2E-C16E-2106-A0C3-75BA02AE5C84" x="6px" y="48px" width="58px" height="24px" />
      <rect id="96B535E5-173F-0041-C260-A590-952BDC467832" x="70px" y="68px" width="88px" height="19px" />
      <rect id="F0BFAC4D-8449-45BD-8497-F3CD-1499B7F79FAA" x="164px" y="68px" width="69px" height="19px" />
      <rect id="983A0093-E98A-59CC-F54A-27D8-7788E231FD44" x="70px" y="6px" width="57px" height="56px" />
      <rect id="5DBD86FB-32EB-08DD-CC67-46CB-56FF9532E1F0" x="239px" y="91px" width="40px" height="79px" />
      <rect id="9921C52B-C5B1-E9A6-2140-93B1-210E0A760FAD" x="70px" y="93px" width="88px" height="40px" />
      <rect id="163608B3-471C-E139-E2AD-EAF6-352D358654DB" x="164px" y="93px" width="69px" height="14px" />
      <rect id="1826C376-1914-977D-0CA0-780D-F8299F9B635A" x="164px" y="113px" width="69px" height="45px" />
      <rect id="5B91C743-8297-52A6-DD6B-FD17-C31C32D1D170" x="6px" y="139px" width="58px" height="41px" />
      <rect id="B7FCEF34-4BFB-47BA-2413-6111-8C19399C316F" x="70px" y="139px" width="88px" height="41px" />
      <rect id="7DE695A7-127D-6A16-A6FD-086B-FB9313893FDF" x="164px" y="164px" width="69px" height="16px" />
      <rect id="E54862E2-0A1F-19C7-4713-4FA8-3288045147DC" x="239px" y="176px" width="40px" height="19px" />
      <rect id="069F3415-7B03-6117-5A23-B1EF-D26AFC887FFC" x="6px" y="186px" width="26px" height="100px" />
      <rect id="010E7477-0BF8-68FC-8150-2F78-A3292AC0EB1D" x="38px" y="186px" width="26px" height="100px" />
      <rect id="B8366792-1E5A-FE5B-3E01-DCEE-E7D1D91E170A" x="70px" y="186px" width="88px" height="21px" />
      <rect id="DB910598-8961-8E8D-9DC1-3113-61748BE1FF65" x="164px" y="186px" width="69px" height="21px" />
      <rect id="E42FD9DD-E4EC-18E8-8234-2C74-22D89706ABBA" x="239px" y="201px" width="40px" height="85px" />
      <rect id="A874D960-CD6C-156D-A4B0-00EA-418EA6725204" x="70px" y="213px" width="39px" height="19px" />
      <rect id="057AAE91-064D-011B-0DB4-CECA-40CF81A4CB17" x="115px" y="213px" width="43px" height="19px" />
      <rect id="6C40C682-BD65-9796-1C97-FE15-DFA6601E4D67" x="164px" y="213px" width="69px" height="19px" />
      <rect id="2C43E5F4-7B52-2916-6429-70A3-47BDAC20AF63" x="70px" y="238px" width="39px" height="48px" />
      <rect id="0D4168F6-6BD3-27DE-9AA3-52D0-5FC83C336920" x="115px" y="238px" width="43px" height="48px" />
      <rect id="644BCB23-5037-E32C-DD18-2050-7BB918BFB1CF" x="164px" y="238px" width="69px" height="48px" />
    </svg>

  </g>
</svg>
