<?xml version="1.0" encoding="utf-8"?>
<!-- Generator: Adobe Illustrator 18.1.1, SVG Export Plug-In . SVG Version: 6.00 Build 0)  -->
<!DOCTYPE svg PUBLIC "-//W3C//DTD SVG 1.1//EN" "http://www.w3.org/Graphics/SVG/1.1/DTD/svg11.dtd">
<svg version="1.1" id="Layer_1" xmlns="http://www.w3.org/2000/svg" xmlns:xlink="http://www.w3.org/1999/xlink" x="0px" y="0px"
	 viewBox="-49 141 512 512" enable-background="new -49 141 512 512" xml:space="preserve">
<path id="time-5-icon" d="M46.5,392.5c-0.3,10.2,0.4,20.2,2,30.4L4.8,434.2c-2.5-13.8-3.6-27.6-3.3-41.7H46.5L46.5,392.5z
	 M32.7,506.1L69.4,480c-5.3-8.8-9.8-18.2-13.4-28l-43.8,11.2C17.4,478.4,24.3,492.8,32.7,506.1z M110.3,525.4
	c-8.4-6.3-16.1-13.5-23-21.3l-36.9,26.2c10.9,12.8,23.4,24.3,37.1,34.1L110.3,525.4z M207.4,191c-56.2,0-111.2,22.5-148.3,59
	l-35.5-35.5l-23,126.2l126.2-23l-35.9-35.9c29-28.4,72.7-45.9,116.5-45.9c88.9,0,161,72.1,161,161s-72.1,161-161,161
	c-25.7,0-50-6-71.6-16.8l-22.7,38.9c28.3,14.6,60.3,22.8,94.4,22.8c113.8,0,206-92.2,206-206S321.2,191,207.4,191z M311.1,397.1
	h-90.5V295.9h-40.5v141.8h131V397.1z"/>
</svg>
