<?xml version="1.0" encoding="utf-8"?>
<!-- Generator: Adobe Illustrator 18.0.0, SVG Export Plug-In . SVG Version: 6.00 Build 0)  -->
<!DOCTYPE svg PUBLIC "-//W3C//DTD SVG 1.1//EN" "http://www.w3.org/Graphics/SVG/1.1/DTD/svg11.dtd">
<svg version="1.1" id="Layer_1" xmlns="http://www.w3.org/2000/svg" xmlns:xlink="http://www.w3.org/1999/xlink" x="0px" y="0px"
	 viewBox="0 0 350 370" enable-background="new 0 0 350 370" xml:space="preserve">
<g>
	<g>
		<circle cx="72.7" cy="270.5" r="5.2"/>
	</g>
	<g>
		<circle cx="72.7" cy="290.6" r="5.2"/>
	</g>
	<g>
		<circle cx="72.7" cy="310.7" r="5.2"/>
	</g>
	<g>
		<rect x="69.2" y="152.7" width="7" height="94.3"/>
	</g>
	<g>
		<rect x="142.4" y="195.4" width="79.7" height="7"/>
	</g>
	<g>
		<rect x="142.4" y="209" width="79.7" height="7"/>
	</g>
	<g>
		<rect x="142.4" y="222.6" width="79.7" height="7"/>
	</g>
	<g>
		<rect x="142.4" y="236.3" width="79.7" height="7"/>
	</g>
	<path d="M299,44.3H71L50.4,58l0.4,0.5h-0.3v283h232.4v-15.2H299V44.3z M57.4,65.5h30.2v269H57.4V65.5z M275.8,334.5H94.6v-269
		h105.3v82.3l26.3-24.5l25.4,24.8V65.5h24.2V334.5z M206.9,65.5h37.7v65.9l-18.3-17.8l-19.4,18.1V65.5z M292,319.3h-9.2V58.5H62.2
		l10.9-7.3H292V319.3z"/>
	<g>
		<polygon points="241.6,338.9 234.6,338.9 234.6,182.2 129.3,182.2 129.3,336.8 122.3,336.8 122.3,175.2 241.6,175.2 		"/>
	</g>
</g>
</svg>
