<?xml version="1.0" encoding="utf-8"?>
<!-- Generator: Adobe Illustrator 18.0.0, SVG Export Plug-In . SVG Version: 6.00 Build 0)  -->
<!DOCTYPE svg PUBLIC "-//W3C//DTD SVG 1.1//EN" "http://www.w3.org/Graphics/SVG/1.1/DTD/svg11.dtd">
<svg version="1.1" id="Layer_1" xmlns="http://www.w3.org/2000/svg" xmlns:xlink="http://www.w3.org/1999/xlink" x="0px" y="0px"
	 viewBox="0 0 350 370" enable-background="new 0 0 350 370" xml:space="preserve">
<g>
	<path fill="#231F20" d="M175.3,158.3c2.2,0,4-1.8,4-4V94.8c0-2.2-1.8-4-4-4s-4,1.8-4,4v59.6C171.3,156.5,173.1,158.3,175.3,158.3z"
		/>
	<path fill="#231F20" d="M257.6,216l-0.3-3.7h-3.7c-22.7,0-40.7,6.5-53.4,19.2c-5.8,5.8-10.4,12.8-13.6,20.9v-33.5l41.3-55.1
		c1.5-1.6,9.2-10.1,13.3-22.8c4.1-12.8,5.2-32.3-13.4-52.1l-52.3-57.6l-51.9,57.2c-1,1-9.9,10.1-14.1,23.7
		c-5.3,17.5-0.5,35.2,13.8,51.2l40.6,55.5v34.8c-3.3-8.6-8.1-16.1-14.2-22.2c-12.7-12.8-30.6-19.2-53.4-19.2h-3.7l-0.3,3.7
		c-0.1,1.1-1.8,26.2,15.9,45.3c12.4,13.4,31.1,20.3,55.6,20.5v40.3c0,9.5,4.9,16.6,11.3,16.6c6.5,0,11.3-7.1,11.3-16.6v-40.3
		c24.2-0.3,42.7-7.1,55-20.4C259.3,242.2,257.7,217.1,257.6,216z M249.6,220.4c-0.3,6.9-2.3,23-13.9,35.5
		c-10.3,11.1-25.9,17.1-46.2,17.8c0.8-7.2,3.9-23.8,16.4-36.5C216.3,226.8,231,221.1,249.6,220.4z M114.3,255.9
		c-11.6-12.5-13.6-28.6-13.9-35.5c18.6,0.7,33.3,6.3,43.7,16.7c12.6,12.6,15.7,29.3,16.5,36.5C140.1,273,124.6,267,114.3,255.9z
		 M152.1,90.8c-2.2,0-4,1.8-4,4V148c0,12.4,6.2,23.6,15.8,28.8v28.6l-34.2-46.8l-0.2-0.3c-30.9-34.4-1.5-62.9-0.2-64.1l46.3-51
		L222,94.4c30.3,32.4,1.3,62.8,0.1,64.1l-0.2,0.2l-35.3,46.9v-28.8c9.6-5.2,15.8-16.4,15.8-28.8V94.8c0-2.2-1.8-4-4-4s-4,1.8-4,4
		V148c0,13.1-8.6,23.7-19.2,23.7s-19.2-10.6-19.2-23.7V94.8C156.1,92.6,154.3,90.8,152.1,90.8z M175.3,330.7c-0.9,0-3.3-3-3.3-8.6
		V179.5c2.2,0.3,4.4,0.3,6.6,0v142.6C178.6,327.7,176.1,330.7,175.3,330.7z"/>
</g>
</svg>
