<?xml version="1.0" encoding="utf-8"?>
<!-- Generator: Adobe Illustrator 18.0.0, SVG Export Plug-In . SVG Version: 6.00 Build 0)  -->
<!DOCTYPE svg PUBLIC "-//W3C//DTD SVG 1.1//EN" "http://www.w3.org/Graphics/SVG/1.1/DTD/svg11.dtd">
<svg version="1.1" id="Layer_1" xmlns="http://www.w3.org/2000/svg" xmlns:xlink="http://www.w3.org/1999/xlink" x="0px" y="0px"
	 viewBox="0 0 350 370" enable-background="new 0 0 350 370" xml:space="preserve">
<g>
	<path fill="none" d="M67.7,316.4c1.8,0,3.3-0.9,4.3-2.4h-8.6C64.3,315.4,65.9,316.4,67.7,316.4z"/>
	<path d="M264,312.3c-0.2,0-0.3,0-0.5,0c-0.3,0-19.7,2.5-37.4-1.1v7.1c7.7,1.5,15.4,1.9,21.9,1.9c8.4,0,14.7-0.7,16.1-0.9h18.1v-7
		H264z"/>
	<rect x="125.9" y="307" width="7" height="7"/>
	<path d="M73,307.1v3.5c0,1.3-0.4,2.4-1,3.4H73L73,307.1L73,307.1z"/>
	<g>
		<path fill="none" d="M120.9,145.7C120.9,145.7,120.9,145.7,120.9,145.7l-47.4-0.1v0c-2,0-4-0.5-5.8-1.3v51h56.1v-51l-0.6,0.5
			C122.7,145.4,121.8,145.7,120.9,145.7z M81.7,186.7c-3.4,0-6.2-2.8-6.2-6.2s2.8-6.2,6.2-6.2c3.4,0,6.2,2.8,6.2,6.2
			S85.1,186.7,81.7,186.7z"/>
		<path fill="none" d="M200.5,133.3c-0.6-0.7-1-1.5-1-2.4l0-4.7h-38.4c-1.9,0-3.5-1.6-3.5-3.5v-3h-8l-18.8,17.9v61.2
			c0,1.9-1.6,3.5-3.5,3.5h-3v8l25.1,26.4c0.6,0.7,1,1.5,1,2.4l0,4.7h38.4c1.9,0,3.5,1.6,3.5,3.5v3h8l18.8-17.9v-61.2
			c0-1.9,1.6-3.5,3.5-3.5h3v-8L200.5,133.3z"/>
		<path fill="none" d="M150.3,286.5c-0.1,7.2-5.6,13.1-12.3,13.1c0,0,0,0,0,0c-1.8,0-3.5-0.4-5.1-1.2v8.7h52.4v-56.1h-34.9
			L150.3,286.5L150.3,286.5z M170.5,286.8c3.4,0,6.2,2.8,6.2,6.2s-2.8,6.2-6.2,6.2c-3.4,0-6.2-2.8-6.2-6.2S167.1,286.8,170.5,286.8z
			"/>
		<path fill="none" d="M229.1,224.3C229.1,224.3,229.1,224.3,229.1,224.3l47.4,0.1v0c2,0,4,0.5,5.8,1.3v-51h-56.1v51l0.6-0.5
			C227.3,224.6,228.2,224.3,229.1,224.3z M268.3,183.3c3.4,0,6.2,2.8,6.2,6.2s-2.8,6.2-6.2,6.2c-3.4,0-6.2-2.8-6.2-6.2
			S264.9,183.3,268.3,183.3z"/>
		<path fill="none" d="M35.7,92.9c-3.2,0-5.8,2.4-5.8,5.3s2.6,5.3,5.8,5.3c0.9,0,1.7,0.3,2.3,0.9c1.4-0.5,3-0.8,4.6-0.8h18.2V92.9
			H35.7z"/>
		<path fill="none" d="M42.5,110.6c-3.2,0-5.8,2.4-5.8,5.3s2.6,5.3,5.8,5.3h18.2v-10.6H42.5z"/>
		<path fill="none" d="M199.7,83.5c0.1-7.2,5.6-13.1,12.3-13.1c0,0,0,0,0,0c1.8,0,3.6,0.5,5.1,1.3V63h-52.4v56.1h34.9L199.7,83.5
			L199.7,83.5z M179.5,83.2c-3.4,0-6.2-2.8-6.2-6.2s2.8-6.2,6.2-6.2c3.4,0,6.2,2.8,6.2,6.2S182.9,83.2,179.5,83.2z"/>
		<path d="M81.1,110.6c1.9,0,3.5-1.6,3.5-3.5s-1.6-3.5-3.5-3.5H67.7v7H81.1z"/>
		<path d="M67.7,121.2v1.3c1.4-0.7,2.9-1.1,4.5-1.3H67.7z"/>
		<path d="M42.5,110.6h18.2v-7H42.5c-1.6,0-3.2,0.3-4.6,0.8c0.7,0.6,1.2,1.6,1.2,2.6c0,1.9-1.6,3.5-3.5,3.5c-1.5,0-2.9-0.3-4.2-0.7
			c-1.1,1.8-1.7,3.9-1.7,6.1c0,6.8,5.7,12.3,12.8,12.3h18.2v-7H42.5c-3.2,0-5.8-2.4-5.8-5.3S39.3,110.6,42.5,110.6z"/>
		<path d="M73.7,128.1c-0.3,0-0.7,0-1,0.1h24.8c1.9,0,3.5-1.6,3.5-3.5s-1.6-3.5-3.5-3.5H73.8L73.7,128.1
			C73.8,128.1,73.8,128.1,73.7,128.1z"/>
		<path d="M78.2,92.9c1.9,0,3.5-1.6,3.5-3.5s-1.6-3.5-3.5-3.5H67.7v7H78.2z"/>
		<path d="M38,104.4c-0.6-0.5-1.4-0.9-2.3-0.9c-3.2,0-5.8-2.4-5.8-5.3s2.6-5.3,5.8-5.3h25.1v-7H42c1.7,0.2,3,1.7,3,3.5
			c0,1.9-1.6,3.5-3.5,3.5c-4.6,0-8.7-2.4-10.9-6c-4.5,1.9-7.7,6.2-7.7,11.3c0,5.3,3.6,9.9,8.5,11.6C32.9,107.4,35.2,105.4,38,104.4z
			"/>
		<path d="M39.2,107c0-1.1-0.5-2-1.2-2.6c-2.8,1-5.1,3-6.5,5.4c1.3,0.5,2.8,0.7,4.2,0.7C37.6,110.5,39.2,109,39.2,107z"/>
		<path d="M42,85.9c-0.2,0-0.3,0-0.5,0c-3.2,0-5.8-2.4-5.8-5.3s2.6-5.3,5.8-5.3h19.2v-7h-7.8v7h-3.5c-4.9,0-9.1-2.6-11.3-6.5
			c-5.4,1.4-9.4,6.2-9.4,11.8c0,2.3,0.7,4.5,1.9,6.3c1.5-0.6,3.2-1,5-1H42z"/>
		<path d="M81.1,75.3c1.9,0,3.5-1.6,3.5-3.5s-1.6-3.5-3.5-3.5H67.7v7H81.1z"/>
		<path d="M41.6,92.9c1.9,0,3.5-1.6,3.5-3.5c0-1.8-1.3-3.2-3-3.5h-6.3c-1.8,0-3.5,0.4-5,1C32.9,90.5,36.9,92.9,41.6,92.9z"/>
		<path d="M145.8,69c0.7,0.7,1.5,1,2.5,1h9.4v-7h-8c-5.1-4.6-11.7-7.7-18.8-9.7v7.3C136.6,62.4,141.9,65.1,145.8,69z"/>
		<path d="M52.9,68.3L52.9,68.3l-3.5,0c-3.2,0-5.8-2.4-5.8-5.3c0-2.9,2.6-5.3,5.8-5.3h11.3v-7H49.4c-7,0-12.8,5.5-12.8,12.3
			c0,2.1,0.6,4.1,1.5,5.8c1.1-0.3,2.2-0.5,3.4-0.5H52.9z"/>
		<path d="M86,57.7c0.2,0,0.3,0,0.5,0c0.1,0,10.8-1.4,23.7-0.6c4.2,0.3,9,0.8,13.7,1.8v-7.1c-17.6-3.3-35.6-1.3-38.1-1H67.7v7H86z"
			/>
		<path d="M49.4,75.3h3.5v-7H41.6c-1.2,0-2.3,0.2-3.4,0.5C40.3,72.6,44.5,75.3,49.4,75.3z"/>
		<path d="M157.7,119.7v-7h-9.4c-0.9,0-1.8,0.3-2.4,1l-15,14.3v9.7l18.8-17.9H157.7z"/>
		<path d="M119.5,138.7l-45.8-0.1l0,7c-0.1,0-0.1,0-0.2,0v0l47.4,0.1c0,0,0,0,0,0c0.9,0,1.8-0.3,2.4-1l0.6-0.5v-9.7L119.5,138.7z"/>
		<path d="M73.8,121.1C73.8,121.1,73.8,121.1,73.8,121.1c-0.6,0-1,0-1.5,0.1L73.8,121.1L73.8,121.1z"/>
		<path d="M73.5,138.6l0.2,0v0c-1.7,0-3.4-0.6-4.6-1.7c-0.7-0.6-1.2-1.3-1.4-2.1v9.4c1.8,0.8,3.8,1.3,5.8,1.3L73.5,138.6z"/>
		<path d="M69.2,129.8c1-0.9,2.2-1.4,3.6-1.6h-5v3.7C68,131.1,68.5,130.4,69.2,129.8z"/>
		<path d="M60.5,133.3c0,0.8,0.1,1.7,0.3,2.5v-4.9C60.5,131.7,60.5,132.5,60.5,133.3z"/>
		<path d="M73.7,128.1C73.8,128.1,73.8,128.1,73.7,128.1l0-6.9h-1.5c-1.6,0.2-3.1,0.6-4.5,1.3v5.7h5
			C73.1,128.1,73.4,128.1,73.7,128.1z"/>
		<path d="M73.5,145.6c0.1,0,0.1,0,0.2,0l0-7l-0.2,0L73.5,145.6z"/>
		<path d="M164.1,70h-6.3v42.6h3.8v7h-3.8v3c0,1.9,1.6,3.5,3.5,3.5h38.4l0-7h-34.9V63h52.4v-7h-55.9c-1.9,0-3.5,1.6-3.5,3.5V63h6.3
			V70z"/>
		<path d="M327.1,126.2v-7h-31.8c-0.1,2.3-0.3,4.6-0.6,7H327.1z"/>
		<rect x="157.7" y="63" width="6.3" height="7"/>
		<rect x="157.7" y="112.7" width="3.8" height="7"/>
		<circle cx="179.5" cy="77" r="6.2"/>
		<rect x="234.7" y="56" width="7" height="7"/>
		<rect x="252.4" y="56" width="7" height="7"/>
		<path d="M224.2,83.8c0-0.5,0-1-0.1-1.5L224.2,83.8L224.2,83.8z"/>
		<path d="M217.1,71.7v11c0.1,0.4,0.1,0.7,0.1,1.1l6.9,0v-1.5C223.6,77.6,220.9,73.6,217.1,71.7z"/>
		<path d="M199.7,83.5c0,0.1,0,0.1,0,0.2l7,0l0-0.2L199.7,83.5z"/>
		<path d="M282.5,236.7c0-0.5-0.1-1-0.3-1.5v3C282.5,237.7,282.5,237.2,282.5,236.7z"/>
		<rect x="275.3" y="167.7" width="7" height="6.3"/>
		<rect x="225.6" y="167.7" width="7" height="3.8"/>
		<circle cx="268.3" cy="189.5" r="6.2"/>
		<path d="M276.3,241.9c0.3,0,0.7,0,1-0.1h-24.8c-1.9,0-3.5,1.6-3.5,3.5s1.6,3.5,3.5,3.5h23.8L276.3,241.9
			C276.2,241.9,276.2,241.9,276.3,241.9z"/>
		<path d="M282.3,248.8v-1.3c-1.4,0.7-2.9,1.1-4.5,1.3H282.3z"/>
		<path d="M268.9,259.4c-1.9,0-3.5,1.6-3.5,3.5s1.6,3.5,3.5,3.5h13.4v-7H268.9z"/>
		<path d="M271.8,277.1c-1.9,0-3.5,1.6-3.5,3.5s1.6,3.5,3.5,3.5h10.5v-7H271.8z"/>
		<path d="M268.9,294.7c-1.9,0-3.5,1.6-3.5,3.5s1.6,3.5,3.5,3.5h13.4v-7H268.9z"/>
		<path d="M192.3,250.3v7h9.4c0.9,0,1.8-0.3,2.4-1l15-14.3v-9.7l-18.8,17.9H192.3z"/>
		<path d="M230.5,231.3l45.8,0.1l0-7c0.1,0,0.1,0,0.2,0v0l-47.4-0.1c0,0,0,0,0,0c-0.9,0-1.8,0.3-2.4,1l-0.6,0.5v9.7L230.5,231.3z"/>
		<polygon points="226.1,235.4 226.1,225.8 219.1,232.4 219.1,242.1 		"/>
		<path d="M276.5,231.4l-0.2,0v0c1.7,0,3.4,0.6,4.6,1.7c0.7,0.6,1.2,1.3,1.4,2.1v-9.4c-1.8-0.8-3.8-1.3-5.8-1.3L276.5,231.4z"/>
		<path d="M280.8,240.2c-1,0.9-2.2,1.4-3.6,1.6h5v-3.7C282,238.9,281.5,239.6,280.8,240.2z"/>
		<path d="M276.2,248.9C276.2,248.9,276.2,248.9,276.2,248.9c0.6,0,1,0,1.5-0.1L276.2,248.9L276.2,248.9z"/>
		<path d="M276.3,241.9C276.2,241.9,276.2,241.9,276.3,241.9l0,6.9h1.5c1.6-0.2,3.1-0.6,4.5-1.3v-5.7h-5
			C276.9,241.9,276.6,241.9,276.3,241.9z"/>
		<g>
			<path d="M327.1,63v-7h-32.9c-1.4-5.4-6.2-9.4-11.8-9.4c-2.1,0-4.1,0.6-5.8,1.5c-1.4-5.4-6.2-9.4-11.8-9.4c-2.3,0-4.5,0.7-6.3,1.9
				c-1.9-4.5-6.2-7.7-11.3-7.7c-5.3,0-9.9,3.6-11.6,8.5c-1.8-1.1-3.9-1.7-6.1-1.7c-6.8,0-12.3,5.7-12.3,12.8V56v7v8.7
				c3.8,1.9,6.5,5.9,7,10.5V63v-7v-3.5c0-3.2,2.4-5.8,5.3-5.8s5.3,2.6,5.3,5.8V56h7v-3.5c0-1.6-0.3-3.2-0.8-4.6
				c0.5-0.6,0.9-1.4,0.9-2.3c0-3.2,2.4-5.8,5.3-5.8s5.3,2.6,5.3,5.8V56h7v-4c0-0.2,0-0.3,0-0.5c0-3.2,2.4-5.8,5.3-5.8
				c2.9,0,5.3,2.6,5.3,5.8V56v7v28.1c0,1.9,1.6,3.5,3.5,3.5s3.5-1.6,3.5-3.5V63v-0.1h0v-3.5c0-1.3,0.4-2.4,1-3.4
				c1-1.4,2.5-2.4,4.3-2.4s3.3,0.9,4.3,2.4c0.6,1,1,2.1,1,3.4V63v33c0,0.2,0,0.3,0,0.5c0,0.1,1.3,10.3,0.6,22.7c0,0.3,0,0.7-0.1,1
				c-0.1,1.9-0.3,3.9-0.5,6c-1.2,10.5-4.3,22.5-11.4,29.7c-0.7,0.7-1,1.5-1,2.5v9.4h7v-8c7.8-8.6,11.2-21.5,12.5-33.5
				c0.3-2.4,0.4-4.7,0.6-7c0.6-11.8-0.5-21.6-0.7-23.4V63H327.1z"/>
			<path d="M238.2,94.6c1.9,0,3.5-1.6,3.5-3.5V63h-7v28.1C234.7,93.1,236.3,94.6,238.2,94.6z"/>
			<path d="M220.6,111.1c1.9,0,3.5-1.6,3.5-3.5V83.8l-6.9,0c0-0.4,0-0.7-0.1-1.1v24.9C217.1,109.5,218.7,111.1,220.6,111.1z"/>
			<path d="M255.9,91.7c1.9,0,3.5-1.6,3.5-3.5V63h-7v25.2C252.4,90.1,253.9,91.7,255.9,91.7z"/>
			<path d="M232.6,158.3c0-0.9-0.3-1.8-1-2.4l-25.1-26.4l0-3.3l0-7l0.1-35.4l-7,0c0-0.1,0-0.1,0-0.2l0,0l-0.1,35.6l0,7l0,4.7
				c0,0.9,0.3,1.8,1,2.4l25.1,26.4v8h7V158.3z"/>
			<path d="M206.7,83.7L206.7,83.7c0-3.4,2.4-6.3,5.3-6.3h0c2.5,0,4.7,2.3,5.1,5.2v-11c-1.6-0.8-3.3-1.2-5.1-1.3c0,0,0,0,0,0
				c-6.7,0-12.1,5.8-12.3,13.1l7,0L206.7,83.7z"/>
			<path d="M275.3,174.1v-6.3h-42.6v3.8h-7v-3.8h-3c-1.9,0-3.5,1.6-3.5,3.5v61.2l7-6.7v-51h56.1v51v9.4c0.2,0.5,0.3,1,0.3,1.5
				c0,0.5-0.1,1-0.3,1.5v3.7v5.7v1.3h7h18.2c3.2,0,5.8,2.4,5.8,5.3s-2.6,5.3-5.8,5.3h-18.2h-7v7h7h18.2c1.6,0,3.2-0.3,4.6-0.8
				c0.6,0.5,1.4,0.9,2.3,0.9c3.2,0,5.8,2.4,5.8,5.3s-2.6,5.3-5.8,5.3h-25.1h-7v7h7H308c0.2,0,0.3,0,0.5,0c3.2,0,5.8,2.4,5.8,5.3
				s-2.6,5.3-5.8,5.3h-19.2h-7v7h7h7.8v0h3.5c3.2,0,5.8,2.4,5.8,5.3c0,2.9-2.6,5.3-5.8,5.3h-11.3h-7v7v17.8h7v-17.8h11.3
				c7,0,12.8-5.5,12.8-12.3c0-2.1-0.6-4.1-1.5-5.8c5.4-1.4,9.4-6.2,9.4-11.8c0-2.3-0.7-4.5-1.9-6.3c4.5-1.9,7.7-6.2,7.7-11.3
				c0-5.3-3.6-9.9-8.5-11.6c1.1-1.8,1.7-3.9,1.7-6.1c0-6.8-5.7-12.3-12.8-12.3h-18.2v-2.7c0.2-0.8,0.3-1.6,0.3-2.4
				c0-0.8-0.1-1.7-0.3-2.5v-63c0-1.9-1.6-3.5-3.5-3.5h-3.5v6.3H275.3z"/>
		</g>
		<path d="M276.5,224.4c-0.1,0-0.1,0-0.2,0l0,7l0.2,0L276.5,224.4z"/>
		<g>
			<path d="M219.1,309.4c-5.8-1.8-11.1-4.5-15-8.4c-0.7-0.7-1.5-1-2.5-1h-9.4v7h8c5.1,4.6,11.7,7.7,18.8,9.7v20.4h7v-18.8v-7.1
				C223.8,310.7,221.4,310.2,219.1,309.4z"/>
			<path d="M185.9,300h6.3v-42.6h-3.8v-7h3.8v-3c0-1.9-1.6-3.5-3.5-3.5h-38.4l0,7h34.9V307h-52.4v7h55.9c1.9,0,3.5-1.6,3.5-3.5V307
				h-6.3V300z"/>
		</g>
		<rect x="185.9" y="300" width="6.3" height="7"/>
		<rect x="188.5" y="250.3" width="3.8" height="7"/>
		<circle cx="170.5" cy="293" r="6.2"/>
		<path d="M129.2,295.5c-1.9-2.1-3-4.8-3.3-7.7V307h7v-8.7C131.5,297.6,130.3,296.7,129.2,295.5z"/>
		<path d="M132.9,287.2v-24.8c0-1.9-1.6-3.5-3.5-3.5s-3.5,1.6-3.5,3.5v23.8l6.9,0C132.8,286.6,132.8,286.9,132.9,287.2z"/>
		<path d="M125.9,314v3.5c0,3.2-2.4,5.8-5.3,5.8c-2.9,0-5.3-2.6-5.3-5.8V314v-7v-28.1c0-1.9-1.6-3.5-3.5-3.5s-3.5,1.6-3.5,3.5V307v7
			v3.5c0,1.6,0.3,3.2,0.8,4.6c-0.5,0.6-0.9,1.4-0.9,2.3c0,3.2-2.4,5.8-5.3,5.8c-2.9,0-5.3-2.6-5.3-5.8V314v-7v-25.2
			c0-1.9-1.6-3.5-3.5-3.5s-3.5,1.6-3.5,3.5V307v7v4c0,0.2,0,0.3,0,0.5c0,3.2-2.4,5.8-5.3,5.8c-2.9,0-5.3-2.6-5.3-5.8V314v-7v-28.1
			c0-1.9-1.6-3.5-3.5-3.5s-3.5,1.6-3.5,3.5V307v0.1v6.9h-1.1c-1,1.4-2.5,2.4-4.3,2.4c-1.8,0-3.3-0.9-4.3-2.4c-0.6-1-1-2.1-1-3.4V307
			v-33c0-0.2,0-0.3,0-0.5c0-0.1-1.3-10.3-0.6-22.7c0-0.3,0-0.7,0.1-1c0.1-1.9,0.3-3.9,0.5-6c1.2-10.5,4.3-22.5,11.4-29.7
			c0.7-0.7,1-1.5,1-2.5v-9.4h-7v8c-7.8,8.6-11.2,21.5-12.5,33.5H22.9v7h31.8c-0.6,11.8,0.5,21.6,0.7,23.4V307H22.9v7h32.9
			c1.4,5.4,6.2,9.4,11.8,9.4c2.1,0,4.1-0.6,5.8-1.5c1.4,5.4,6.2,9.4,11.8,9.4c2.3,0,4.5-0.7,6.3-1.9c1.9,4.5,6.2,7.7,11.3,7.7
			c5.3,0,9.9-3.6,11.6-8.5c1.8,1.1,3.9,1.7,6.1,1.7c6.8,0,12.3-5.7,12.3-12.8V314H125.9z"/>
		<path d="M149.5,236.7l-25.1-26.4v-8h-7v9.4c0,0.9,0.3,1.8,1,2.4l25.1,26.4l0,3.3h7l0-4.7C150.4,238.2,150.1,237.3,149.5,236.7z"/>
		<path d="M143.3,286.3l7,0c0,0.1,0,0.1,0,0.2l0,0l0.1-35.6h-7L143.3,286.3z"/>
		<polygon points="143.4,250.8 150.4,250.8 150.4,243.8 143.4,243.8 		"/>
		<path d="M125.8,286.2c0,0.5,0,1,0.1,1.5L125.8,286.2L125.8,286.2z"/>
		<path d="M138,292.5L138,292.5c-1.3,0-2.6-0.6-3.6-1.7c-0.9-1-1.4-2.2-1.6-3.6v11.1c1.6,0.8,3.3,1.2,5.1,1.2c0,0,0,0,0,0
			c6.7,0,12.1-5.8,12.3-13.1l-7,0l0-0.2l0,0C143.3,289.7,140.9,292.5,138,292.5z"/>
		<path d="M132.8,286.2l-6.9,0v1.5c0.3,2.9,1.5,5.6,3.3,7.7c1.1,1.2,2.3,2.1,3.7,2.8v-11.1C132.8,286.9,132.8,286.6,132.8,286.2z"/>
		<path d="M150.3,286.5c0-0.1,0-0.1,0-0.2l-7,0l0,0.2L150.3,286.5z"/>
		<path d="M130.9,32.9h-7v18.8c2.4,0.4,4.7,1,7,1.6V32.9z"/>
		<rect x="60.7" y="32.9" width="7" height="17.8"/>
		<path d="M60.7,128.2v2.7c0.2-0.9,0.5-1.9,1-2.7H60.7z"/>
		<path d="M74.7,195.9v6.3h42.6v-3.8h7v3.8h3c1.9,0,3.5-1.6,3.5-3.5v-61.2l-7,6.7v51H67.7v-51c-1.2-0.6-2.3-1.3-3.2-2.1
			c-1.9-1.7-3.2-3.9-3.8-6.3v63c0,1.9,1.6,3.5,3.5,3.5h3.5v-6.3H74.7z"/>
		<path d="M67.5,133.3c0,0.5,0.1,1,0.3,1.5v-3C67.5,132.3,67.5,132.8,67.5,133.3z"/>
		<path d="M64.5,124.5c1-0.9,2-1.6,3.2-2.1v-1.3h-7v7h1C62.4,126.8,63.3,125.6,64.5,124.5z"/>
		<rect x="60.7" y="103.6" width="7" height="7"/>
		<rect x="60.7" y="85.9" width="7" height="7"/>
		<rect x="60.7" y="68.3" width="7" height="7"/>
		<path d="M130.9,60.6v-7.3c-2.3-0.7-4.6-1.2-7-1.6v7.1C126.2,59.3,128.6,59.9,130.9,60.6z"/>
		<rect x="60.7" y="50.7" width="7" height="7"/>
		<polygon points="123.9,134.6 123.9,144.2 130.9,137.6 130.9,127.9 		"/>
		<path d="M64.5,142.1c1,0.9,2.1,1.6,3.2,2.1v-9.4c-0.2-0.5-0.3-1-0.3-1.5c0-0.5,0.1-1,0.3-1.5v-3.7h-6c-0.4,0.9-0.8,1.8-1,2.7v4.9
			C61.2,138.2,62.5,140.4,64.5,142.1z"/>
		<path d="M64.5,124.5c-1.2,1.1-2.1,2.3-2.8,3.7h6v-5.7C66.6,123,65.5,123.7,64.5,124.5z"/>
		<rect x="67.7" y="195.9" width="7" height="6.3"/>
		<rect x="117.4" y="198.5" width="7" height="3.8"/>
		<circle cx="81.7" cy="180.5" r="6.2"/>
	</g>
</g>
</svg>
