<?xml version="1.0" encoding="utf-8"?>
<!-- Generator: Adobe Illustrator 18.0.0, SVG Export Plug-In . SVG Version: 6.00 Build 0)  -->
<!DOCTYPE svg PUBLIC "-//W3C//DTD SVG 1.1//EN" "http://www.w3.org/Graphics/SVG/1.1/DTD/svg11.dtd">
<svg version="1.1" id="Layer_1" xmlns="http://www.w3.org/2000/svg" xmlns:xlink="http://www.w3.org/1999/xlink" x="0px" y="0px"
	 viewBox="0 0 350 370" enable-background="new 0 0 350 370" xml:space="preserve">
<g>
	<g>
		<g>
			<path fill="#FFFFFF" d="M87.5,298.9v-258c0-0.9,0.7-1.6,1.6-1.6h35.7c0.9,0,1.6,0.7,1.6,1.6v257.9c0,0.3-0.1,0.6-0.2,0.8
				l-17.6,30.3c-0.6,1-2.1,1.1-2.7,0l-18.2-30.2C87.6,299.5,87.5,299.2,87.5,298.9z"/>
			<path fill="#231F20" d="M107.2,334.2c-1.8,0-3.4-0.9-4.4-2.5l-18.2-30.2c-0.5-0.8-0.7-1.7-0.7-2.6v-258c0-2.8,2.3-5.1,5.1-5.1
				h35.7c2.8,0,5.1,2.3,5.1,5.1v257.9c0,0.9-0.2,1.8-0.7,2.5l-17.6,30.3C110.7,333.2,109,334.2,107.2,334.2z M91,298.4l16.2,27
				l15.7-27.1V42.8H91V298.4z"/>
		</g>
	</g>
	<g>
		<g>
			<path fill="#FFFFFF" d="M148,298.9V54.6c0-8.4,6.8-15.3,15.3-15.3h8.3c8.4,0,15.3,6.8,15.3,15.3v244.2c0,0.3-0.1,0.6-0.2,0.8
				l-17.6,30.3c-0.6,1-2.1,1.1-2.7,0l-18.2-30.2C148.1,299.5,148,299.2,148,298.9z"/>
			<path fill="#231F20" d="M167.7,334.2c-1.8,0-3.4-0.9-4.4-2.5l-18.2-30.2c-0.5-0.8-0.7-1.7-0.7-2.6V54.6
				c0-10.4,8.4-18.8,18.8-18.8h8.3c10.4,0,18.8,8.4,18.8,18.8v244.2c0,0.9-0.2,1.8-0.7,2.5l-17.6,30.3
				C171.2,333.2,169.5,334.2,167.7,334.2z M151.5,298.3l16.2,27l15.7-27.1V54.6c0-6.5-5.3-11.8-11.8-11.8h-8.3
				c-6.5,0-11.8,5.3-11.8,11.8V298.3z"/>
		</g>
	</g>
	<g>
		<g>
			<rect x="209.1" y="39.3" fill="#FFFFFF" width="64.3" height="291"/>
			<path fill="#231F20" d="M276.9,333.8h-71.3v-298h71.3V333.8z M212.6,326.8h57.3v-284h-57.3V326.8z"/>
		</g>
	</g>
	<g>
		<rect x="211.1" y="100" fill="#231F20" width="28.6" height="7"/>
	</g>
	<g>
		<rect x="211.1" y="112.8" fill="#231F20" width="14.1" height="7"/>
	</g>
	<g>
		<rect x="211.1" y="125.6" fill="#231F20" width="28.6" height="7"/>
	</g>
	<g>
		<rect x="211.1" y="138.4" fill="#231F20" width="14.1" height="7"/>
	</g>
	<g>
		<rect x="211.1" y="151.1" fill="#231F20" width="28.6" height="7"/>
	</g>
	<g>
		<rect x="211.1" y="163.9" fill="#231F20" width="14.1" height="7"/>
	</g>
	<g>
		<rect x="211.1" y="176.7" fill="#231F20" width="28.6" height="7"/>
	</g>
	<g>
		<rect x="211.1" y="189.5" fill="#231F20" width="14.1" height="7"/>
	</g>
	<g>
		<rect x="211.1" y="202.3" fill="#231F20" width="28.6" height="7"/>
	</g>
	<g>
		<rect x="211.1" y="215.1" fill="#231F20" width="14.1" height="7"/>
	</g>
	<g>
		<rect x="211.1" y="227.9" fill="#231F20" width="28.6" height="7"/>
	</g>
	<g>
		<rect x="211.1" y="240.7" fill="#231F20" width="14.1" height="7"/>
	</g>
	<g>
		<rect x="211.1" y="253.5" fill="#231F20" width="28.6" height="7"/>
	</g>
	<g>
		<rect x="211.1" y="266.3" fill="#231F20" width="14.1" height="7"/>
	</g>
	<g>
		<rect x="211.1" y="279.1" fill="#231F20" width="28.6" height="7"/>
	</g>
	<g>
		<rect x="211.1" y="291.9" fill="#231F20" width="14.1" height="7"/>
	</g>
	<g>
		<rect x="211.1" y="304.6" fill="#231F20" width="28.6" height="7"/>
	</g>
	<g>
		<rect x="87.7" y="285" fill="#231F20" width="39.7" height="7"/>
	</g>
	<g>
		<rect x="87.7" y="234" fill="#231F20" width="39.7" height="7"/>
	</g>
	<polygon fill="#231F20" points="127.5,68.5 77.1,68.5 77.1,68.5 73.1,68.5 73.1,144.3 80.2,144.3 80.2,75.5 127.5,75.5 	"/>
	<polygon fill="#231F20" points="171.2,285 171.2,75.5 186.5,75.5 186.5,68.5 147.7,68.5 147.7,75.5 164.2,75.5 164.2,285 
		147.2,285 147.2,292 187,292 187,285 	"/>
	<g>
		<circle fill="#FFFFFF" cx="241.2" cy="72.2" r="12"/>
		<path fill="#231F20" d="M241.2,87.7c-8.5,0-15.5-7-15.5-15.5s7-15.5,15.5-15.5s15.5,7,15.5,15.5S249.8,87.7,241.2,87.7z
			 M241.2,63.7c-4.7,0-8.5,3.8-8.5,8.5s3.8,8.5,8.5,8.5s8.5-3.8,8.5-8.5S245.9,63.7,241.2,63.7z"/>
	</g>
	<g>
		<circle fill="#231F20" cx="106.9" cy="255.5" r="4.7"/>
	</g>
	<g>
		<circle fill="#231F20" cx="106.9" cy="271.2" r="4.7"/>
	</g>
	<g>
		<rect x="101.9" y="319.7" fill="#231F20" width="10.3" height="8.2"/>
	</g>
	<g>
		<rect x="162.6" y="319.7" fill="#231F20" width="10.3" height="8.2"/>
	</g>
</g>
</svg>
