<?xml version="1.0" encoding="utf-8"?>
<!-- Generator: Adobe Illustrator 18.0.0, SVG Export Plug-In . SVG Version: 6.00 Build 0)  -->
<!DOCTYPE svg PUBLIC "-//W3C//DTD SVG 1.1//EN" "http://www.w3.org/Graphics/SVG/1.1/DTD/svg11.dtd">
<svg version="1.1" id="Layer_1" xmlns="http://www.w3.org/2000/svg" xmlns:xlink="http://www.w3.org/1999/xlink" x="0px" y="0px"
	 viewBox="0 0 350 370" enable-background="new 0 0 350 370" xml:space="preserve">
<g>
	<g>
		<path d="M112,302L112,302C87.2,302,67,281.8,67,256.9c0-24.8,20.2-45,45.1-45c24.9,0,45.1,20.2,45.1,45.1
			C157.1,281.8,136.9,302,112,302z M112,218.9c-21,0-38.1,17.1-38.1,38c0,21,17.1,38.1,38,38.1l0,3.5V295c21,0,38-17.1,38.1-38
			C150.1,236,133,218.9,112,218.9z"/>
	</g>
	<g>
		<path d="M112,281.5L112,281.5c-6.6,0-12.7-2.6-17.4-7.2c-4.6-4.6-7.2-10.8-7.2-17.4c0-13.5,11-24.5,24.5-24.5
			c6.6,0,12.7,2.6,17.4,7.2c4.6,4.6,7.2,10.8,7.2,17.4C136.6,270.5,125.5,281.5,112,281.5z M112,239.4c-9.7,0-17.5,7.9-17.5,17.5
			c0,4.7,1.8,9.1,5.1,12.4s7.7,5.1,12.4,5.1l0,3.5v-3.5c9.7,0,17.5-7.9,17.5-17.5c0-4.7-1.8-9.1-5.1-12.4S116.7,239.4,112,239.4z"/>
	</g>
	<g>
		<path d="M126,336.5l-28.5,0l0-17.1c-7.1-1.7-13.7-4.5-19.8-8.4l-12.1,12.1l-20.2-20.2l12.3-12.3c-3.8-6.1-6.4-12.7-7.9-19.7
			l-17.4,0l0-28.5l17.7,0c1.6-6.9,4.4-13.4,8.2-19.4l-12.4-12.4L66,190.4l12.5,12.5c6-3.8,12.6-6.4,19.5-8l0-17.6l28.5,0l0,17.5
			c7,1.6,13.5,4.3,19.6,8.1l12.2-12.2l20.2,20.2l-12.2,12.2c3.9,6.1,6.6,12.8,8.2,19.8l17,0l0,28.5l-16.9,0
			c-1.6,7.1-4.4,13.8-8.3,20l11.9,11.9L158,323.5l-11.9-11.9c-6.2,3.9-12.9,6.6-20.1,8.2L126,336.5z M104.5,329.5l14.5,0l0-15.6
			l2.9-0.5c8.2-1.4,15.8-4.5,22.6-9.2l2.4-1.7l11.1,11.1l10.3-10.3l-11-11l1.7-2.4c4.8-6.8,7.9-14.4,9.4-22.5l0.5-2.9l15.7,0l0-14.5
			l-15.8,0l-0.5-2.9c-1.5-8.1-4.6-15.6-9.3-22.4l-1.7-2.4l11.3-11.3l-10.3-10.3L147,212l-2.4-1.7c-6.7-4.6-14.2-7.7-22.2-9.2
			l-2.9-0.5l0-16.3l-14.5,0l0,16.3l-2.9,0.5c-8,1.4-15.4,4.5-22.1,9.1l-2.4,1.6L66,200.3l-10.3,10.3l11.6,11.6l-1.7,2.4
			c-4.7,6.6-7.8,14-9.3,22l-0.5,2.8l-16.4,0l0,14.5l16.2,0l0.5,2.9c1.4,8,4.4,15.6,9,22.3l1.6,2.4l-11.4,11.4l10.3,10.3L76.9,302
			l2.4,1.7c6.7,4.8,14.2,8,22.3,9.5l2.8,0.5L104.5,329.5z"/>
	</g>
	<g>
		<circle cx="112" cy="256.9" r="4.4"/>
	</g>
	<g>
		<circle cx="112" cy="226.3" r="3.5"/>
	</g>
	<g>
		<circle cx="112" cy="288.4" r="3.5"/>
	</g>
	<g>
		<circle cx="142.8" cy="257.1" r="3.5"/>
	</g>
	<g>
		<circle cx="81.2" cy="257.1" r="3.5"/>
	</g>
	<g>
		<path d="M175.7,154.7c-18.1,0-34.6-11.4-41-28.3c-4.1-10.9-3.8-22.8,1.1-33.5c4.8-10.7,13.5-18.8,24.4-22.9
			c5-1.9,10.2-2.8,15.5-2.8c18.1,0,34.6,11.4,41,28.3c8.5,22.6-2.9,47.9-25.5,56.5C186.2,153.8,181,154.7,175.7,154.7z M175.7,73.7
			c-4.5,0-8.9,0.8-13.1,2.4c-9.3,3.5-16.7,10.4-20.7,19.5c-4.1,9-4.4,19.1-0.9,28.4c5.4,14.4,19.4,24.1,34.8,24.1
			c4.5,0,8.9-0.8,13.1-2.4c19.2-7.2,28.9-28.7,21.6-47.9C205.1,83.4,191.1,73.7,175.7,73.7z"/>
	</g>
	<g>
		<path d="M175.7,134.7c-9.9,0-18.8-6.2-22.3-15.4c-4.6-12.3,1.6-26.1,13.9-30.7c2.7-1,5.5-1.5,8.4-1.5c9.9,0,18.8,6.2,22.3,15.4
			c4.6,12.3-1.6,26.1-13.9,30.7C181.4,134.2,178.6,134.7,175.7,134.7z M175.7,93.7c-2.1,0-4.1,0.4-6.1,1.1
			c-8.9,3.3-13.4,13.3-10,22.1c2.5,6.7,9,11.1,16.1,11.1c2.1,0,4.1-0.4,6.1-1.1c8.9-3.3,13.4-13.3,10-22.1
			C189.3,98.2,182.8,93.7,175.7,93.7z"/>
	</g>
	<g>
		<path d="M189.9,188.3l-5.9-15.5c-7,0.9-14.1,0.6-21-0.9l-6.8,15.1L131,175.7l7-15.4c-5.6-4.3-10.3-9.4-14.1-15.3l-15.8,6
			l-9.8-25.8l16.1-6.1c-0.9-6.9-0.6-13.8,0.8-20.6l-15.6-7.1l11.4-25.2l15.7,7.1c4.2-5.5,9.3-10.3,15.1-14.1l-6-16l25.8-9.8l6,16
			c6.9-1,13.9-0.7,20.8,0.6l6.9-15.4l25.2,11.4l-6.9,15.3c5.7,4.3,10.5,9.4,14.4,15.3l15.5-5.8l9.8,25.8l-15.4,5.8
			c1,7.1,0.8,14.2-0.7,21.2l14.9,6.7l-11.4,25.2l-15-6.8c-4.3,5.7-9.6,10.5-15.6,14.4l5.8,15.3L189.9,188.3z M188.3,165.4l5.4,14.4
			l13.4-5.1l-5.4-14.3l2.4-1.4c7-4.1,12.9-9.5,17.5-16.2l1.6-2.3l13.9,6.3l5.9-13.1l-13.8-6.3l0.7-2.7c2-7.9,2.3-15.9,0.8-23.8
			l-0.5-2.7l14.4-5.4l-5.1-13.4l-14.4,5.4l-1.4-2.4c-4.1-6.9-9.6-12.7-16.2-17.2l-2.3-1.6l6.4-14.3l-13.1-5.9l-6.5,14.3l-2.7-0.7
			c-7.7-1.9-15.7-2.2-23.4-0.7l-2.7,0.5L157.6,42l-13.4,5.1l5.6,14.9l-2.4,1.4c-6.8,4-12.5,9.4-17,15.9l-1.6,2.3L114.2,75L108.3,88
			l14.6,6.6l-0.7,2.7c-2,7.7-2.3,15.5-0.9,23.3l0.5,2.7l-15,5.6l5.1,13.4l14.8-5.6l1.4,2.4c4,6.9,9.4,12.7,15.9,17.3l2.2,1.6
			l-6.5,14.3l13.1,5.9l6.4-14.1l2.7,0.7c7.7,2,15.8,2.4,23.7,1L188.3,165.4z"/>
	</g>
	<g>
		<circle cx="175.7" cy="110.9" r="4.3"/>
	</g>
	<g>
		<circle cx="165.2" cy="83" r="3.4"/>
	</g>
	<g>
		<circle cx="186.5" cy="139.5" r="3.4"/>
	</g>
	<g>
		<circle cx="203.8" cy="100.5" r="3.4"/>
	</g>
	<g>
		<circle cx="147.7" cy="121.6" r="3.4"/>
	</g>
	<g>
		<path d="M257.3,263.6c-3.9,0-7.7-0.7-11.4-2c-8.6-3.1-15.5-9.3-19.4-17.5c-3.9-8.2-4.4-17.5-1.3-26.1
			c4.8-13.6,17.8-22.7,32.2-22.7c3.9,0,7.7,0.7,11.4,2c8.6,3.1,15.5,9.3,19.4,17.5c3.9,8.2,4.4,17.5,1.3,26.1
			C284.7,254.4,271.8,263.6,257.3,263.6z M257.3,201.2c-11.9,0-22.6,7.5-26.5,18.8c-2.5,7.1-2.1,14.7,1.1,21.5
			c3.2,6.8,8.9,11.9,16,14.4c3,1.1,6.2,1.6,9.4,1.6c11.9,0,22.6-7.5,26.5-18.8c2.5-7.1,2.1-14.7-1.1-21.5c-3.2-6.8-8.9-11.9-16-14.4
			C263.7,201.8,260.5,201.2,257.3,201.2z"/>
	</g>
	<g>
		<path d="M257.3,248.2c-2.1,0-4.3-0.4-6.3-1.1c-9.8-3.5-14.9-14.2-11.4-24c2.7-7.5,9.8-12.5,17.7-12.5c2.1,0,4.3,0.4,6.3,1.1
			c4.7,1.7,8.5,5.1,10.7,9.6c2.2,4.5,2.4,9.6,0.7,14.4C272.4,243.2,265.3,248.2,257.3,248.2z M257.3,216.6c-5.4,0-10.2,3.4-12,8.5
			c-2.4,6.6,1.1,14,7.8,16.3c1.4,0.5,2.8,0.7,4.3,0.7c5.4,0,10.2-3.4,12-8.5c1.1-3.2,1-6.7-0.5-9.8s-4-5.4-7.3-6.6
			C260.2,216.9,258.8,216.6,257.3,216.6z"/>
	</g>
	<g>
		<path d="M247.5,289.7l-20.9-7.4l4.3-12.1c-4.4-2.9-8.3-6.4-11.5-10.6l-11.6,5.5l-9.5-20l11.8-5.6c-1.1-5.1-1.3-10.3-0.6-15.5
			l-12.4-4.4l7.4-20.9l12.6,4.5c2.8-4.3,6.3-8.1,10.4-11.3l-5.7-12l20-9.5l5.8,12.1c5-1.1,10.2-1.3,15.3-0.8l4.4-12.5l20.9,7.4
			l-4.4,12.5c4.4,2.8,8.2,6.3,11.5,10.3l11.8-5.6l9.5,20l-11.7,5.6c1.1,5.2,1.4,10.4,0.8,15.6l12.1,4.3l-7.4,20.9l-12.1-4.3
			c-2.9,4.5-6.4,8.4-10.6,11.7L293,279l-20,9.5l-5.5-11.5c-5.2,1.1-10.5,1.4-15.8,0.7L247.5,289.7z M234.3,278.6l9.6,3.4l3.9-11
			l2.5,0.4c6,1,12.2,0.8,18.1-0.8l2.4-0.6l5,10.5l9.2-4.4l-5-10.5l2.1-1.5c5-3.6,9.1-8.1,12.2-13.5l1.2-2.2l11.1,3.9l3.4-9.6
			l-11.1-3.9l0.4-2.5c1-6,0.7-12.1-1-18l-0.7-2.4l10.8-5.1l-4.4-9.2l-10.8,5.2l-1.5-2c-3.6-4.9-8-8.9-13.3-11.9l-2.2-1.2l4.1-11.5
			l-9.6-3.4l-4.1,11.5l-2.5-0.4c-5.9-1-11.9-0.7-17.7,0.9l-2.4,0.6l-5.3-11.1l-9.2,4.4l5.3,11.1l-2.1,1.5c-4.9,3.5-9,7.9-12,13.1
			l-1.3,2.1l-11.5-4.1l-3.4,9.6l11.4,4.1l-0.4,2.5c-1,6-0.8,12,0.7,17.9l0.6,2.4l-10.8,5.2l4.4,9.2l10.7-5.1l1.5,2.1
			c3.5,5,8,9.1,13.3,12.2l2.1,1.3L234.3,278.6z"/>
	</g>
	<g>
		<circle cx="257.3" cy="229.4" r="3.3"/>
	</g>
	<g>
		<circle cx="265" cy="207.8" r="2.6"/>
	</g>
	<g>
		<circle cx="248.5" cy="251.6" r="2.6"/>
	</g>
	<g>
		<circle cx="279" cy="237.2" r="2.6"/>
	</g>
	<g>
		<circle cx="234.5" cy="221.8" r="2.6"/>
	</g>
</g>
</svg>
