<?xml version="1.0" encoding="utf-8"?>
<!-- Generator: Adobe Illustrator 18.0.0, SVG Export Plug-In . SVG Version: 6.00 Build 0)  -->
<!DOCTYPE svg PUBLIC "-//W3C//DTD SVG 1.1//EN" "http://www.w3.org/Graphics/SVG/1.1/DTD/svg11.dtd">
<svg version="1.1" id="Layer_1" xmlns="http://www.w3.org/2000/svg" xmlns:xlink="http://www.w3.org/1999/xlink" x="0px" y="0px"
	 viewBox="0 0 350 370" enable-background="new 0 0 350 370" xml:space="preserve">
<g>
	<g>
		<g>
			<g>
				<ellipse cx="160.2" cy="225.3" rx="10.1" ry="3.9"/>
			</g>
		</g>
		<g>
			<g>
				<ellipse cx="189.8" cy="225.3" rx="10.1" ry="3.9"/>
			</g>
		</g>
		<g>
			<g>
				<path d="M260.5,263c-20.7,0-37.5-16.8-37.5-37.5s16.8-37.5,37.5-37.5s37.5,16.8,37.5,37.5S281.2,263,260.5,263z M260.5,195.5
					c-16.5,0-29.9,13.4-29.9,29.9s13.4,29.9,29.9,29.9s29.9-13.4,29.9-29.9S277,195.5,260.5,195.5z"/>
			</g>
		</g>
		<g>
			<g>
				<circle cx="260.5" cy="211.1" r="6.1"/>
			</g>
		</g>
		<g>
			<g>
				<circle cx="260.5" cy="239.5" r="6.1"/>
			</g>
		</g>
		<g>
			<g>
				<circle cx="274.7" cy="225.3" r="6.1"/>
			</g>
		</g>
		<g>
			<g>
				<circle cx="246.4" cy="225.3" r="6.1"/>
			</g>
		</g>
		<g>
			<g>
				<path d="M105.7,262.1h-33v-20.2H52.6v-33h20.2v-20.2h33V209h20.2v33h-20.2V262.1z M80.4,254.5h17.8v-20.2h20.2v-17.8H98.1v-20.2
					H80.4v20.2H60.2v17.8h20.2V254.5z"/>
			</g>
		</g>
		<g>
			<path d="M259.2,152.4c-0.8,0-1.7,0-2.5,0H204v-16h-24.8v-8.1l0-0.3c0-0.1-0.4-5.6,2.9-9.2c2-2.2,5.2-3.3,9.5-3.3H208
				c1.2,0,9,0,14.2-5c2.8-2.7,4.4-6.5,4.4-10.9c0.1-1.3,0.2-6.4-3.5-10.6c-3.1-3.5-7.8-5.3-14.1-5.3h-47.5l-0.3,0
				c-0.1,0-5.2,0.4-8.5-2.7c-2-1.9-3-4.8-3-8.7h-7.6c0,6.2,1.9,11,5.6,14.4c5.4,4.9,12.7,4.7,14,4.6H209c3.9,0,6.8,0.9,8.4,2.7
				c1.9,2.1,1.6,5,1.6,5l0,0.5c0,2.4-0.7,4.3-2.1,5.6c-2.6,2.5-7.2,3-8.7,2.9l-16.7,0c-6.5,0-11.5,2-15,5.8
				c-5.2,5.6-5,13.4-4.9,14.7v8h-25.1v16H93.3c-0.8,0-1.7,0-2.5,0c-40.3,0-73,32.8-73,73s32.8,73,73,73c24.7,0,47.2-12.2,60.8-32.6
				h46.8c13.6,20.5,36.2,32.6,60.8,32.6c40.3,0,73-32.8,73-73S299.5,152.4,259.2,152.4z M154,144.1h42.3v8.4H154V144.1z
				 M231.9,160.1l-23.1,18.8h-70l-19.5-18.8L231.9,160.1z M259.2,290.9c-22.7,0-43.5-11.5-55.5-30.8l-1.1-1.8h-55.1l-1.1,1.8
				c-12.1,19.3-32.8,30.8-55.5,30.8c-36.1,0-65.4-29.3-65.4-65.4S54.7,160,90.8,160c0.8,0,1.5,0,2.3,0l15.3,0l27.4,26.4h75.7
				l32.5-26.4l12.8,0l0.1,0c0.8,0,1.5,0,2.3,0c36.1,0,65.4,29.3,65.4,65.4S295.3,290.9,259.2,290.9z"/>
		</g>
	</g>
	<g>
		<g>
			<rect x="130.7" y="38.7" width="88.7" height="7.6"/>
		</g>
	</g>
	<g>
		<g>
			<rect x="83" y="54.5" width="235.7" height="7.6"/>
		</g>
	</g>
	<g>
		<g>
			<rect x="31.2" y="70.4" width="95.3" height="7.6"/>
		</g>
		<g>
			<rect x="238.5" y="70.4" width="80.3" height="7.6"/>
		</g>
	</g>
	<g>
		<g>
			<rect x="238.7" y="86.2" width="80.1" height="7.6"/>
		</g>
	</g>
	<g>
		<g>
			<rect x="31.2" y="102" width="121.1" height="7.6"/>
		</g>
		<g>
			<rect x="238.2" y="102" width="80.6" height="7.6"/>
		</g>
	</g>
	<g>
		<g>
			<rect x="31.2" y="117.9" width="88.7" height="7.6"/>
		</g>
	</g>
	<g>
		<g>
			<rect x="31.2" y="133.7" width="88.7" height="7.6"/>
		</g>
		<g>
			<rect x="230.1" y="133.7" width="88.7" height="7.6"/>
		</g>
	</g>
	<g>
		<g>
			<rect x="31.2" y="307.9" width="187.3" height="7.6"/>
		</g>
		<g>
			<rect x="230.1" y="307.9" width="88.7" height="7.6"/>
		</g>
	</g>
	<g>
		<g>
			<rect x="130.7" y="323.7" width="134.7" height="7.6"/>
		</g>
	</g>
</g>
</svg>
