<?xml version="1.0" encoding="utf-8"?>
<!-- Generator: Adobe Illustrator 18.0.0, SVG Export Plug-In . SVG Version: 6.00 Build 0)  -->
<!DOCTYPE svg PUBLIC "-//W3C//DTD SVG 1.1//EN" "http://www.w3.org/Graphics/SVG/1.1/DTD/svg11.dtd">
<svg version="1.1" id="Layer_1" xmlns="http://www.w3.org/2000/svg" xmlns:xlink="http://www.w3.org/1999/xlink" x="0px" y="0px"
	 viewBox="0 0 350 370" enable-background="new 0 0 350 370" xml:space="preserve">
<g>
	<g>
		<polyline fill="#FFFFFF" points="155.8,194.6 155.8,221 193.3,221 193.3,194.6 		"/>
		<g>
			<rect x="159.8" y="214" fill="none" width="29.5" height="3"/>
			<path d="M242,114.4v45c0,11.6-4.5,23.4-12.3,32.4c-8,9.2-18.3,14.3-29,14.3h-3.4v-11.4h-8V206v8v3h-29.5v-3v-8v-11.4h-8V206h-3.4
				c-10.7,0-21-5.1-29-14.3c-7.8-9-12.3-20.8-12.3-32.4v-45h-8v45c0,29.1,23.1,54.6,49.4,54.6h3.4v11h45.5v-11h3.4
				c26.3,0,49.4-25.5,49.4-54.6v-45H242z"/>
		</g>
	</g>
	<g>
		<path d="M189.9,197h-30.7c-22.1,0-40.1-18-40.1-40.1V69.7c0-20.5,16.7-37.2,37.2-37.2h36.6c20.5,0,37.2,16.7,37.2,37.2v87.2
			C230,179,212,197,189.9,197z M156.2,40.5c-16.1,0-29.2,13.1-29.2,29.2v87.2c0,17.7,14.4,32.1,32.1,32.1h30.7
			c17.7,0,32.1-14.4,32.1-32.1V69.7c0-16.1-13.1-29.2-29.2-29.2H156.2z"/>
	</g>
	<g>
		<rect x="122.8" y="80.3" width="36.5" height="8"/>
	</g>
	<g>
		<rect x="122.8" y="100.7" width="36.5" height="8"/>
	</g>
	<g>
		<rect x="122.8" y="121.1" width="36.5" height="8"/>
	</g>
	<g>
		<rect x="191.4" y="37.6" width="8" height="30.3"/>
	</g>
	<g>
		<rect x="242" y="109.9" width="20" height="8"/>
	</g>
	<g>
		<rect x="87" y="109.9" width="19.8" height="8"/>
	</g>
	<g>
		<rect x="171" y="37.6" width="8" height="30.3"/>
	</g>
	<g>
		<rect x="150.6" y="37.6" width="8" height="30.3"/>
	</g>
	<g>
		<rect x="122.8" y="141.5" width="36.5" height="8"/>
	</g>
	<g>
		<rect x="189.5" y="80.3" width="36.5" height="8"/>
	</g>
	<g>
		<rect x="189.5" y="100.7" width="36.5" height="8"/>
	</g>
	<g>
		<rect x="189.5" y="121.1" width="36.5" height="8"/>
	</g>
	<g>
		<rect x="189.5" y="141.5" width="36.5" height="8"/>
	</g>
	<path d="M150.6,303.3v-45.7c0-1.1-0.4-2.1-1.2-2.8l-39.2-39l0,0c-6-5.9-15.3-6.2-20.8-0.6c-2.7,2.7-4.1,6.5-3.9,10.6
		c0.2,3.9,1.9,7.6,4.8,10.4l27.5,27.4l5.7-5.7l-27.5-27.4c-1.5-1.5-2.3-3.3-2.4-5.2c-0.1-1.8,0.4-3.3,1.5-4.4c2.4-2.4,6.8-2,9.7,0.8
		l0,0l37.9,37.7v44h-41.9c0-0.1,0-0.3,0-0.5v-14.4c0-1.1-0.4-2.1-1.2-2.8l-37.1-37V155c0-3.8,2.8-6.8,6.3-6.8s6.3,3.1,6.3,6.8v58.8
		c0,2.2,1.8,4,4,4s4-1.8,4-4V155c0-8.2-6.4-14.8-14.3-14.8s-14.3,6.7-14.3,14.8v95.3c0,1.1,0.4,2.1,1.2,2.8l37.1,37v12.8
		c0,0.2,0,0.3,0,0.5h-11v34.2H163v-34.2H150.6z M155,329.5H89.9v-18.2H155V329.5z"/>
	<path d="M281.2,140.2c-7.9,0-14.3,6.7-14.3,14.8v58.8c0,2.2,1.8,4,4,4s4-1.8,4-4V155c0-3.8,2.8-6.8,6.3-6.8s6.3,3.1,6.3,6.8v93.7
		l-37.1,37c-0.8,0.8-1.2,1.8-1.2,2.8v14.4c0,0.2,0,0.3,0,0.5h-41.9v-44l37.9-37.7l0,0c1.5-1.5,3.3-2.3,5.2-2.4
		c1.8-0.1,3.3,0.5,4.4,1.6c1.1,1.1,1.7,2.7,1.5,4.4c-0.1,1.9-1,3.8-2.5,5.2l-27.5,27.4l5.7,5.7l27.5-27.4c2.9-2.8,4.6-6.5,4.8-10.4
		c0.2-4.1-1.1-7.8-3.9-10.6c-2.7-2.7-6.5-4.1-10.5-3.9c-3.8,0.2-7.5,1.8-10.3,4.6l0,0l-39.2,39c-0.8,0.8-1.2,1.8-1.2,2.8v45.7H187
		v34.2h81.2v-34.2h-11c0-0.1,0-0.3,0-0.5v-12.8l37.1-37c0.8-0.8,1.2-1.8,1.2-2.8V155C295.5,146.8,289.1,140.2,281.2,140.2z
		 M260.1,329.5H195v-18.2h65.2V329.5z"/>
</g>
</svg>
