<?xml version="1.0" encoding="utf-8"?>
<!-- Generator: Adobe Illustrator 18.0.0, SVG Export Plug-In . SVG Version: 6.00 Build 0)  -->
<!DOCTYPE svg PUBLIC "-//W3C//DTD SVG 1.1//EN" "http://www.w3.org/Graphics/SVG/1.1/DTD/svg11.dtd">
<svg version="1.1" id="Layer_1" xmlns="http://www.w3.org/2000/svg" xmlns:xlink="http://www.w3.org/1999/xlink" x="0px" y="0px"
	 viewBox="0 0 350 370" enable-background="new 0 0 350 370" xml:space="preserve">
<g>
	<polygon fill="none" points="114.1,268.5 116.7,270 142.7,285 143.5,285.5 181.4,219.8 151.9,202.8 	"/>
	<path fill="none" d="M106,272.3l-2.5-1.4L227.6,55.5c-7.1-2.3-14.4-4.1-21.8-5.3c-8-1.4-16.3-2-24.6-2
		c-37.6,0-75.5,14.1-103.9,38.6c-30.1,26-46.7,61-46.7,98.5c0,44.2,23,83.5,58.5,108.7c0.8-2.9,1.7-5.6,2.6-7.8
		C94.6,279.7,99.7,274.9,106,272.3z M133.6,78.6c5-5.1,11.7-7.9,18.8-7.9l0.2,0c14.6,0,26.5,11.9,26.6,26.5
		c0.1,14.7-11.8,26.7-26.5,26.8l-0.2,0c-14.6,0-26.5-11.9-26.6-26.5C125.8,90.4,128.6,83.7,133.6,78.6z M74.5,124.3
		c5-5.1,11.7-7.9,18.8-7.9l0.2,0c14.6,0,26.5,11.9,26.6,26.5c0.1,14.7-11.8,26.7-26.5,26.8l-0.2,0c-14.6,0-26.5-11.9-26.6-26.5
		C66.7,136,69.5,129.3,74.5,124.3z M81.6,243.2c-14.6,0-26.5-11.9-26.6-26.5c0-7.1,2.7-13.8,7.7-18.9c5-5.1,11.7-7.9,18.8-7.9l0.2,0
		c14.6,0,26.5,11.9,26.6,26.5c0,7.1-2.7,13.8-7.7,18.9c-5,5.1-11.7,7.9-18.8,7.9L81.6,243.2z"/>
	<path fill="none" d="M145.5,294.9c0.5,6.2-1.2,12.5-4.9,18.5c-0.7,1.2-1.6,2.4-2.5,3.5c13.7,3.7,28.2,5.8,43.1,5.8
		c27.5,0,56.4-7.6,81.2-21.5c20.3-11.3,36.7-24.5,50.1-40.2c2.7-3.2,6.1-9.3,6.7-12.9c1.6-9.5-7.7-13.1-24.2-16
		c-2.1-0.4-4-0.7-5.6-1.1c-20.8-4.9-59.4-14.1-59.5-43.5c0-31.3,25.5-36.3,47.8-37.2c18.3-0.7,30.2-5.7,33.7-14
		c3.8-9-1.9-22.4-16-37.6c-7.1-7.6-14.9-14.5-23.2-20.6L146.8,295.7L145.5,294.9z"/>
	<path fill="#231F20" d="M89.1,293.9c-35.6-25.2-58.5-64.5-58.5-108.7c0-37.6,16.6-72.5,46.7-98.5c28.4-24.5,66.3-38.6,103.9-38.6
		c8.3,0,16.6,0.7,24.6,2c7.4,1.3,14.7,3,21.8,5.3l4.1-7.1c-8-2.7-16.2-4.7-24.6-6.1c-8.5-1.4-17.2-2.2-25.9-2.2
		c-39.5,0-79.3,14.8-109.1,40.5c-31.9,27.5-49.5,64.7-49.5,104.6c0,47.9,25.4,90.4,64.4,116.9c0.2-0.9,0.5-1.8,0.7-2.8
		C88.2,297.5,88.6,295.7,89.1,293.9z"/>
	<path fill="#231F20" d="M296.4,224.3c-2-0.4-3.8-0.7-5.1-1c-18.6-4.4-53.3-12.6-53.3-35.7c0-19.6,11.6-28.1,40.1-29.2
		c27.6-1.1,37.4-10.9,40.8-18.9c3.6-8.6,3.4-23.5-17.5-46.1c-7.6-8.2-16-15.6-25.1-22.1l-4,7c8.4,6.1,16.2,13,23.2,20.6
		c14.1,15.2,19.8,28.6,16,37.6c-3.5,8.3-15.4,13.3-33.7,14c-22.3,0.8-47.8,5.8-47.8,37.2c0,29.3,38.7,38.5,59.5,43.5
		c1.6,0.4,3.4,0.7,5.6,1.1c16.5,3,25.8,6.5,24.2,16c-0.6,3.6-4,9.7-6.7,12.9c-13.4,15.7-29.7,28.8-50.1,40.2
		c-24.8,13.8-53.7,21.5-81.2,21.5c-15,0-29.5-2-43.1-5.8c-1.8,2.3-4,4.5-6.3,6.5c15.6,4.7,32.2,7.2,49.4,7.2
		c28.9,0,59.1-8,85.1-22.5c21.2-11.8,38.3-25.5,52.3-42c3.5-4.1,7.7-11.4,8.5-16.8C330.3,230.3,308.2,226.4,296.4,224.3z"/>
	<path fill="#FFFFFF" d="M152.5,116l0.1,0c10.3-0.1,18.6-8.5,18.5-18.7c-0.1-10.2-8.4-18.5-18.6-18.5l-0.1,0c-5,0-9.6,2-13.1,5.5
		c-3.5,3.5-5.4,8.2-5.4,13.2C134,107.7,142.3,116,152.5,116z"/>
	<path fill="#231F20" d="M152.5,124l0.2,0c14.7-0.1,26.5-12.1,26.5-26.8c-0.1-14.6-12-26.5-26.6-26.5l-0.2,0
		c-7.1,0-13.8,2.9-18.8,7.9c-5,5.1-7.7,11.8-7.7,18.9C126,112.1,137.9,124,152.5,124z M152.4,74.7c12.5-0.1,22.7,10,22.8,22.5
		c0.1,12.5-10,22.7-22.5,22.8c-12.5,0.1-22.7-10-22.8-22.5S139.9,74.8,152.4,74.7z"/>
	<path fill="#231F20" d="M152.7,120c12.5-0.1,22.6-10.3,22.5-22.8c-0.1-12.5-10.3-22.6-22.8-22.5c-12.5,0.1-22.6,10.3-22.5,22.8
		S140.2,120,152.7,120z M139.3,84.2c3.5-3.5,8.2-5.5,13.1-5.5l0.1,0c10.2,0,18.6,8.3,18.6,18.5c0.1,10.3-8.2,18.7-18.5,18.7l-0.1,0
		c-10.2,0-18.6-8.3-18.6-18.5C133.9,92.5,135.8,87.8,139.3,84.2z"/>
	<path fill="#FFFFFF" d="M93.4,161.6l0.1,0c10.3-0.1,18.6-8.5,18.5-18.7c-0.1-10.2-8.4-18.5-18.6-18.5l-0.1,0c-5,0-9.6,2-13.1,5.5
		c-3.5,3.5-5.4,8.2-5.4,13.2C74.9,153.3,83.2,161.6,93.4,161.6z"/>
	<path fill="#231F20" d="M93.4,169.6l0.2,0c14.7-0.1,26.5-12.1,26.5-26.8c-0.1-14.6-12-26.5-26.6-26.5l-0.2,0
		c-7.1,0-13.8,2.9-18.8,7.9c-5,5.1-7.7,11.8-7.7,18.9C66.9,157.7,78.8,169.6,93.4,169.6z M93.3,120.3c12.5-0.1,22.7,10,22.8,22.5
		c0.1,12.5-10,22.7-22.5,22.8s-22.7-10-22.8-22.5C70.7,130.6,80.8,120.4,93.3,120.3z"/>
	<path fill="#231F20" d="M93.6,165.6c12.5-0.1,22.6-10.3,22.5-22.8c-0.1-12.5-10.3-22.6-22.8-22.5s-22.6,10.3-22.5,22.8
		C70.9,155.6,81.1,165.7,93.6,165.6z M80.2,129.9c3.5-3.5,8.2-5.5,13.1-5.5l0.1,0c10.2,0,18.6,8.3,18.6,18.5
		c0.1,10.3-8.2,18.7-18.5,18.7l-0.1,0c-10.2,0-18.6-8.3-18.6-18.5C74.8,138.1,76.7,133.4,80.2,129.9z"/>
	<path fill="#FFFFFF" d="M81.6,198l-0.1,0c-5,0-9.6,2-13.1,5.5c-3.5,3.5-5.4,8.2-5.4,13.2c0.1,10.2,8.4,18.5,18.6,18.5l0.1,0
		c5,0,9.6-2,13.1-5.5c3.5-3.5,5.4-8.2,5.4-13.2C100.2,206.3,91.8,198,81.6,198z"/>
	<path fill="#231F20" d="M108.3,216.4c-0.1-14.6-12-26.5-26.6-26.5l-0.2,0c-7.1,0-13.8,2.9-18.8,7.9c-5,5.1-7.7,11.8-7.7,18.9
		c0.1,14.6,12,26.5,26.6,26.5l0.2,0c7.1,0,13.8-2.9,18.8-7.9C105.6,230.2,108.3,223.5,108.3,216.4z M81.8,239.2
		c-12.5,0.1-22.7-10-22.8-22.5S69,194,81.5,194s22.7,10,22.8,22.5S94.3,239.1,81.8,239.2z"/>
	<path fill="#231F20" d="M81.5,194C69,194,58.9,204.2,59,216.7s10.3,22.6,22.8,22.5c12.5-0.1,22.6-10.3,22.5-22.8S94,193.9,81.5,194
		z M94.9,229.7c-3.5,3.5-8.2,5.5-13.1,5.5l-0.1,0c-10.2,0-18.6-8.3-18.6-18.5c0-5,1.9-9.7,5.4-13.2c3.5-3.5,8.2-5.5,13.1-5.5l0.1,0
		c10.2,0,18.6,8.3,18.6,18.5C100.3,221.4,98.4,226.1,94.9,229.7z"/>
	<path fill="none" d="M185.4,212.8l80.2-139.2c-2.2-1.4-4.4-2.8-6.7-4.1l-72.5,126.4l-6.9-4l72.5-126.3c-5.4-2.8-10.9-5.3-16.6-7.4
		l-79.3,137.6L185.4,212.8z"/>
	<path fill="none" d="M271.5,63.3c3.4-6,1.4-13.6-4.6-17.1l-7.8-4.5c-2.9-1.7-6.3-2.1-9.5-1.2c-3.2,0.9-5.9,2.9-7.6,5.8l-2.8,4.8
		c10.6,4.1,20.8,9.3,30.3,15.5L271.5,63.3z"/>
	<path fill="none" d="M83.6,329.9c13.8-0.2,26.1-2.9,35.7-7.7c1.1-0.5,2.2-1.2,3.2-1.8c-10-3.7-19.5-8.3-28.4-13.6
		C91.8,314.9,88.9,323.9,83.6,329.9z"/>
	<path fill="none" d="M136.8,291.8c-0.1-0.4-0.3-0.8-0.4-1.2l-21.6-12.4c-7.1,0.8-12.9,4.8-15.8,11.2c-1,2.3-2,5.6-2.9,9.2
		c10.3,6.5,21.6,11.8,33.6,15.8c1.5-1.6,2.9-3.4,4.1-5.2C136.3,305.1,138.9,298.8,136.8,291.8z"/>
	<path fill="#231F20" d="M106,272.3l0.3,0.2l0.2-0.3C106.3,272.2,106.1,272.2,106,272.3z"/>
	<path fill="#231F20" d="M145.5,294.9c-0.1-1.2-0.3-2.5-0.6-3.7l-1.5,2.5L145.5,294.9z"/>
	
		<rect x="152.7" y="204.1" transform="matrix(-0.8664 -0.4994 0.4994 -0.8664 213.7133 469.33)" fill="#231F20" width="34" height="4"/>
	
		<rect x="165.7" y="192.6" transform="matrix(0.4994 -0.8664 0.8664 0.4994 -97.6101 250.1428)" fill="#231F20" width="4" height="34"/>
	
		<rect x="184.1" y="213.5" transform="matrix(-0.4995 0.8663 -0.8663 -0.4995 465.8903 161.9973)" fill="#231F20" width="4" height="4.1"/>
	
		<rect x="182.1" y="217" transform="matrix(-0.8664 -0.4994 0.4994 -0.8664 234.2946 500.7892)" fill="#231F20" width="4.1" height="4"/>
	
		<rect x="148.9" y="197.5" transform="matrix(0.4995 -0.8663 0.8663 0.4995 -97.6335 230.7139)" fill="#231F20" width="4" height="4.8"/>
	
		<rect x="150.5" y="194.4" transform="matrix(0.8664 0.4994 -0.4994 0.8664 118.5095 -50.093)" fill="#231F20" width="4.8" height="4"/>
	<path fill="#231F20" d="M113,270.3c1.2-0.2,2.5-0.3,3.7-0.3l-2.7-1.5L113,270.3z"/>
	<path fill="#231F20" d="M143.2,286l0.3-0.6l-0.8-0.5C142.8,285.3,143,285.7,143.2,286z"/>
	<path fill="#231F20" d="M145.1,291l-0.2-0.1c0,0.1,0.1,0.3,0.1,0.4L145.1,291z"/>
	<path fill="#231F20" d="M106.4,272.1l-0.2,0.3l4.2,2.4l1.7-2.9l-1.9-1.1C108.9,271.2,107.7,271.6,106.4,272.1z"/>
	<path fill="#231F20" d="M106,272.3c0.2-0.1,0.3-0.1,0.5-0.2c1.2-0.5,2.5-0.9,3.8-1.2c0.9-0.2,1.8-0.4,2.8-0.6l1.1-1.8l37.9-65.7
		l-4.2-2.4l2-3.5l2-3.5l4.2,2.4l79.3-137.6c-2.5-1-5.1-1.9-7.7-2.7L103.5,270.8L106,272.3z"/>
	<path fill="#231F20" d="M242.1,46.4c1.7-2.9,4.4-5,7.6-5.8c3.2-0.9,6.6-0.4,9.5,1.2l7.8,4.5c6,3.4,8,11.1,4.6,17.1l-1.9,3.3
		c2.2,1.5,4.5,3,6.6,4.5l2.2-3.9c5.6-9.8,2.3-22.4-7.5-28l-7.8-4.5c-4.7-2.7-10.3-3.5-15.6-2c-5.3,1.4-9.7,4.8-12.4,9.6l-3.5,6.1
		c2.6,0.9,5.1,1.8,7.6,2.8L242.1,46.4z"/>
	<path fill="#231F20" d="M185.4,212.8l3.6,2.1l-2,3.5v0v0l-2,3.5l-3.6-2.1l-37.9,65.7l-0.3,0.6c0.5,1.1,0.9,2.2,1.3,3.4
		c0.1,0.5,0.3,0.9,0.4,1.4l0.2,0.1l-0.1,0.2c0.3,1.2,0.5,2.5,0.6,3.7l1.3,0.8L272.2,78.2c-2.2-1.6-4.4-3.1-6.6-4.5L185.4,212.8z"/>
	<path fill="#231F20" d="M235.3,58.2l4-7c-2.5-1-5.1-1.9-7.6-2.8l-4.1,7.1C230.2,56.4,232.7,57.3,235.3,58.2z"/>
	<path fill="#231F20" d="M265.6,73.6c2.2,1.5,4.4,3,6.6,4.5l4-7c-2.2-1.6-4.4-3.1-6.6-4.5L265.6,73.6z"/>
	<path fill="#231F20" d="M119.3,322.2c-9.6,4.8-21.9,7.4-35.7,7.7c5.3-6,8.3-14.9,10.5-23.2c-2.4-1.5-4.8-3-7.1-4.5
		c-4,15.4-8.4,26.8-19.1,26.8c-0.7,0-1.4,0-2.2-0.1c0,0,0,0,0,0l-1,7.9c5.6,0.7,11.3,1.1,16.9,1.1h0c15.8,0,30.1-2.9,41.3-8.5
		c3.2-1.6,6.2-3.6,8.9-5.9c-3.1-0.9-6.2-2-9.3-3.1C121.4,321,120.4,321.7,119.3,322.2z"/>
	<path fill="#231F20" d="M145.5,294.9l-2-1.2l1.5-2.5c0-0.1-0.1-0.3-0.1-0.4c-0.1-0.5-0.2-0.9-0.4-1.4c-0.4-1.2-0.8-2.3-1.3-3.4
		c-0.2-0.4-0.3-0.7-0.5-1.1L116.7,270c-1.3,0-2.5,0.1-3.7,0.3l-0.9,1.6l-1.7,2.9l-4.2-2.4l-0.3-0.2c-6.3,2.6-11.4,7.4-14.2,13.8
		c-1,2.2-1.8,4.9-2.6,7.8c2.3,1.6,4.6,3.2,7,4.7c0.9-3.6,1.9-6.9,2.9-9.2c2.9-6.4,8.7-10.4,15.8-11.2l21.6,12.4
		c0.1,0.4,0.3,0.8,0.4,1.2c2.1,7-0.5,13.4-3,17.4c-1.1,1.8-2.5,3.6-4.1,5.2c2.7,0.9,5.5,1.8,8.4,2.5c0.9-1.1,1.7-2.3,2.5-3.5
		C144.3,307.4,146,301.1,145.5,294.9z M124.9,279.3c2.2,0.8,4.4,2,6.4,3.7L124.9,279.3z"/>
	<path fill="#231F20" d="M138.1,316.9c-2.8-0.8-5.6-1.6-8.4-2.5c-2.1,2.3-4.6,4.3-7.2,5.9c3,1.1,6.1,2.1,9.3,3.1
		C134.1,321.5,136.2,319.3,138.1,316.9z"/>
	<path fill="#231F20" d="M95.4,301.4c0.2-0.9,0.5-1.9,0.7-2.8c-2.4-1.5-4.7-3.1-7-4.7c-0.5,1.8-0.9,3.6-1.4,5.5
		c-0.2,0.9-0.5,1.9-0.7,2.8c2.3,1.6,4.7,3.1,7.1,4.5C94.5,304.9,95,303.1,95.4,301.4z"/>
	<path fill="#231F20" d="M131.2,283c-1.9-1.7-4.1-2.9-6.4-3.7L131.2,283z"/>
	<path fill="#231F20" d="M112.1,272l0.9-1.6c-0.9,0.1-1.9,0.3-2.8,0.6L112.1,272z"/>
	<path fill="#231F20" d="M179.4,192l6.9,4l72.5-126.4c-2.3-1.3-4.6-2.6-7-3.9L179.4,192z"/>
	<path fill="#231F20" d="M252.1,65.3l-0.2,0.4c2.4,1.2,4.7,2.5,7,3.9l0.1-0.2L252.1,65.3z"/>
</g>
</svg>
