<?xml version="1.0" encoding="utf-8"?>
<!-- Generator: Adobe Illustrator 18.1.1, SVG Export Plug-In . SVG Version: 6.00 Build 0)  -->
<!DOCTYPE svg PUBLIC "-//W3C//DTD SVG 1.1//EN" "http://www.w3.org/Graphics/SVG/1.1/DTD/svg11.dtd">
<svg version="1.1" xmlns="http://www.w3.org/2000/svg" xmlns:xlink="http://www.w3.org/1999/xlink" x="0px" y="0px"
	 viewBox="0 0 41.7 45.1" enable-background="new 0 0 41.7 45.1" xml:space="preserve">
<g id="Layer_1">
	<g opacity="0.9">
		<defs>
			<rect id="SVGID_1_" x="-471.8" y="238.5" opacity="0.9" width="1399.6" height="425.8"/>
		</defs>
		<clipPath id="SVGID_2_">
			<use xlink:href="#SVGID_1_"  overflow="visible"/>
		</clipPath>
		<g clip-path="url(#SVGID_2_)">
			
				<rect x="-99" y="-132" transform="matrix(0.668 0.7442 -0.7442 0.668 -61.2758 3.0833)" fill="none" width="129.8" height="129.8"/>
			
				<rect x="8.2" y="-12.6" transform="matrix(0.668 0.7442 -0.7442 0.668 63.2564 -37.0595)" fill="none" width="129.8" height="129.8"/>
			<polygon fill="#FFFFFF" points="-1188.7,882 -1092.1,795.3 -1102.3,783.9 -1079.5,763.3 -1069.2,774.8 -972.6,688 -982.9,676.6 
				-960,656.1 -949.7,667.5 -853.1,580.8 -863.4,569.3 -840.5,548.8 -830.2,560.3 -733.6,473.5 -743.9,462.1 -721,441.6 -710.7,453 
				-614.1,366.3 -624.4,354.8 -601.5,334.3 -591.3,345.7 -494.6,259 -504.9,247.6 -482,227.1 -471.8,238.5 -375.1,151.8 
				-385.4,140.3 -362.5,119.8 -352.3,131.2 -255.7,44.5 -265.9,33.1 -243.1,12.6 -232.8,24 -148.6,-51.6 -158.9,-63 -136,-83.5 
				-125.8,-72.1 -29.1,-158.8 -39.4,-170.2 -16.5,-190.8 -6.3,-179.3 90.3,-266.1 80.1,-277.5 102.9,-298 113.2,-286.6 
				209.8,-373.3 199.6,-384.7 222.4,-405.3 232.7,-393.8 329.3,-480.6 319.1,-492 341.9,-512.5 352.2,-501.1 448.8,-587.8 
				438.5,-599.2 461.4,-619.8 471.7,-608.3 568.3,-695.1 558,-706.5 580.9,-727 591.2,-715.6 687.8,-802.3 677.5,-813.8 
				700.4,-834.3 710.7,-822.8 818.7,-919.8 798.2,-942.7 -1220.7,869.4 -1210.4,880.8 -1199,870.6 			"/>
			
				<rect x="4.2" y="-72.3" transform="matrix(0.668 0.7442 -0.7442 0.668 0.9904 -16.9882)" fill="#FFFFFF" width="30.7" height="129.8"/>
			<polygon fill="#FFFFFF" points="1656.2,13.2 1548.2,110.2 1558.4,121.6 1535.5,142.2 1525.3,130.7 1428.7,217.4 1438.9,228.9 
				1416.1,249.4 1405.8,238 1309.2,324.7 1319.4,336.1 1296.6,356.7 1286.3,345.2 1189.7,432 1200,443.4 1177.1,463.9 1166.8,452.5 
				1070.2,539.2 1080.5,550.6 1057.6,571.2 1047.3,559.7 950.7,646.5 961,657.9 938.1,678.4 927.8,667 831.2,753.7 841.5,765.1 
				818.6,785.7 808.4,774.2 711.7,861 722,872.4 699.1,892.9 688.9,881.5 604.7,957 615,968.5 592.1,989 581.8,977.6 485.2,1064.3 
				495.5,1075.7 472.6,1096.2 462.4,1084.8 365.7,1171.5 376,1183 353.1,1203.5 342.9,1192.1 246.2,1278.8 256.5,1290.2 
				233.6,1310.8 223.4,1299.3 126.8,1386 137,1397.5 114.1,1418 103.9,1406.6 7.3,1493.3 17.5,1504.7 -5.3,1525.3 -15.6,1513.8 
				-112.2,1600.6 -102,1612 -124.8,1632.5 -135.1,1621.1 -231.7,1707.8 -221.5,1719.2 -244.3,1739.8 -254.6,1728.3 -351.2,1815.1 
				-340.9,1826.5 -352.4,1836.8 -342.1,1848.2 1676.7,36.1 			"/>
		</g>
	</g>
	<g>
		<g>
			<path fill="#33CCCC" d="M7,6.7L5.9,7.2C2.6,8.9,1,11.1,1,14.9V19L9.5,8.8L7,6.7z"/>
			<path fill="#0099FF" d="M1.5,24.3l5.1,4.3l21-25.3l-1.4-0.7c-2-1-3.2-1.4-5.4-1.4c0,0,0,0,0,0L1.5,24.3L1.5,24.3z"/>
			<path fill="#33CCCC" d="M40.6,15.2c0-1.7-0.3-3.2-0.9-4.3l-9,10.8l9.9,8.2v-7.1c0,0,0-0.1,0-0.2c0-0.1,0-0.1,0-0.2V15.2z"/>
			<path fill="#33CCFF" d="M27.9,19.2l9.3-11.1c-0.4-0.3-0.9-0.6-1.5-0.8L31.1,5l-8.3,10L27.9,19.2z"/>
			<polygon fill="#0099CC" points="14.3,3.1 10.6,4.9 11.9,6 			"/>
			<path fill="#33CC00" d="M24.1,29.6l10.5,8.7l1.1-0.5c2.1-1,3.4-2.2,4.1-3.8l-11.5-9.5L24.1,29.6z"/>
			<path fill="#339900" d="M14,41.8l1.5,0.7c1.7,0.9,3.4,1.4,5.4,1.4c2.3,0,3.4-0.4,5.4-1.4l4.7-2.4l-9.2-7.7L14,41.8z"/>
			<path fill="#006633" d="M1,30.2c0,3.8,1.5,6,4.9,7.7l4.6,2.3l1.7-2.1L1,28.8V30.2z"/>
			<polygon fill="#FFFFFF" points="31.1,40.3 34,38.8 34.2,38.8 34.8,38.5 34.6,38.3 31,40.2 			"/>
		</g>
		<polyline fill="#339966" points="25.5,22.1 14.6,35.2 9.5,31 20.4,17.8 		"/>
	</g>
</g>
<g id="Grid">
</g>
</svg>
